SplineFontDB: 3.0
FontName: Oswald-RegularItalic
FullName: Oswald RegularItalic
FamilyName: Oswald
Weight: Book
Copyright: Copyright (c) 2010-13 by Vernon Adams
Version: 3.0
ItalicAngle: 0
UnderlinePosition: -13
UnderlineWidth: 4
Ascent: 1638
Descent: 410
sfntRevision: 0x00030000
LayerCount: 2
Layer: 0 1 "Back"  1
Layer: 1 1 "Fore"  0
XUID: [1021 913 -2060267417 3734272]
FSType: 0
OS2Version: 4
OS2_WeightWidthSlopeOnly: 0
OS2_UseTypoMetrics: 1
CreationTime: 1372547259
ModificationTime: 1372725610
PfmFamily: 17
TTFWeight: 400
TTFWidth: 5
LineGap: 0
VLineGap: 0
Panose: 2 0 5 3 0 0 0 0 0 0
OS2TypoAscent: 2233
OS2TypoAOffset: 0
OS2TypoDescent: -548
OS2TypoDOffset: 0
OS2TypoLinegap: 0
OS2WinAscent: 2233
OS2WinAOffset: 0
OS2WinDescent: 548
OS2WinDOffset: 0
HheadAscent: 2233
HheadAOffset: 0
HheadDescent: -548
HheadDOffset: 0
OS2SubXSize: 1331
OS2SubYSize: 1433
OS2SubXOff: 0
OS2SubYOff: 286
OS2SupXSize: 1331
OS2SupYSize: 1433
OS2SupXOff: 0
OS2SupYOff: 983
OS2StrikeYSize: 102
OS2StrikeYPos: 530
OS2Vendor: 'newt'
OS2CodePages: 20000097.00000000
OS2UnicodeRanges: a00002ef.4000204b.00000000.00000000
Lookup: 258 0 0 "'kern' Horizontal Kerning lookup 0"  {"'kern' Horizontal Kerning lookup 0 per glyph data 0"  "'kern' Horizontal Kerning lookup 0 kerning class 1"  } ['kern' ('DFLT' <'dflt' > 'cyrl' <'dflt' > 'latn' <'dflt' > ) ]
Lookup: 260 0 0 "'mark' Mark Positioning lookup 1"  {"'mark' Mark Positioning lookup 1 subtable"  } ['mark' ('DFLT' <'dflt' > 'cyrl' <'dflt' > 'grek' <'dflt' > 'latn' <'dflt' > ) ]
MarkAttachClasses: 1
DEI: 91125
KernClass2: 40 56 "'kern' Horizontal Kerning lookup 0 kerning class 1" 
 89 A Agrave Aacute Acircumflex Atilde Adieresis Aring Abreve Amacron Aogonek uni0200 uni0202
 16 D Dcaron uni1E0A
 94 E Egrave Eacute Ecircumflex Edieresis Ebreve Ecaron Edotaccent Emacron Eogonek uni0204 uni0206
 9 F uni1E1E
 52 G Gbreve Gcircumflex Gcommaaccent Gdotaccent uni01F4
 14 K Kcommaaccent
 28 L Lacute Lcaron Lcommaaccent
 9 P uni1E56

StartChar: .notdef
Encoding: 65536 -1 0
Width: 748
Flags: W
LayerCount: 2
UndoRedoHistory
Layer: 1
Undoes
EndUndoes
Redoes
EndRedoes
EndUndoRedoHistory
Fore
SplineSet
136 68 m 1,0,-1
 544 68 l 1,1,-1
 544 1297 l 1,2,-1
 136 1297 l 1,3,-1
 136 68 l 1,0,-1
68 0 m 1,4,-1
 68 1365 l 1,5,-1
 612 1365 l 1,6,-1
 612 0 l 1,7,-1
 68 0 l 1,4,-1
EndSplineSet
EndChar

StartChar: exclam
Encoding: 33 33 4
Width: 424
GlyphClass: 2
Flags: W
LayerCount: 2
UndoRedoHistory
Layer: 1
Undoes
EndUndoes
Redoes
EndRedoes
EndUndoRedoHistory
Fore
SplineSet
56 0 m 1,0,-1
 79 221 l 1,1,-1
 294 221 l 1,2,-1
 270 0 l 1,3,-1
 56 0 l 1,0,-1
163 355 m 1,4,-1
 230 1658 l 1,5,-1
 445 1658 l 1,6,-1
 237 355 l 1,7,-1
 163 355 l 1,4,-1
EndSplineSet
EndChar

StartChar: quotedbl
Encoding: 34 34 5
Width: 773
GlyphClass: 2
Flags: W
LayerCount: 2
UndoRedoHistory
Layer: 1
Undoes
EndUndoes
Redoes
EndRedoes
EndUndoRedoHistory
Fore
SplineSet
247 1152 m 1,0,-1
 300 1658 l 1,1,-1
 491 1658 l 1,2,-1
 361 1152 l 1,3,-1
 247 1152 l 1,0,-1
550 1152 m 1,4,-1
 603 1658 l 1,5,-1
 794 1658 l 1,6,-1
 664 1152 l 1,7,-1
 550 1152 l 1,4,-1
EndSplineSet
EndChar

StartChar: numbersign
Encoding: 35 35 6
Width: 990
GlyphClass: 2
Flags: W
LayerCount: 2
UndoRedoHistory
Layer: 1
Undoes
EndUndoes
Redoes
EndRedoes
EndUndoRedoHistory
Fore
SplineSet
25 0 m 1,0,-1
 172 593 l 1,1,-1
 80 593 l 1,2,-1
 97 752 l 1,3,-1
 212 752 l 1,4,-1
 265 961 l 1,5,-1
 127 961 l 1,6,-1
 143 1121 l 1,7,-1
 304 1121 l 1,8,-1
 439 1658 l 1,9,-1
 651 1658 l 1,10,-1
 516 1121 l 1,11,-1
 700 1121 l 1,12,-1
 835 1658 l 1,13,-1
 1046 1658 l 1,14,-1
 911 1121 l 1,15,-1
 997 1121 l 1,16,-1
 980 961 l 1,17,-1
 873 961 l 1,18,-1
 819 752 l 1,19,-1
 951 752 l 1,20,-1
 934 593 l 1,21,-1
 780 593 l 1,22,-1
 632 0 l 1,23,-1
 420 0 l 1,24,-1
 568 593 l 1,25,-1
 384 593 l 1,26,-1
 236 0 l 1,27,-1
 25 0 l 1,0,-1
423 752 m 1,28,-1
 609 752 l 1,29,-1
 662 961 l 1,30,-1
 477 961 l 1,31,-1
 423 752 l 1,28,-1
EndSplineSet
EndChar

StartChar: dollar
Encoding: 36 36 7
Width: 1000
GlyphClass: 2
Flags: W
LayerCount: 2
UndoRedoHistory
Layer: 1
Undoes
EndUndoes
Redoes
EndRedoes
EndUndoRedoHistory
Fore
SplineSet
437 -159 m 1,0,-1
 452 -18 l 1,1,2
 252 -14 252 -14 161 114 c 0,3,4
 78 230 78 230 78 422 c 0,5,6
 78 441 78 441 79 461 c 1,7,-1
 284 515 l 1,8,9
 283 491 283 491 283 469 c 0,10,11
 284 421 284 421 288 382 c 0,12,13
 294 324 294 324 314.5 270.5 c 128,-1,14
 335 217 335 217 378 187.5 c 128,-1,15
 421 158 421 158 486 158 c 0,16,17
 578 158 578 158 631 208.5 c 128,-1,18
 684 259 684 259 694 357 c 0,19,20
 696 377 696 377 696 395 c 0,21,22
 696 417 696 417 693 439 c 0,23,24
 687 478 687 478 676.5 506.5 c 128,-1,25
 666 535 666 535 642.5 568 c 128,-1,26
 619 601 619 601 600 622.5 c 128,-1,27
 581 644 581 644 546 680 c 1,28,-1
 293 930 l 1,29,30
 218 1006 218 1006 188 1090 c 0,31,32
 167 1149 167 1149 167 1225 c 0,33,34
 167 1258 167 1258 171 1294 c 0,35,36
 189 1468 189 1468 299 1567.5 c 128,-1,37
 409 1667 409 1667 583 1674 c 1,38,-1
 597 1813 l 1,39,-1
 667 1813 l 1,40,-1
 653 1673 l 1,41,42
 820 1662 820 1662 896 1558 c 0,43,44
 969 1457 969 1457 969 1262 c 0,45,46
 969 1254 969 1254 969 1246 c 1,47,-1
 774 1194 l 1,48,49
 775 1217 775 1217 775 1239 c 0,50,51
 775 1282 775 1282 771 1316 c 0,52,53
 765 1368 765 1368 746 1413.5 c 0,54,55
 727 1460 727 1460 686 1482 c 0,56,57
 651 1501 651 1501 601 1501 c 0,58,59
 592 1501 592 1501 582 1500 c 0,60,61
 391 1489 391 1489 373 1315 c 0,62,63
 371 1296 371 1296 371 1279 c 0,64,65
 371 1230 371 1230 386 1193 c 0,66,67
 406 1143 406 1143 459 1088 c 1,68,-1
 714 839 l 1,69,70
 814 740 814 740 866 628 c 0,71,72
 907 540 907 540 907 433 c 0,73,74
 907 405 907 405 904 375 c 1,75,76
 886 208 886 208 782.5 105 c 128,-1,77
 679 2 679 2 523 -15 c 1,78,-1
 507 -159 l 1,79,-1
 437 -159 l 1,0,-1
EndSplineSet
EndChar

StartChar: percent
Encoding: 37 37 8
Width: 1793
GlyphClass: 2
Flags: W
LayerCount: 2
UndoRedoHistory
Layer: 1
Undoes
EndUndoes
Redoes
EndRedoes
EndUndoRedoHistory
Fore
SplineSet
440 944 m 0,0,1
 489 944 489 944 520.5 975.5 c 128,-1,2
 552 1007 552 1007 564.5 1050 c 128,-1,3
 577 1093 577 1093 583 1155 c 2,4,-1
 600 1311 l 1,5,6
 603 1349 603 1349 603 1382 c 0,7,8
 602 1398 602 1398 602 1413 c 0,9,10
 600 1458 600 1458 574.5 1485 c 128,-1,11
 549 1512 549 1512 499 1512 c 0,12,13
 461 1512 461 1512 434.5 1497 c 128,-1,14
 408 1482 408 1482 393 1451.5 c 128,-1,15
 378 1421 378 1421 370.5 1388.5 c 128,-1,16
 363 1356 363 1356 358 1309 c 2,17,-1
 341 1153 l 1,18,19
 338 1115 338 1115 338 1082 c 0,20,21
 338 1066 338 1066 338 1050 c 0,22,23
 340 1004 340 1004 366 974 c 128,-1,24
 392 944 392 944 440 944 c 0,0,1
423 784 m 0,25,26
 144 784 144 784 144 1080 c 0,27,28
 144 1119 144 1119 149 1162 c 1,29,-1
 163 1300 l 2,30,31
 182 1485 182 1485 266 1579.5 c 128,-1,32
 350 1674 350 1674 516 1674 c 128,-1,33
 682 1674 682 1674 747 1583 c 0,34,35
 797 1513 797 1513 797 1388 c 0,36,37
 797 1351 797 1351 793 1310 c 1,38,-1
 776 1156 l 1,39,40
 757 974 757 974 672 879 c 128,-1,41
 587 784 587 784 423 784 c 0,25,26
1371 150 m 0,42,43
 1420 150 1420 150 1451.5 181.5 c 128,-1,44
 1483 213 1483 213 1495.5 256 c 128,-1,45
 1508 299 1508 299 1514 361 c 2,46,-1
 1530 517 l 2,47,48
 1534 558 1534 558 1534 592 c 0,49,50
 1534 606 1534 606 1533 619 c 0,51,52
 1531 664 1531 664 1506 691 c 128,-1,53
 1481 718 1481 718 1431 718 c 0,54,55
 1393 718 1393 718 1366.5 703 c 128,-1,56
 1340 688 1340 688 1324.5 657.5 c 128,-1,57
 1309 627 1309 627 1301.5 594.5 c 128,-1,58
 1294 562 1294 562 1289 515 c 2,59,-1
 1272 359 l 1,60,61
 1270 324 1270 324 1270 293 c 0,62,63
 1270 274 1270 274 1270 256 c 0,64,65
 1272 210 1272 210 1297.5 180 c 128,-1,66
 1323 150 1323 150 1371 150 c 0,42,43
1354 -11 m 0,67,68
 1075 -11 1075 -11 1075 288 c 0,69,70
 1075 325 1075 325 1079 367 c 1,71,-1
 1094 506 l 2,72,73
 1113 691 1113 691 1197.5 785.5 c 128,-1,74
 1282 880 1282 880 1448 880 c 128,-1,75
 1614 880 1614 880 1678 788 c 0,76,77
 1727 718 1727 718 1728 597 c 0,78,79
 1728 559 1728 559 1723 516 c 1,80,-1
 1707 361 l 2,81,82
 1669 -11 1669 -11 1354 -11 c 0,67,68
526 0 m 1,83,-1
 1164 1662 l 1,84,-1
 1347 1662 l 1,85,-1
 710 0 l 1,86,-1
 526 0 l 1,83,-1
EndSplineSet
EndChar

StartChar: ampersand
Encoding: 38 38 9
Width: 1240
GlyphClass: 2
Flags: W
LayerCount: 2
UndoRedoHistory
Layer: 1
Undoes
EndUndoes
Redoes
EndRedoes
EndUndoRedoHistory
Fore
SplineSet
430 -18 m 0,0,1
 260 -18 260 -18 174 85 c 0,2,3
 103 171 103 171 103 302 c 0,4,5
 103 328 103 328 106 356 c 0,6,7
 121 499 121 499 198.5 615 c 128,-1,8
 276 731 276 731 402 835 c 1,9,10
 391 860 391 860 363 922.5 c 128,-1,11
 335 985 335 985 321.5 1019 c 128,-1,12
 308 1053 308 1053 291 1106.5 c 128,-1,13
 274 1160 274 1160 270 1209 c 0,14,15
 268 1232 268 1232 267 1256 c 0,16,17
 267 1282 267 1282 270 1309 c 0,18,19
 287 1474 287 1474 393.5 1574.5 c 128,-1,20
 500 1675 500 1675 662 1675 c 0,21,22
 815 1675 815 1675 905 1592 c 0,23,24
 982 1521 982 1521 982 1406 c 0,25,26
 982 1387 982 1387 980 1367 c 0,27,28
 972 1291 972 1291 936 1213 c 128,-1,29
 900 1135 900 1135 842 1063.5 c 128,-1,30
 784 992 784 992 731 938.5 c 128,-1,31
 678 885 678 885 610 825 c 1,32,-1
 824 421 l 1,33,34
 902 545 902 545 946 760 c 1,35,-1
 1157 760 l 1,36,37
 1145 646 1145 646 1081.5 512.5 c 128,-1,38
 1018 379 1018 379 943 287 c 1,39,40
 969 249 969 249 1010.5 225 c 128,-1,41
 1052 201 1052 201 1099 201 c 1,42,-1
 1076 -16 l 1,43,44
 1061 -18 1061 -18 1046 -16 c 1,45,46
 1007 -15 1007 -15 973 -3 c 128,-1,47
 939 9 939 9 908.5 34 c 128,-1,48
 878 59 878 59 860 78 c 128,-1,49
 842 97 842 97 813 131 c 0,50,51
 806 140 806 140 802 144 c 1,52,53
 735 70 735 70 639.5 26 c 128,-1,54
 544 -18 544 -18 430 -18 c 0,0,1
449 158 m 0,55,56
 572 158 572 158 688 282 c 1,57,-1
 470 684 l 1,58,59
 408 617 408 617 368.5 531 c 128,-1,60
 329 445 329 445 319 355 c 0,61,62
 317 337 317 337 316.5 318.5 c 128,-1,63
 316 300 316 300 319 282 c 0,64,65
 324 246 324 246 337 219 c 128,-1,66
 350 192 350 192 379 175 c 128,-1,67
 408 158 408 158 449 158 c 0,55,56
547 941 m 1,68,69
 629 1026 629 1026 693 1142.5 c 128,-1,70
 757 1259 757 1259 768 1368 c 0,71,72
 769 1378 769 1378 769 1388 c 0,73,74
 769 1434 769 1434 741 1464 c 0,75,76
 707 1500 707 1500 644 1500 c 0,77,78
 573 1500 573 1500 531 1444.5 c 128,-1,79
 489 1389 489 1389 481 1309 c 0,80,81
 478 1281 478 1281 478 1252 c 0,82,83
 478 1194 478 1194 490 1136 c 0,84,85
 508 1050 508 1050 547 941 c 1,68,69
EndSplineSet
EndChar

StartChar: quotesingle
Encoding: 39 39 10
Width: 733
GlyphClass: 2
Flags: W
LayerCount: 2
UndoRedoHistory
Layer: 1
Undoes
EndUndoes
Redoes
EndRedoes
EndUndoRedoHistory
Fore
SplineSet
247 1152 m 1,0,-1
 300 1658 l 1,1,-1
 491 1658 l 1,2,-1
 361 1152 l 1,3,-1
 247 1152 l 1,0,-1
EndSplineSet
EndChar

StartChar: parenleft
Encoding: 40 40 11
Width: 606
GlyphClass: 2
Flags: W
LayerCount: 2
UndoRedoHistory
Layer: 1
Undoes
EndUndoes
Redoes
EndRedoes
EndUndoRedoHistory
Fore
SplineSet
456 -391 m 1,0,1
 385 -390 385 -390 330.5 -367.5 c 128,-1,2
 276 -345 276 -345 240.5 -297 c 128,-1,3
 205 -249 205 -249 181 -197.5 c 128,-1,4
 157 -146 157 -146 147.5 -61.5 c 128,-1,5
 138 23 138 23 134 91 c 0,6,7
 133 116 133 116 133 146 c 0,8,9
 133 200 133 200 137 268 c 0,10,11
 144 376 144 376 150.5 448.5 c 128,-1,12
 157 521 157 521 169 639 c 0,13,14
 183 777 183 777 193 858 c 128,-1,15
 203 939 203 939 224 1062.5 c 128,-1,16
 245 1186 245 1186 267.5 1260 c 128,-1,17
 290 1334 290 1334 328 1422 c 128,-1,18
 366 1510 366 1510 412 1558 c 128,-1,19
 458 1606 458 1606 524.5 1639 c 128,-1,20
 591 1672 591 1672 672 1673 c 1,21,-1
 657 1530 l 1,22,23
 611 1529 611 1529 573.5 1494 c 128,-1,24
 536 1459 536 1459 509 1394.5 c 128,-1,25
 482 1330 482 1330 461.5 1252 c 128,-1,26
 441 1174 441 1174 425.5 1070.5 c 128,-1,27
 410 967 410 967 398.5 871.5 c 128,-1,28
 387 776 387 776 375 661 c 0,29,30
 374 646 374 646 373 639 c 0,31,32
 333 253 333 253 331 105 c 0,33,34
 331 97 331 97 331 89 c 0,35,36
 331 -206 331 -206 437 -243 c 0,37,38
 453 -249 453 -249 470 -249 c 1,39,-1
 456 -391 l 1,0,1
EndSplineSet
EndChar

StartChar: parenright
Encoding: 41 41 12
Width: 531
GlyphClass: 2
Flags: W
LayerCount: 2
UndoRedoHistory
Layer: 1
Undoes
EndUndoes
Redoes
EndRedoes
EndUndoRedoHistory
Fore
SplineSet
-29 -391 m 1,0,-1
 -14 -248 l 1,1,2
 115 -245 115 -245 184 39 c 0,3,4
 224 203 224 203 266 599 c 0,5,6
 267 608 267 608 269 626 c 0,7,8
 270 637 270 637 271 643 c 0,9,10
 310 1027 310 1027 312 1170 c 0,11,12
 312 1181 312 1181 312 1192 c 0,13,14
 312 1482 312 1482 209 1524 c 0,15,16
 192 1530 192 1530 173 1531 c 1,17,-1
 188 1673 l 1,18,19
 245 1673 245 1673 291.5 1658.5 c 128,-1,20
 338 1644 338 1644 371.5 1612.5 c 128,-1,21
 405 1581 405 1581 430.5 1546 c 128,-1,22
 456 1511 456 1511 471 1453.5 c 128,-1,23
 486 1396 486 1396 496 1347 c 128,-1,24
 506 1298 506 1298 507.5 1221.5 c 128,-1,25
 509 1145 509 1145 509 1088.5 c 128,-1,26
 509 1032 509 1032 502 943 c 128,-1,27
 495 854 495 854 489.5 795.5 c 128,-1,28
 484 737 484 737 474 643 c 0,29,30
 460 506 460 506 450 424.5 c 128,-1,31
 440 343 440 343 419 220 c 128,-1,32
 398 97 398 97 375.5 23 c 128,-1,33
 353 -51 353 -51 315 -139 c 128,-1,34
 277 -227 277 -227 231 -275 c 128,-1,35
 185 -323 185 -323 118.5 -356.5 c 128,-1,36
 52 -390 52 -390 -29 -391 c 1,0,-1
EndSplineSet
EndChar

StartChar: asterisk
Encoding: 42 42 13
Width: 810
GlyphClass: 2
Flags: W
LayerCount: 2
UndoRedoHistory
Layer: 1
Undoes
EndUndoes
Redoes
EndRedoes
EndUndoRedoHistory
Fore
SplineSet
348 963 m 1,0,-1
 230 1039 l 1,1,-1
 418 1267 l 1,2,-1
 185 1361 l 1,3,-1
 251 1496 l 1,4,-1
 470 1373 l 1,5,-1
 476 1656 l 1,6,-1
 637 1656 l 1,7,-1
 582 1373 l 1,8,-1
 828 1496 l 1,9,-1
 865 1361 l 1,10,-1
 612 1266 l 1,11,-1
 753 1039 l 1,12,-1
 617 963 l 1,13,-1
 510 1220 l 1,14,-1
 348 963 l 1,0,-1
EndSplineSet
EndChar

StartChar: plus
Encoding: 43 43 14
Width: 843
GlyphClass: 2
Flags: W
LayerCount: 2
UndoRedoHistory
Layer: 1
Undoes
EndUndoes
Redoes
EndRedoes
EndUndoRedoHistory
Fore
SplineSet
335 438 m 1,0,-1
 369 772 l 1,1,-1
 83 772 l 1,2,-1
 100 932 l 1,3,-1
 386 932 l 1,4,-1
 421 1264 l 1,5,-1
 581 1264 l 1,6,-1
 546 932 l 1,7,-1
 842 932 l 1,8,-1
 825 772 l 1,9,-1
 529 772 l 1,10,-1
 494 438 l 1,11,-1
 335 438 l 1,0,-1
EndSplineSet
EndChar

StartChar: comma
Encoding: 44 44 15
Width: 381
GlyphClass: 2
Flags: W
LayerCount: 2
UndoRedoHistory
Layer: 1
Undoes
EndUndoes
Redoes
EndRedoes
EndUndoRedoHistory
Fore
SplineSet
42 -266 m 1,0,-1
 16 -174 l 1,1,2
 74 -155 74 -155 109 -109 c 128,-1,3
 144 -63 144 -63 151 0 c 1,4,-1
 37 0 l 1,5,-1
 61 234 l 1,6,-1
 283 234 l 1,7,-1
 258 6 l 1,8,9
 248 -102 248 -102 196 -166 c 128,-1,10
 144 -230 144 -230 42 -266 c 1,0,-1
EndSplineSet
EndChar

StartChar: hyphen
Encoding: 45 45 16
Width: 653
GlyphClass: 2
Flags: W
LayerCount: 2
UndoRedoHistory
Layer: 1
Undoes
EndUndoes
Redoes
EndRedoes
EndUndoRedoHistory
Fore
SplineSet
107 542 m 1,0,-1
 124 703 l 1,1,-1
 580 703 l 1,2,-1
 563 542 l 1,3,-1
 107 542 l 1,0,-1
EndSplineSet
EndChar

StartChar: period
Encoding: 46 46 17
Width: 385
GlyphClass: 2
Flags: W
LayerCount: 2
UndoRedoHistory
Layer: 1
Undoes
EndUndoes
Redoes
EndRedoes
EndUndoRedoHistory
Fore
SplineSet
53 0 m 1,0,-1
 79 241 l 1,1,-1
 293 241 l 1,2,-1
 268 0 l 1,3,-1
 53 0 l 1,0,-1
EndSplineSet
EndChar

StartChar: slash
Encoding: 47 47 18
Width: 751
GlyphClass: 2
Flags: W
LayerCount: 2
UndoRedoHistory
Layer: 1
Undoes
EndUndoes
Redoes
EndRedoes
EndUndoRedoHistory
Fore
SplineSet
9 0 m 1,0,-1
 633 1658 l 1,1,-1
 817 1658 l 1,2,-1
 193 0 l 1,3,-1
 9 0 l 1,0,-1
EndSplineSet
EndChar

StartChar: zero
Encoding: 48 48 19
Width: 1024
GlyphClass: 2
Flags: W
LayerCount: 2
UndoRedoHistory
Layer: 1
Undoes
EndUndoes
Redoes
EndRedoes
EndUndoRedoHistory
Fore
SplineSet
480 156 m 0,0,1
 674 156 674 156 708 468 c 1,2,-1
 783 1189 l 1,3,4
 789 1231 789 1231 789 1271 c 0,5,6
 789 1288 789 1288 788 1306 c 0,7,8
 784 1362 784 1362 769.5 1406 c 128,-1,9
 755 1450 755 1450 717 1475.5 c 128,-1,10
 679 1501 679 1501 621 1501 c 0,11,12
 574 1501 574 1501 537 1484 c 128,-1,13
 500 1467 500 1467 475.5 1439 c 128,-1,14
 451 1411 451 1411 433.5 1369.5 c 128,-1,15
 416 1328 416 1328 406.5 1285 c 128,-1,16
 397 1242 397 1242 392 1189 c 2,17,-1
 317 468 l 1,18,19
 311 430 311 430 311 393 c 0,20,21
 311 372 311 372 313 352 c 0,22,23
 318 296 318 296 333.5 252.5 c 128,-1,24
 349 209 349 209 386.5 182.5 c 128,-1,25
 424 156 424 156 480 156 c 0,0,1
461 -18 m 0,26,27
 324 -18 324 -18 237 46 c 128,-1,28
 150 110 150 110 120 218 c 0,29,30
 100 290 100 290 99 380 c 0,31,32
 99 424 99 424 104 472 c 2,33,-1
 178 1185 l 2,34,35
 202 1414 202 1414 316.5 1544.5 c 128,-1,36
 431 1675 431 1675 639 1675 c 0,37,38
 846 1674 846 1674 934 1544 c 0,39,40
 1003 1442 1003 1442 1002 1279 c 0,41,42
 1002 1234 1002 1234 997 1185 c 2,43,-1
 923 472 l 2,44,45
 899 247 899 247 783 114.5 c 128,-1,46
 667 -18 667 -18 461 -18 c 0,26,27
EndSplineSet
EndChar

StartChar: one
Encoding: 49 49 20
Width: 990
GlyphClass: 2
Flags: W
LayerCount: 2
UndoRedoHistory
Layer: 1
Undoes
EndUndoes
Redoes
EndRedoes
EndUndoRedoHistory
Fore
SplineSet
412 0 m 1,0,-1
 557 1382 l 1,1,2
 552 1376 552 1376 481.5 1360 c 128,-1,3
 411 1344 411 1344 339 1330 c 128,-1,4
 267 1316 267 1316 265 1315 c 1,5,-1
 282 1477 l 1,6,7
 537 1541 537 1541 637 1658 c 1,8,-1
 798 1658 l 1,9,-1
 624 0 l 1,10,-1
 412 0 l 1,0,-1
EndSplineSet
EndChar

StartChar: two
Encoding: 50 50 21
Width: 1024
GlyphClass: 2
Flags: W
LayerCount: 2
UndoRedoHistory
Layer: 1
Undoes
EndUndoes
Redoes
EndRedoes
EndUndoRedoHistory
Fore
SplineSet
45 0 m 1,0,-1
 61 151 l 1,1,-1
 554 812 l 2,2,3
 568 831 568 831 606 881 c 128,-1,4
 644 931 644 931 658 950.5 c 128,-1,5
 672 970 672 970 699.5 1013.5 c 128,-1,6
 727 1057 727 1057 739 1086.5 c 128,-1,7
 751 1116 751 1116 763.5 1159.5 c 128,-1,8
 776 1203 776 1203 781 1249 c 0,9,10
 784 1282 784 1282 784 1311 c 0,11,12
 784 1500 784 1500 636 1500 c 0,13,14
 434 1500 434 1500 401 1190 c 1,15,-1
 398 1164 l 2,16,17
 395 1138 395 1138 395 1137 c 1,18,-1
 183 1137 l 1,19,-1
 188 1191 l 1,20,21
 213 1426 213 1426 322 1550.5 c 128,-1,22
 431 1675 431 1675 643 1675 c 0,23,24
 840 1676 840 1676 928 1564 c 0,25,26
 999 1474 999 1474 998 1322 c 0,27,28
 998 1286 998 1286 994 1246 c 0,29,30
 986 1173 986 1173 967.5 1111 c 128,-1,31
 949 1049 949 1049 913.5 987.5 c 128,-1,32
 878 926 878 926 852 888.5 c 128,-1,33
 826 851 826 851 773 782 c 0,34,35
 764 771 764 771 760 765 c 2,36,-1
 315 178 l 1,37,-1
 843 178 l 1,38,-1
 824 0 l 1,39,-1
 45 0 l 1,0,-1
EndSplineSet
EndChar

StartChar: three
Encoding: 51 51 22
Width: 1024
GlyphClass: 2
Flags: W
LayerCount: 2
UndoRedoHistory
Layer: 1
Undoes
EndUndoes
Redoes
EndRedoes
EndUndoRedoHistory
Fore
SplineSet
453 -18 m 0,0,1
 254 -18 254 -18 164 93 c 0,2,3
 91 182 91 182 92 330 c 0,4,5
 92 366 92 366 96 405 c 1,6,-1
 101 459 l 1,7,-1
 313 459 l 1,8,9
 312 455 312 455 309 423 c 0,10,11
 306 389 306 389 306 360 c 0,12,13
 306 276 306 276 331 226 c 0,14,15
 365 158 365 158 472 157 c 0,16,17
 583 157 583 157 633 234 c 128,-1,18
 683 311 683 311 699 467 c 0,19,20
 702 503 702 503 702 534 c 0,21,22
 702 630 702 630 671 690 c 0,23,24
 629 770 629 770 513 778 c 0,25,26
 505 779 505 779 480 779 c 1,27,-1
 503 990 l 1,28,-1
 532 990 l 1,29,30
 652 995 652 995 709.5 1053.5 c 128,-1,31
 767 1112 767 1112 782 1248 c 1,32,33
 785 1279 785 1279 785 1307 c 0,34,35
 784 1388 784 1388 758 1436 c 0,36,37
 722 1500 722 1500 617 1501 c 0,38,39
 508 1501 508 1501 459.5 1432.5 c 128,-1,40
 411 1364 411 1364 394 1231 c 0,41,42
 391 1204 391 1204 390 1199 c 1,43,-1
 178 1199 l 1,44,-1
 184 1252 l 1,45,46
 205 1453 205 1453 320 1564 c 128,-1,47
 435 1675 435 1675 635 1675 c 0,48,49
 832 1675 832 1675 924 1562 c 0,50,51
 998 1470 998 1470 999 1320 c 0,52,53
 999 1286 999 1286 995 1248 c 0,54,55
 979 1100 979 1100 906 1007.5 c 128,-1,56
 833 915 833 915 719 884 c 1,57,58
 826 848 826 848 878 742 c 0,59,60
 917 662 917 662 917 547 c 0,61,62
 917 509 917 509 913 467 c 1,63,64
 888 237 888 237 776 109.5 c 128,-1,65
 664 -18 664 -18 453 -18 c 0,0,1
EndSplineSet
EndChar

StartChar: four
Encoding: 52 52 23
Width: 1024
GlyphClass: 2
Flags: W
LayerCount: 2
UndoRedoHistory
Layer: 1
Undoes
EndUndoes
Redoes
EndRedoes
EndUndoRedoHistory
Fore
SplineSet
516 0 m 1,0,-1
 563 441 l 1,1,-1
 82 441 l 1,2,-1
 107 676 l 1,3,-1
 640 1659 l 1,4,-1
 903 1659 l 1,5,-1
 796 642 l 1,6,-1
 981 642 l 1,7,-1
 960 441 l 1,8,-1
 775 441 l 1,9,-1
 729 0 l 1,10,-1
 516 0 l 1,0,-1
317 642 m 1,11,-1
 583 642 l 1,12,-1
 662 1388 l 1,13,-1
 317 642 l 1,11,-1
EndSplineSet
EndChar

StartChar: five
Encoding: 53 53 24
Width: 1024
GlyphClass: 2
Flags: W
LayerCount: 2
UndoRedoHistory
Layer: 1
Undoes
EndUndoes
Redoes
EndRedoes
EndUndoRedoHistory
Fore
SplineSet
468 -17 m 0,0,1
 254 -17 254 -17 174 104 c 0,2,3
 114 196 114 196 114 354 c 0,4,5
 114 404 114 404 120 460 c 1,6,-1
 332 460 l 1,7,8
 326 418 326 418 326 378 c 0,9,10
 326 362 326 362 326 347 c 0,11,12
 330 292 330 292 342.5 248.5 c 128,-1,13
 355 205 355 205 392.5 178.5 c 128,-1,14
 430 152 430 152 489 152 c 0,15,16
 542 152 542 152 581 172.5 c 128,-1,17
 620 193 620 193 643.5 224.5 c 128,-1,18
 667 256 667 256 684 312 c 128,-1,19
 701 368 701 368 709 418.5 c 128,-1,20
 717 469 717 469 725 549 c 0,21,22
 734 637 734 637 734 704 c 0,23,24
 734 726 734 726 733 746 c 0,25,26
 729 826 729 826 691 868.5 c 128,-1,27
 653 911 653 911 573 911 c 0,28,29
 510 911 510 911 457 872 c 128,-1,30
 404 833 404 833 370 774 c 1,31,-1
 189 774 l 1,32,-1
 282 1658 l 1,33,-1
 991 1658 l 1,34,-1
 968 1448 l 1,35,-1
 452 1448 l 1,36,-1
 390 977 l 1,37,38
 487 1071 487 1071 641 1071 c 0,39,40
 738 1071 738 1071 804 1034.5 c 128,-1,41
 870 998 870 998 901.5 932.5 c 0,42,43
 934 866 934 866 944 776 c 0,44,45
 948 737 948 737 948 696 c 0,46,47
 948 640 948 640 940 578 c 1,48,49
 926 443 926 443 895.5 340 c 128,-1,50
 865 237 865 237 811.5 154 c 128,-1,51
 758 71 758 71 671.5 27 c 128,-1,52
 585 -17 585 -17 468 -17 c 0,0,1
EndSplineSet
EndChar

StartChar: six
Encoding: 54 54 25
Width: 1024
GlyphClass: 2
Flags: W
LayerCount: 2
UndoRedoHistory
Layer: 1
Undoes
EndUndoes
Redoes
EndRedoes
EndUndoRedoHistory
Fore
SplineSet
474 -18 m 0,0,1
 370 -18 370 -18 295.5 23.5 c 128,-1,2
 221 65 221 65 181 139 c 0,3,4
 142 214 142 214 128 310 c 0,5,6
 121 361 121 361 120 417 c 0,7,8
 120 468 120 468 126 523 c 2,9,-1
 186 1093 l 2,10,11
 196 1193 196 1193 217 1276.5 c 128,-1,12
 238 1360 238 1360 275 1435 c 128,-1,13
 312 1510 312 1510 363 1562 c 128,-1,14
 414 1614 414 1614 487.5 1644.5 c 128,-1,15
 561 1675 561 1675 652 1675 c 0,16,17
 844 1675 844 1675 936 1571 c 0,18,19
 1015 1482 1015 1482 1015 1325 c 0,20,21
 1015 1299 1015 1299 1013 1272 c 1,22,23
 1011 1260 1011 1260 1011 1247 c 1,24,-1
 799 1247 l 1,25,26
 803 1282 803 1282 803 1312 c 0,27,28
 803 1392 803 1392 777 1438 c 0,29,30
 742 1500 742 1500 636 1500 c 0,31,32
 441 1500 441 1500 403 1144 c 2,33,-1
 376 886 l 1,34,35
 416 937 416 937 482.5 968 c 128,-1,36
 549 999 549 999 634 999 c 0,37,38
 735 999 735 999 802 965 c 128,-1,39
 869 931 869 931 901.5 869 c 0,40,41
 934 806 934 806 944 718 c 0,42,43
 948 681 948 681 948 641 c 0,44,45
 948 584 948 584 940 520 c 1,46,47
 928 403 928 403 895 307.5 c 128,-1,48
 862 212 862 212 806.5 138 c 128,-1,49
 751 64 751 64 666.5 23 c 128,-1,50
 582 -18 582 -18 474 -18 c 0,0,1
493 158 m 0,51,52
 546 158 546 158 587.5 181.5 c 128,-1,53
 629 205 629 205 655.5 248.5 c 128,-1,54
 682 292 682 292 698 346 c 128,-1,55
 714 400 714 400 721 468 c 0,56,57
 726 521 726 521 728.5 553.5 c 128,-1,58
 731 586 731 586 732 630 c 0,59,60
 732 637 732 637 732 644 c 0,61,62
 732 678 732 678 728 700 c 0,63,64
 723 726 723 726 711.5 756 c 128,-1,65
 700 786 700 786 681.5 802 c 128,-1,66
 663 818 663 818 633.5 828.5 c 128,-1,67
 604 839 604 839 564 839 c 0,68,69
 500 839 500 839 447 806 c 128,-1,70
 394 773 394 773 360 727 c 1,71,-1
 333 475 l 2,72,73
 328 428 328 428 328 388 c 0,74,75
 328 158 328 158 493 158 c 0,51,52
EndSplineSet
EndChar

StartChar: seven
Encoding: 55 55 26
Width: 1024
GlyphClass: 2
Flags: W
LayerCount: 2
UndoRedoHistory
Layer: 1
Undoes
EndUndoes
Redoes
EndRedoes
EndUndoRedoHistory
Fore
SplineSet
294 0 m 1,0,-1
 753 1491 l 1,1,-1
 252 1491 l 1,2,-1
 269 1658 l 1,3,-1
 982 1658 l 1,4,-1
 971 1529 l 1,5,-1
 498 0 l 1,6,-1
 294 0 l 1,0,-1
EndSplineSet
EndChar

StartChar: eight
Encoding: 56 56 27
Width: 1024
GlyphClass: 2
Flags: W
LayerCount: 2
UndoRedoHistory
Layer: 1
Undoes
EndUndoes
Redoes
EndRedoes
EndUndoRedoHistory
Fore
SplineSet
471 -18 m 128,-1,1
 256 -18 256 -18 173 106 c 0,2,3
 109 202 109 202 109 362 c 0,4,5
 109 410 109 410 115 464 c 0,6,7
 126 575 126 575 163 657 c 128,-1,8
 200 739 200 739 248 786 c 128,-1,9
 296 833 296 833 367 874 c 1,10,11
 214 978 214 978 214 1183 c 0,12,13
 214 1214 214 1214 218 1248 c 0,14,15
 240 1450 240 1450 347.5 1562.5 c 128,-1,16
 455 1675 455 1675 650 1675 c 0,17,18
 844 1676 844 1676 928 1562 c 0,19,20
 994 1472 994 1472 994 1327 c 0,21,22
 994 1289 994 1289 989 1247 c 0,23,24
 962 994 962 994 763 874 c 1,25,26
 808 844 808 844 839.5 810 c 128,-1,27
 871 776 871 776 896 728 c 0,28,29
 922 680 922 680 930 614 c 0,30,31
 934 582 934 582 934 545 c 0,32,33
 934 507 934 507 929 464 c 0,34,35
 905 231 905 231 795.5 106.5 c 128,-1,0
 686 -18 686 -18 471 -18 c 128,-1,1
490 150 m 128,-1,37
 602 150 602 150 655 231.5 c 128,-1,38
 708 313 708 313 724 462 c 1,39,40
 728 502 728 502 728 536 c 0,41,42
 728 765 728 765 555 769 c 1,43,44
 498 768 498 768 454.5 742.5 c 128,-1,45
 411 717 411 717 383.5 673.5 c 128,-1,46
 356 630 356 630 340 577.5 c 128,-1,47
 324 525 324 525 318 462 c 0,48,49
 313 417 313 417 313 379 c 0,50,51
 314 290 314 290 340 232 c 0,52,36
 378 150 378 150 490 150 c 128,-1,37
575 970 m 1,53,54
 753 974 753 974 783 1258 c 1,55,56
 786 1285 786 1285 786 1310 c 0,57,58
 786 1388 786 1388 759 1440 c 0,59,60
 724 1508 724 1508 632 1508 c 0,61,62
 539 1508 539 1508 489 1440 c 128,-1,63
 439 1372 439 1372 427 1258 c 0,64,65
 423 1219 423 1219 423 1185 c 0,66,67
 423 973 423 973 575 970 c 1,53,54
EndSplineSet
EndChar

StartChar: nine
Encoding: 57 57 28
Width: 1024
GlyphClass: 2
Flags: W
LayerCount: 2
UndoRedoHistory
Layer: 1
Undoes
EndUndoes
Redoes
EndRedoes
EndUndoRedoHistory
Fore
SplineSet
462 -18 m 0,0,1
 268 -18 268 -18 176 88 c 0,2,3
 98 177 98 177 97 331 c 0,4,5
 97 359 97 359 100 390 c 1,6,7
 102 398 102 398 102 409 c 1,8,-1
 315 409 l 1,9,10
 311 373 311 373 311 341 c 0,11,12
 310 262 310 262 336 218 c 0,13,14
 372 156 372 156 481 157 c 0,15,16
 671 157 671 157 709 513 c 2,17,-1
 736 770 l 1,18,19
 652 658 652 658 478 658 c 0,20,21
 377 658 377 658 310 692 c 128,-1,22
 243 726 243 726 211 788.5 c 0,23,24
 179 852 179 852 169 940 c 0,25,26
 165 977 165 977 165 1017 c 0,27,28
 165 1074 165 1074 173 1138 c 1,29,30
 185 1255 185 1255 218 1350 c 128,-1,31
 251 1445 251 1445 306.5 1519 c 128,-1,32
 362 1593 362 1593 446.5 1634 c 128,-1,33
 531 1675 531 1675 639 1675 c 0,34,35
 743 1675 743 1675 817.5 1634 c 128,-1,36
 892 1593 892 1593 932 1518.5 c 128,-1,37
 972 1444 972 1444 986 1348 c 0,38,39
 993 1299 993 1299 992 1244 c 0,40,41
 992 1192 992 1192 986 1134 c 2,42,-1
 927 565 l 2,43,44
 916 465 916 465 895.5 381.5 c 128,-1,45
 875 298 875 298 837.5 222.5 c 128,-1,46
 800 147 800 147 749.5 95 c 128,-1,47
 699 43 699 43 625.5 12.5 c 128,-1,48
 552 -18 552 -18 462 -18 c 0,0,1
548 819 m 0,49,50
 671 819 671 819 753 931 c 1,51,-1
 778 1181 l 1,52,53
 783 1230 783 1230 783 1272 c 0,54,55
 783 1500 783 1500 621 1500 c 0,56,57
 426 1500 426 1500 391 1188 c 0,58,59
 386 1135 386 1135 383.5 1102.5 c 0,60,61
 380 1070 380 1070 380 1026 c 0,62,63
 380 1022 380 1022 380 1019 c 0,64,65
 380 980 380 980 385 956 c 0,66,67
 390 930 390 930 401 901 c 128,-1,68
 412 872 412 872 431 856 c 128,-1,69
 450 840 450 840 479.5 829.5 c 128,-1,70
 509 819 509 819 548 819 c 0,49,50
EndSplineSet
EndChar

StartChar: colon
Encoding: 58 58 29
Width: 402
GlyphClass: 2
Flags: W
LayerCount: 2
UndoRedoHistory
Layer: 1
Undoes
EndUndoes
Redoes
EndRedoes
EndUndoRedoHistory
Fore
SplineSet
96 195 m 1,0,-1
 121 426 l 1,1,-1
 336 426 l 1,2,-1
 311 195 l 1,3,-1
 96 195 l 1,0,-1
166 850 m 1,4,-1
 190 1083 l 1,5,-1
 405 1083 l 1,6,-1
 381 850 l 1,7,-1
 166 850 l 1,4,-1
EndSplineSet
EndChar

StartChar: semicolon
Encoding: 59 59 30
Width: 440
GlyphClass: 2
Flags: W
LayerCount: 2
UndoRedoHistory
Layer: 1
Undoes
EndUndoes
Redoes
EndRedoes
EndUndoRedoHistory
Fore
SplineSet
97 -90 m 1,0,-1
 72 3 l 1,1,2
 189 14 189 14 203 142 c 1,3,-1
 89 142 l 1,4,-1
 113 372 l 1,5,-1
 334 372 l 1,6,-1
 310 148 l 2,7,8
 299 36 299 36 248.5 -23.5 c 128,-1,9
 198 -83 198 -83 97 -90 c 1,0,-1
170 912 m 1,10,-1
 195 1154 l 1,11,-1
 410 1154 l 1,12,-1
 384 912 l 1,13,-1
 170 912 l 1,10,-1
EndSplineSet
EndChar

StartChar: less
Encoding: 60 60 31
Width: 762
GlyphClass: 2
Flags: W
LayerCount: 2
UndoRedoHistory
Layer: 1
Undoes
EndUndoes
Redoes
EndRedoes
EndUndoRedoHistory
Fore
SplineSet
604 78 m 1,0,-1
 63 493 l 1,1,-1
 86 706 l 1,2,-1
 714 1124 l 1,3,-1
 691 910 l 1,4,-1
 234 600 l 1,5,-1
 626 291 l 1,6,-1
 604 78 l 1,0,-1
EndSplineSet
EndChar

StartChar: equal
Encoding: 61 61 32
Width: 847
GlyphClass: 2
Flags: W
LayerCount: 2
UndoRedoHistory
Layer: 1
Undoes
EndUndoes
Redoes
EndRedoes
EndUndoRedoHistory
Fore
SplineSet
122 573 m 1,0,-1
 139 735 l 1,1,-1
 766 735 l 1,2,-1
 749 573 l 1,3,-1
 122 573 l 1,0,-1
159 933 m 1,4,-1
 176 1095 l 1,5,-1
 803 1095 l 1,6,-1
 786 933 l 1,7,-1
 159 933 l 1,4,-1
EndSplineSet
EndChar

StartChar: greater
Encoding: 62 62 33
Width: 762
GlyphClass: 2
Flags: W
LayerCount: 2
UndoRedoHistory
Layer: 1
Undoes
EndUndoes
Redoes
EndRedoes
EndUndoRedoHistory
Fore
SplineSet
77 78 m 1,0,-1
 100 292 l 1,1,-1
 558 603 l 1,2,-1
 165 910 l 1,3,-1
 187 1124 l 1,4,-1
 730 709 l 1,5,-1
 708 496 l 1,6,-1
 77 78 l 1,0,-1
EndSplineSet
EndChar

StartChar: question
Encoding: 63 63 34
Width: 994
GlyphClass: 2
Flags: W
LayerCount: 2
UndoRedoHistory
Layer: 1
Undoes
EndUndoes
Redoes
EndRedoes
EndUndoRedoHistory
Fore
SplineSet
329 415 m 1,0,-1
 356 669 l 1,1,2
 447 741 447 741 512 801.5 c 128,-1,3
 577 862 577 862 640 936.5 c 128,-1,4
 703 1011 703 1011 740 1092 c 128,-1,5
 777 1173 777 1173 786 1258 c 0,6,7
 788 1277 788 1277 788 1294 c 0,8,9
 788 1374 788 1374 746 1428 c 0,10,11
 695 1494 695 1494 603 1494 c 0,12,13
 506 1494 506 1494 454 1437 c 0,14,15
 407 1386 407 1386 407 1306 c 0,16,17
 407 1297 407 1297 408 1287 c 1,18,-1
 411 1213 l 1,19,-1
 210 1176 l 1,20,-1
 204 1247 l 1,21,22
 202 1273 202 1273 202 1297 c 0,23,24
 202 1459 202 1459 306 1562 c 0,25,26
 426 1680 426 1680 625 1680 c 0,27,28
 818 1680 818 1680 916 1568 c 0,29,30
 996 1476 996 1476 997 1321 c 0,31,32
 997 1288 997 1288 993 1252 c 0,33,34
 985 1175 985 1175 957.5 1103.5 c 128,-1,35
 930 1032 930 1032 894.5 977 c 128,-1,36
 859 922 859 922 800.5 859.5 c 128,-1,37
 742 797 742 797 692.5 751.5 c 128,-1,38
 643 706 643 706 566 639 c 0,39,40
 560 634 560 634 556.5 631 c 128,-1,41
 553 628 553 628 547.5 623.5 c 128,-1,42
 542 619 542 619 538 615 c 1,43,-1
 518 415 l 1,44,-1
 329 415 l 1,0,-1
276 0 m 1,45,-1
 299 220 l 1,46,-1
 512 220 l 1,47,-1
 488 0 l 1,48,-1
 276 0 l 1,45,-1
EndSplineSet
EndChar

StartChar: at
Encoding: 64 64 35
Width: 1840
GlyphClass: 2
Flags: W
LayerCount: 2
UndoRedoHistory
Layer: 1
Undoes
EndUndoes
Redoes
EndRedoes
EndUndoRedoHistory
Fore
SplineSet
881 -269 m 0,0,1
 737 -269 737 -269 615.5 -237.5 c 128,-1,2
 494 -206 494 -206 396 -138 c 128,-1,3
 298 -70 298 -70 233.5 29 c 128,-1,4
 169 128 169 128 142 270 c 0,5,6
 126 355 126 355 126 451 c 0,7,8
 126 515 126 515 133 584 c 0,9,10
 156 800 156 800 218.5 976.5 c 128,-1,11
 281 1153 281 1153 375 1278.5 c 128,-1,12
 469 1404 469 1404 592 1490 c 128,-1,13
 715 1576 715 1576 858 1617 c 128,-1,14
 1001 1658 1001 1658 1162 1658 c 0,15,16
 1267 1658 1267 1658 1356.5 1636 c 128,-1,17
 1446 1614 1446 1614 1513.5 1573.5 c 128,-1,18
 1581 1533 1581 1533 1635 1476 c 128,-1,19
 1689 1419 1689 1419 1722 1350 c 128,-1,20
 1755 1281 1755 1281 1776 1201.5 c 128,-1,21
 1797 1122 1797 1122 1799 1036 c 0,22,23
 1799 1019 1799 1019 1799 1001 c 0,24,25
 1799 932 1799 932 1793 860 c 1,26,27
 1772 676 1772 676 1695.5 527.5 c 128,-1,28
 1619 379 1619 379 1499 292.5 c 128,-1,29
 1379 206 1379 206 1239 206 c 0,30,31
 1152 206 1152 206 1102 257 c 0,32,33
 1058 302 1058 302 1058 374 c 0,34,35
 1058 384 1058 384 1059 394 c 1,36,37
 992 220 992 220 842 207 c 0,38,39
 828 206 828 206 815 206 c 0,40,41
 734 206 734 206 678 249 c 0,42,43
 612 300 612 300 588 384 c 0,44,45
 571 442 571 442 571 510 c 0,46,47
 571 541 571 541 574 574 c 0,48,49
 584 667 584 667 616.5 762.5 c 128,-1,50
 649 858 649 858 701.5 942.5 c 128,-1,51
 754 1027 754 1027 819 1093.5 c 128,-1,52
 884 1160 884 1160 964.5 1199 c 128,-1,53
 1045 1238 1045 1238 1128 1238 c 0,54,55
 1160 1238 1160 1238 1196 1222 c 128,-1,56
 1232 1206 1232 1206 1257 1185 c 1,57,-1
 1280 1221 l 1,58,-1
 1435 1221 l 1,59,-1
 1242 472 l 2,60,61
 1233 434 1233 434 1229.5 414.5 c 128,-1,62
 1226 395 1226 395 1226.5 371 c 128,-1,63
 1227 347 1227 347 1239 336.5 c 128,-1,64
 1251 326 1251 326 1275 326 c 0,65,66
 1358 326 1358 326 1434.5 393 c 128,-1,67
 1511 460 1511 460 1564.5 577.5 c 128,-1,68
 1618 695 1618 695 1635 839 c 0,69,70
 1642 899 1642 899 1642 954 c 0,71,72
 1642 1028 1642 1028 1630 1094 c 0,73,74
 1609 1210 1609 1210 1551 1300 c 128,-1,75
 1493 1390 1493 1390 1385.5 1441 c 128,-1,76
 1278 1492 1278 1492 1132 1492 c 0,77,78
 812 1491 812 1491 591.5 1247.5 c 128,-1,79
 371 1004 371 1004 327 592 c 0,80,81
 320 529 320 529 320 472 c 0,82,83
 320 366 320 366 343 279 c 0,84,85
 378 144 378 144 459 60.5 c 128,-1,86
 540 -23 540 -23 655 -64.5 c 128,-1,87
 770 -106 770 -106 917 -106 c 0,88,89
 1093 -106 1093 -106 1295 -50 c 1,90,-1
 1317 -204 l 1,91,92
 1080 -269 1080 -269 881 -269 c 0,0,1
900 371 m 1,93,94
 954 378 954 378 1004 432.5 c 128,-1,95
 1054 487 1054 487 1084 587 c 1,96,-1
 1207 1068 l 1,97,98
 1178 1081 1178 1081 1148 1081 c 0,99,100
 1066 1081 1066 1081 984.5 1013.5 c 128,-1,101
 903 946 903 946 845 828 c 128,-1,102
 787 710 787 710 773 572 c 0,103,104
 771 549 771 549 771 529 c 0,105,106
 771 461 771 461 796 416 c 0,107,108
 823 369 823 369 875 369 c 0,109,110
 887 369 887 369 900 371 c 1,93,94
EndSplineSet
EndChar

StartChar: A
Encoding: 65 65 36
Width: 1004
GlyphClass: 2
Flags: W
AnchorPoint: "Anchor-0" 880 0 basechar 0
LayerCount: 2
UndoRedoHistory
Layer: 1
Undoes
EndUndoes
Redoes
EndRedoes
EndUndoRedoHistory
Fore
SplineSet
-9 0 m 1,0,-1
 519 1658 l 1,1,-1
 736 1658 l 1,2,-1
 916 0 l 1,3,-1
 702 0 l 1,4,-1
 670 421 l 1,5,-1
 327 421 l 1,6,-1
 204 0 l 1,7,-1
 -9 0 l 1,0,-1
373 581 m 1,8,-1
 658 581 l 1,9,-1
 595 1344 l 1,10,-1
 373 581 l 1,8,-1
EndSplineSet
EndChar

StartChar: B
Encoding: 66 66 37
Width: 1068
GlyphClass: 2
Flags: W
LayerCount: 2
UndoRedoHistory
Layer: 1
Undoes
EndUndoes
Redoes
EndRedoes
EndUndoRedoHistory
Fore
SplineSet
82 0 m 1,0,-1
 256 1658 l 1,1,-1
 633 1658 l 2,2,3
 858 1658 858 1658 955 1556 c 0,4,5
 1034 1473 1034 1473 1034 1317 c 0,6,7
 1034 1282 1034 1282 1030 1243 c 0,8,9
 997 927 997 927 759 893 c 1,10,11
 900 858 900 858 956 754 c 0,12,13
 998 676 998 676 998 556 c 0,14,15
 998 518 998 518 994 475 c 0,16,17
 970 251 970 251 853 125.5 c 128,-1,18
 736 0 736 0 521 0 c 2,19,-1
 82 0 l 1,0,-1
324 161 m 1,20,-1
 487 161 l 2,21,22
 637 161 637 161 699.5 233 c 128,-1,23
 762 305 762 305 780 475 c 0,24,25
 784 510 784 510 784 541 c 0,26,27
 784 652 784 652 740 714 c 0,28,29
 684 794 684 794 535 793 c 2,30,-1
 390 793 l 1,31,-1
 324 161 l 1,20,-1
408 963 m 1,32,-1
 553 963 l 2,33,34
 695 963 695 963 757 1028 c 128,-1,35
 819 1093 819 1093 835 1243 c 0,36,37
 838 1273 838 1273 838 1299 c 0,38,39
 838 1330 838 1330 834 1355 c 0,40,41
 826 1400 826 1400 806 1427.5 c 128,-1,42
 786 1455 786 1455 743 1469 c 128,-1,43
 700 1483 700 1483 652.5 1487.5 c 128,-1,44
 605 1492 605 1492 526 1492 c 2,45,-1
 463 1492 l 1,46,-1
 408 963 l 1,32,-1
EndSplineSet
EndChar

StartChar: C
Encoding: 67 67 38
Width: 1050
GlyphClass: 2
Flags: W
AnchorPoint: "Anchor-1" 480 0 basechar 0
LayerCount: 2
UndoRedoHistory
Layer: 1
Undoes
EndUndoes
Redoes
EndRedoes
EndUndoRedoHistory
Fore
SplineSet
492 -18 m 0,0,1
 389 -18 389 -18 314 9.5 c 128,-1,2
 239 37 239 37 195.5 86 c 128,-1,3
 152 135 152 135 127.5 203.5 c 128,-1,4
 103 272 103 272 101 354 c 0,5,6
 101 370 101 370 101 387 c 0,7,8
 101 454 101 454 107 529 c 1,9,-1
 170 1123 l 2,10,11
 184 1255 184 1255 214.5 1351 c 128,-1,12
 245 1447 245 1447 301.5 1522.5 c 128,-1,13
 358 1598 358 1598 450 1636.5 c 128,-1,14
 542 1675 542 1675 670 1675 c 0,15,16
 784 1675 784 1675 862 1643 c 128,-1,17
 940 1611 940 1611 981 1547.5 c 128,-1,18
 1022 1484 1022 1484 1035 1398 c 0,19,20
 1042 1354 1042 1354 1042 1302 c 0,21,22
 1042 1254 1042 1254 1036 1198 c 2,23,-1
 1022 1069 l 1,24,-1
 810 1069 l 1,25,-1
 822 1183 l 2,26,27
 826 1220 826 1220 828 1243.5 c 128,-1,28
 830 1267 830 1267 831.5 1298 c 128,-1,29
 833 1329 833 1329 831 1348.5 c 128,-1,30
 829 1368 829 1368 824.5 1392 c 128,-1,31
 820 1416 820 1416 811.5 1430 c 128,-1,32
 803 1444 803 1444 789.5 1459 c 128,-1,33
 776 1474 776 1474 757 1482 c 128,-1,34
 738 1490 738 1490 712 1495 c 128,-1,35
 686 1500 686 1500 654 1500 c 0,36,37
 596 1500 596 1500 553.5 1483 c 128,-1,38
 511 1466 511 1466 485 1439 c 128,-1,39
 459 1412 459 1412 441 1364.5 c 128,-1,40
 423 1317 423 1317 414.5 1271 c 128,-1,41
 406 1225 406 1225 398 1154 c 2,42,-1
 329 493 l 2,43,44
 322 431 322 431 322 382 c 0,45,46
 322 282 322 282 350 232 c 0,47,48
 390 158 390 158 512 158 c 0,49,50
 559 158 559 158 594 168 c 128,-1,51
 629 178 629 178 653.5 201 c 128,-1,52
 678 224 678 224 694 249 c 128,-1,53
 710 274 710 274 721 317 c 128,-1,54
 732 360 732 360 738 396.5 c 128,-1,55
 744 433 744 433 750 491 c 2,56,-1
 762 612 l 1,57,-1
 974 612 l 1,58,-1
 961 491 l 2,59,60
 949 372 949 372 920 283 c 128,-1,61
 891 194 891 194 837.5 124 c 128,-1,62
 784 54 784 54 697.5 18 c 128,-1,63
 611 -18 611 -18 492 -18 c 0,0,1
EndSplineSet
EndChar

StartChar: D
Encoding: 68 68 39
Width: 1078
GlyphClass: 2
Flags: W
LayerCount: 2
UndoRedoHistory
Layer: 1
Undoes
EndUndoes
Redoes
EndRedoes
EndUndoRedoHistory
Fore
SplineSet
324 161 m 1,0,-1
 461 161 l 2,1,2
 536 161 536 161 587.5 181.5 c 128,-1,3
 639 202 639 202 669 230 c 128,-1,4
 699 258 699 258 718.5 321 c 128,-1,5
 738 384 738 384 746 433.5 c 128,-1,6
 754 483 754 483 764 581 c 2,7,-1
 822 1128 l 2,8,9
 831 1208 831 1208 831 1270 c 0,10,11
 831 1305 831 1305 828 1335 c 0,12,13
 820 1416 820 1416 766.5 1454 c 128,-1,14
 713 1492 713 1492 596 1492 c 2,15,-1
 463 1492 l 1,16,-1
 324 161 l 1,0,-1
82 0 m 1,17,-1
 256 1658 l 1,18,-1
 617 1658 l 2,19,20
 753 1658 753 1658 844 1626.5 c 128,-1,21
 935 1595 935 1595 984.5 1530 c 0,22,23
 1034 1466 1034 1466 1049 1374 c 0,24,25
 1057 1327 1057 1327 1057 1269 c 0,26,27
 1057 1216 1057 1216 1050 1154 c 2,28,-1
 986 539 l 2,29,30
 957 268 957 268 834 134 c 128,-1,31
 711 0 711 0 460 0 c 2,32,-1
 82 0 l 1,17,-1
EndSplineSet
EndChar

StartChar: E
Encoding: 69 69 40
Width: 832
GlyphClass: 2
Flags: W
AnchorPoint: "Anchor-0" 511 0 basechar 0
LayerCount: 2
UndoRedoHistory
Layer: 1
Undoes
EndUndoes
Redoes
EndRedoes
EndUndoRedoHistory
Fore
SplineSet
82 0 m 1,0,-1
 256 1658 l 1,1,-1
 894 1658 l 1,2,-1
 877 1492 l 1,3,-1
 463 1492 l 1,4,-1
 404 937 l 1,5,-1
 741 937 l 1,6,-1
 725 776 l 1,7,-1
 388 776 l 1,8,-1
 323 161 l 1,9,-1
 743 161 l 1,10,-1
 725 0 l 1,11,-1
 82 0 l 1,0,-1
EndSplineSet
EndChar

StartChar: F
Encoding: 70 70 41
Width: 799
GlyphClass: 2
Flags: W
LayerCount: 2
UndoRedoHistory
Layer: 1
Undoes
EndUndoes
Redoes
EndRedoes
EndUndoRedoHistory
Fore
SplineSet
82 0 m 1,0,-1
 256 1658 l 1,1,-1
 892 1658 l 1,2,-1
 876 1497 l 1,3,-1
 464 1497 l 1,4,-1
 405 939 l 1,5,-1
 727 939 l 1,6,-1
 710 778 l 1,7,-1
 388 778 l 1,8,-1
 306 0 l 1,9,-1
 82 0 l 1,0,-1
EndSplineSet
EndChar

StartChar: G
Encoding: 71 71 42
Width: 1093
GlyphClass: 2
Flags: W
LayerCount: 2
UndoRedoHistory
Layer: 1
Undoes
EndUndoes
Redoes
EndRedoes
EndUndoRedoHistory
Fore
SplineSet
474 -21 m 0,0,1
 248 -21 248 -21 164 121 c 0,2,3
 101 227 101 227 101 407 c 0,4,5
 101 469 101 469 108 540 c 2,6,-1
 168 1104 l 2,7,8
 183 1246 183 1246 214 1346.5 c 128,-1,9
 245 1447 245 1447 301.5 1523.5 c 128,-1,10
 358 1600 358 1600 449.5 1637.5 c 128,-1,11
 541 1675 541 1675 669 1675 c 0,12,13
 898 1676 898 1676 986 1558 c 0,14,15
 1053 1467 1053 1467 1053 1298 c 0,16,17
 1053 1248 1053 1248 1047 1190 c 1,18,-1
 1040 1129 l 1,19,-1
 831 1129 l 1,20,-1
 836 1182 l 1,21,22
 844 1250 844 1250 844 1303 c 0,23,24
 844 1334 844 1334 841 1360 c 0,25,26
 834 1431 834 1431 790 1465.5 c 128,-1,27
 746 1500 746 1500 654 1500 c 0,28,29
 611 1500 611 1500 576 1490.5 c 128,-1,30
 541 1481 541 1481 516.5 1465 c 128,-1,31
 492 1449 492 1449 472.5 1422 c 128,-1,32
 453 1395 453 1395 441 1368 c 128,-1,33
 429 1341 429 1341 420 1299.5 c 128,-1,34
 411 1258 411 1258 405.5 1223 c 128,-1,35
 400 1188 400 1188 395 1137 c 2,36,-1
 329 517 l 2,37,38
 322 452 322 452 322 399 c 0,39,40
 322 297 322 297 348 242 c 0,41,42
 386 158 386 158 518 158 c 128,-1,43
 650 158 650 158 708 248 c 128,-1,44
 766 338 766 338 787 537 c 2,45,-1
 800 661 l 1,46,-1
 586 661 l 1,47,-1
 604 820 l 1,48,-1
 1020 820 l 1,49,-1
 934 0 l 1,50,-1
 792 0 l 1,51,-1
 790 191 l 1,52,53
 694 -21 694 -21 474 -21 c 0,0,1
EndSplineSet
EndChar

StartChar: H
Encoding: 72 72 43
Width: 1145
GlyphClass: 2
Flags: W
LayerCount: 2
UndoRedoHistory
Layer: 1
Undoes
EndUndoes
Redoes
EndRedoes
EndUndoRedoHistory
Fore
SplineSet
82 0 m 1,0,-1
 256 1658 l 1,1,-1
 480 1658 l 1,2,-1
 405 940 l 1,3,-1
 841 940 l 1,4,-1
 916 1658 l 1,5,-1
 1140 1658 l 1,6,-1
 966 0 l 1,7,-1
 742 0 l 1,8,-1
 824 780 l 1,9,-1
 388 780 l 1,10,-1
 306 0 l 1,11,-1
 82 0 l 1,0,-1
EndSplineSet
EndChar

StartChar: I
Encoding: 73 73 44
Width: 502
GlyphClass: 2
Flags: W
AnchorPoint: "Anchor-0" 220 0 basechar 0
LayerCount: 2
UndoRedoHistory
Layer: 1
Undoes
EndUndoes
Redoes
EndRedoes
EndUndoRedoHistory
Fore
SplineSet
94 0 m 1,0,-1
 268 1658 l 1,1,-1
 487 1658 l 1,2,-1
 313 0 l 1,3,-1
 94 0 l 1,0,-1
EndSplineSet
EndChar

StartChar: J
Encoding: 74 74 45
Width: 613
GlyphClass: 2
Flags: W
AnchorPoint: "Anchor-2" 338 1800 basechar 0
LayerCount: 2
UndoRedoHistory
Layer: 1
Undoes
EndUndoes
Redoes
EndRedoes
EndUndoRedoHistory
Fore
SplineSet
-38 -43 m 1,0,-1
 -22 118 l 1,1,2
 57 118 57 118 103 127.5 c 128,-1,3
 149 137 149 137 180 167 c 128,-1,4
 211 197 211 197 224.5 244 c 128,-1,5
 238 291 238 291 247 374 c 2,6,-1
 381 1658 l 1,7,-1
 605 1658 l 1,8,-1
 471 369 l 2,9,10
 459 258 459 258 435 184.5 c 128,-1,11
 411 111 411 111 365.5 58 c 128,-1,12
 320 5 320 5 247.5 -19 c 128,-1,13
 175 -43 175 -43 68 -43 c 2,14,-1
 -38 -43 l 1,0,-1
EndSplineSet
EndChar

StartChar: K
Encoding: 75 75 46
Width: 1009
GlyphClass: 2
Flags: W
LayerCount: 2
UndoRedoHistory
Layer: 1
Undoes
EndUndoes
Redoes
EndRedoes
EndUndoRedoHistory
Fore
SplineSet
82 0 m 1,0,-1
 256 1658 l 1,1,-1
 480 1658 l 1,2,-1
 398 868 l 1,3,-1
 867 1658 l 1,4,-1
 1075 1658 l 1,5,-1
 669 929 l 1,6,-1
 956 0 l 1,7,-1
 738 0 l 1,8,-1
 487 826 l 1,9,-1
 375 649 l 1,10,-1
 306 0 l 1,11,-1
 82 0 l 1,0,-1
EndSplineSet
EndChar

StartChar: L
Encoding: 76 76 47
Width: 810
GlyphClass: 2
Flags: W
LayerCount: 2
UndoRedoHistory
Layer: 1
Undoes
EndUndoes
Redoes
EndRedoes
EndUndoRedoHistory
Fore
SplineSet
82 0 m 1,0,-1
 256 1658 l 1,1,-1
 480 1658 l 1,2,-1
 324 161 l 1,3,-1
 752 161 l 1,4,-1
 734 0 l 1,5,-1
 82 0 l 1,0,-1
EndSplineSet
EndChar

StartChar: M
Encoding: 77 77 48
Width: 1348
GlyphClass: 2
Flags: W
LayerCount: 2
UndoRedoHistory
Layer: 1
Undoes
EndUndoes
Redoes
EndRedoes
EndUndoRedoHistory
Fore
SplineSet
77 0 m 1,0,-1
 283 1658 l 1,1,-1
 502 1658 l 1,2,-1
 656 304 l 1,3,-1
 1098 1658 l 1,4,-1
 1316 1658 l 1,5,-1
 1174 0 l 1,6,-1
 993 0 l 1,7,-1
 1102 1217 l 1,8,-1
 689 0 l 1,9,-1
 562 0 l 1,10,-1
 407 1216 l 1,11,-1
 260 0 l 1,12,-1
 77 0 l 1,0,-1
EndSplineSet
EndChar

StartChar: N
Encoding: 78 78 49
Width: 1079
GlyphClass: 2
Flags: W
LayerCount: 2
UndoRedoHistory
Layer: 1
Undoes
EndUndoes
Redoes
EndRedoes
EndUndoRedoHistory
Fore
SplineSet
82 0 m 1,0,-1
 256 1658 l 1,1,-1
 410 1658 l 1,2,-1
 769 539 l 1,3,-1
 886 1658 l 1,4,-1
 1074 1658 l 1,5,-1
 900 0 l 1,6,-1
 755 0 l 1,7,-1
 393 1150 l 1,8,-1
 271 0 l 1,9,-1
 82 0 l 1,0,-1
EndSplineSet
EndChar

StartChar: O
Encoding: 79 79 50
Width: 1101
GlyphClass: 2
Flags: W
AnchorPoint: "Anchor-0" 581 0 basechar 0
LayerCount: 2
UndoRedoHistory
Layer: 1
Undoes
EndUndoes
Redoes
EndRedoes
EndUndoRedoHistory
Fore
SplineSet
519 158 m 0,0,1
 588 158 588 158 635.5 179 c 128,-1,2
 683 200 683 200 711 244 c 128,-1,3
 739 288 739 288 753.5 340 c 128,-1,4
 768 392 768 392 776 468 c 2,5,-1
 852 1197 l 1,6,7
 858 1245 858 1245 858 1287 c 0,8,9
 858 1306 858 1306 857 1323 c 0,10,11
 853 1379 853 1379 834.5 1418.5 c 128,-1,12
 816 1458 816 1458 772.5 1479 c 128,-1,13
 729 1500 729 1500 660 1500 c 128,-1,14
 591 1500 591 1500 543.5 1480 c 128,-1,15
 496 1460 496 1460 468 1417.5 c 128,-1,16
 440 1375 440 1375 425.5 1324 c 128,-1,17
 411 1273 411 1273 403 1197 c 2,18,-1
 327 468 l 2,19,20
 322 416 322 416 322 372 c 0,21,22
 322 334 322 334 326 304 c 0,23,24
 334 236 334 236 381 197 c 128,-1,25
 428 158 428 158 519 158 c 0,0,1
500 -18 m 0,26,27
 376 -18 376 -18 291.5 19.5 c 128,-1,28
 207 57 207 57 164 127 c 0,29,30
 121 198 121 198 106 296 c 0,31,32
 98 345 98 345 98 400.5 c 128,-1,33
 98 456 98 456 106 517 c 1,34,-1
 173 1151 l 2,35,36
 200 1408 200 1408 318.5 1541.5 c 128,-1,37
 437 1675 437 1675 678 1675 c 0,38,39
 801 1675 801 1675 885 1639 c 128,-1,40
 969 1603 969 1603 1014 1533.5 c 128,-1,41
 1059 1464 1059 1464 1073 1370 c 0,42,43
 1080 1321 1080 1321 1080 1264 c 0,44,45
 1080 1211 1080 1211 1074 1151 c 2,46,-1
 1006 516 l 2,47,48
 993 391 993 391 959 295.5 c 128,-1,49
 925 200 925 200 866 128 c 128,-1,50
 807 56 807 56 715 19 c 128,-1,51
 623 -18 623 -18 500 -18 c 0,26,27
EndSplineSet
EndChar

StartChar: P
Encoding: 80 80 51
Width: 984
GlyphClass: 2
Flags: W
LayerCount: 2
UndoRedoHistory
Layer: 1
Undoes
EndUndoes
Redoes
EndRedoes
EndUndoRedoHistory
Fore
SplineSet
82 0 m 1,0,-1
 256 1658 l 1,1,-1
 667 1658 l 2,2,3
 882 1658 882 1658 966 1542 c 0,4,5
 1032 1450 1032 1450 1033 1293 c 0,6,7
 1033 1250 1033 1250 1028 1202 c 1,8,9
 1006 1001 1006 1001 890.5 887 c 128,-1,10
 775 773 775 773 575 773 c 2,11,-1
 388 773 l 1,12,-1
 306 0 l 1,13,-1
 82 0 l 1,0,-1
405 934 m 1,14,-1
 519 934 l 2,15,16
 671 934 671 934 734.5 990 c 128,-1,17
 798 1046 798 1046 814 1201 c 1,18,19
 822 1260 822 1260 822 1305 c 0,20,21
 822 1314 822 1314 822 1323 c 0,22,23
 820 1374 820 1374 810.5 1407.5 c 128,-1,24
 801 1441 801 1441 771 1461 c 128,-1,25
 741 1481 741 1481 697 1489 c 128,-1,26
 653 1497 653 1497 582 1497 c 2,27,-1
 464 1497 l 1,28,-1
 405 934 l 1,14,-1
EndSplineSet
EndChar

StartChar: Q
Encoding: 81 81 52
Width: 1104
GlyphClass: 2
Flags: W
LayerCount: 2
UndoRedoHistory
Layer: 1
Undoes
EndUndoes
Redoes
EndRedoes
EndUndoRedoHistory
Fore
SplineSet
806 -338 m 1,0,1
 744 -291 744 -291 667 -197 c 128,-1,2
 590 -103 590 -103 542 -17 c 1,3,4
 529 -18 529 -18 501 -18 c 0,5,6
 377 -18 377 -18 293 19 c 128,-1,7
 209 56 209 56 164.5 127.5 c 0,8,9
 120 198 120 198 106 294 c 0,10,11
 99 343 99 343 100 400 c 0,12,13
 100 455 100 455 106 517 c 2,14,-1
 173 1151 l 2,15,16
 200 1408 200 1408 319 1541.5 c 128,-1,17
 438 1675 438 1675 679 1675 c 0,18,19
 802 1675 802 1675 886 1639 c 128,-1,20
 970 1603 970 1603 1015.5 1533.5 c 128,-1,21
 1061 1464 1061 1464 1075 1370 c 0,22,23
 1082 1321 1082 1321 1082 1264 c 0,24,25
 1082 1211 1082 1211 1076 1151 c 2,26,-1
 1009 516 l 2,27,28
 968 120 968 120 712 19 c 1,29,30
 748 -45 748 -45 817.5 -126 c 128,-1,31
 887 -207 887 -207 929 -242 c 1,32,-1
 806 -338 l 1,0,1
520 158 m 0,33,34
 589 158 589 158 637 179 c 128,-1,35
 685 200 685 200 713.5 243.5 c 128,-1,36
 742 287 742 287 756.5 339.5 c 128,-1,37
 771 392 771 392 779 468 c 2,38,-1
 855 1197 l 2,39,40
 860 1247 860 1247 860 1289 c 0,41,42
 860 1326 860 1326 856 1358 c 0,43,44
 848 1426 848 1426 800.5 1463 c 128,-1,45
 753 1500 753 1500 662 1500 c 0,46,47
 592 1500 592 1500 544.5 1480 c 128,-1,48
 497 1460 497 1460 468.5 1418 c 128,-1,49
 440 1376 440 1376 425.5 1324.5 c 128,-1,50
 411 1273 411 1273 403 1197 c 2,51,-1
 327 468 l 2,52,53
 322 418 322 418 322 375 c 0,54,55
 322 336 322 336 326 304 c 0,56,57
 334 236 334 236 381.5 197 c 128,-1,58
 429 158 429 158 520 158 c 0,33,34
EndSplineSet
EndChar

StartChar: R
Encoding: 82 82 53
Width: 1061
GlyphClass: 2
Flags: W
LayerCount: 2
UndoRedoHistory
Layer: 1
Undoes
EndUndoes
Redoes
EndRedoes
EndUndoRedoHistory
Fore
SplineSet
82 0 m 1,0,-1
 256 1658 l 1,1,-1
 595 1658 l 2,2,3
 843 1658 843 1658 948 1554 c 0,4,5
 1033 1470 1033 1470 1033 1302 c 0,6,7
 1033 1264 1033 1264 1029 1221 c 0,8,9
 994 898 994 898 780 833 c 1,10,-1
 931 0 l 1,11,-1
 714 0 l 1,12,-1
 576 782 l 1,13,-1
 389 782 l 1,14,-1
 306 0 l 1,15,-1
 82 0 l 1,0,-1
406 942 m 1,16,-1
 505 942 l 2,17,18
 657 942 657 942 726.5 1002.5 c 128,-1,19
 796 1063 796 1063 813 1221 c 0,20,21
 817 1258 817 1258 817 1290 c 0,22,23
 817 1388 817 1388 780 1435 c 0,24,25
 731 1497 731 1497 577 1497 c 2,26,-1
 464 1497 l 1,27,-1
 406 942 l 1,16,-1
EndSplineSet
EndChar

StartChar: S
Encoding: 83 83 54
Width: 966
GlyphClass: 2
Flags: W
AnchorPoint: "Anchor-1" 470 0 basechar 0
LayerCount: 2
UndoRedoHistory
Layer: 1
Undoes
EndUndoes
Redoes
EndRedoes
EndUndoRedoHistory
Fore
SplineSet
467 -18 m 0,0,1
 259 -18 259 -18 164 110 c 0,2,3
 78 226 78 226 78 419 c 0,4,5
 78 439 78 439 79 461 c 1,6,-1
 284 515 l 1,7,8
 283 491 283 491 283 469 c 0,9,10
 284 421 284 421 288 382 c 0,11,12
 294 324 294 324 314.5 270.5 c 128,-1,13
 335 217 335 217 378 187.5 c 128,-1,14
 421 158 421 158 486 158 c 0,15,16
 578 158 578 158 631 208.5 c 128,-1,17
 684 259 684 259 694 357 c 0,18,19
 696 377 696 377 696 395 c 0,20,21
 696 417 696 417 693 439 c 0,22,23
 687 478 687 478 676.5 506.5 c 128,-1,24
 666 535 666 535 642.5 568 c 128,-1,25
 619 601 619 601 600 622.5 c 128,-1,26
 581 644 581 644 546 680 c 1,27,-1
 293 930 l 1,28,29
 218 1006 218 1006 188 1090 c 0,30,31
 167 1149 167 1149 167 1225 c 0,32,33
 167 1258 167 1258 171 1294 c 0,34,35
 190 1473 190 1473 304.5 1573 c 128,-1,36
 419 1673 419 1673 599 1675 c 0,37,38
 603 1675 603 1675 606 1675 c 0,39,40
 798 1674 798 1674 885 1572 c 0,41,42
 969 1472 969 1472 969 1265 c 0,43,44
 969 1256 969 1256 969 1246 c 1,45,-1
 774 1194 l 1,46,47
 775 1217 775 1217 775 1239 c 0,48,49
 775 1282 775 1282 771 1316 c 0,50,51
 765 1368 765 1368 746 1413.5 c 0,52,53
 727 1460 727 1460 686 1482 c 0,54,55
 651 1501 651 1501 601 1501 c 0,56,57
 592 1501 592 1501 582 1500 c 0,58,59
 391 1489 391 1489 373 1315 c 0,60,61
 371 1296 371 1296 371 1279 c 0,62,63
 371 1230 371 1230 386 1193 c 0,64,65
 406 1143 406 1143 459 1088 c 1,66,-1
 714 839 l 1,67,68
 814 740 814 740 866 628 c 0,69,70
 907 540 907 540 907 433 c 0,71,72
 907 405 907 405 904 375 c 0,73,74
 885 193 885 193 764.5 87.5 c 128,-1,75
 644 -18 644 -18 467 -18 c 0,0,1
EndSplineSet
EndChar

StartChar: T
Encoding: 84 84 55
Width: 817
GlyphClass: 2
Flags: W
AnchorPoint: "Anchor-1" 380 0 basechar 0
LayerCount: 2
UndoRedoHistory
Layer: 1
Undoes
EndUndoes
Redoes
EndRedoes
EndUndoRedoHistory
Fore
SplineSet
254 0 m 1,0,-1
 410 1492 l 1,1,-1
 105 1492 l 1,2,-1
 122 1658 l 1,3,-1
 947 1658 l 1,4,-1
 930 1492 l 1,5,-1
 634 1492 l 1,6,-1
 477 0 l 1,7,-1
 254 0 l 1,0,-1
EndSplineSet
EndChar

StartChar: U
Encoding: 85 85 56
Width: 1112
GlyphClass: 2
Flags: W
AnchorPoint: "Anchor-0" 581 0 basechar 0
LayerCount: 2
UndoRedoHistory
Layer: 1
Undoes
EndUndoes
Redoes
EndRedoes
EndUndoRedoHistory
Fore
SplineSet
506 -18 m 0,0,1
 374 -18 374 -18 289.5 22.5 c 128,-1,2
 205 63 205 63 167 137.5 c 0,3,4
 128 212 128 212 118 316 c 0,5,6
 114 356 114 356 114 399 c 0,7,8
 114 469 114 469 125 548 c 1,9,-1
 242 1658 l 1,10,-1
 454 1658 l 1,11,-1
 337 538 l 1,12,13
 328 475 328 475 328 419 c 0,14,15
 328 404 328 404 329 389 c 0,16,17
 332 320 332 320 348 268.5 c 128,-1,18
 364 217 364 217 408.5 187.5 c 128,-1,19
 453 158 453 158 525 158 c 0,20,21
 582 158 582 158 625.5 178 c 128,-1,22
 669 198 669 198 696.5 230 c 128,-1,23
 724 262 724 262 743.5 313.5 c 128,-1,24
 763 365 763 365 773 416.5 c 128,-1,25
 783 468 783 468 790 538 c 2,26,-1
 908 1658 l 1,27,-1
 1121 1658 l 1,28,-1
 1004 548 l 2,29,30
 993 440 993 440 973 358 c 128,-1,31
 953 276 953 276 916 202.5 c 128,-1,32
 879 129 879 129 825.5 82.5 c 128,-1,33
 772 36 772 36 691.5 9 c 128,-1,34
 611 -18 611 -18 506 -18 c 0,0,1
EndSplineSet
EndChar

StartChar: V
Encoding: 86 86 57
Width: 1032
GlyphClass: 2
Flags: W
LayerCount: 2
UndoRedoHistory
Layer: 1
Undoes
EndUndoes
Redoes
EndRedoes
EndUndoRedoHistory
Fore
SplineSet
371 0 m 1,0,-1
 174 1658 l 1,1,-1
 383 1658 l 1,2,-1
 521 422 l 1,3,-1
 904 1658 l 1,4,-1
 1109 1658 l 1,5,-1
 567 0 l 1,6,-1
 371 0 l 1,0,-1
EndSplineSet
EndChar

StartChar: W
Encoding: 87 87 58
Width: 1490
GlyphClass: 2
Flags: W
LayerCount: 2
UndoRedoHistory
Layer: 1
Undoes
EndUndoes
Redoes
EndRedoes
EndUndoRedoHistory
Fore
SplineSet
296 0 m 1,0,-1
 198 1658 l 1,1,-1
 387 1658 l 1,2,-1
 441 450 l 1,3,-1
 794 1651 l 1,4,-1
 953 1651 l 1,5,-1
 1055 446 l 1,6,-1
 1358 1658 l 1,7,-1
 1542 1658 l 1,8,-1
 1101 0 l 1,9,-1
 938 0 l 1,10,-1
 834 1242 l 1,11,-1
 467 0 l 1,12,-1
 296 0 l 1,0,-1
EndSplineSet
EndChar

StartChar: X
Encoding: 88 88 59
Width: 984
GlyphClass: 2
Flags: W
LayerCount: 2
UndoRedoHistory
Layer: 1
Undoes
EndUndoes
Redoes
EndRedoes
EndUndoRedoHistory
Fore
SplineSet
-22 0 m 1,0,-1
 416 868 l 1,1,-1
 158 1658 l 1,2,-1
 365 1658 l 1,3,-1
 560 1065 l 1,4,-1
 857 1658 l 1,5,-1
 1066 1658 l 1,6,-1
 631 849 l 1,7,-1
 908 0 l 1,8,-1
 699 0 l 1,9,-1
 492 632 l 1,10,-1
 187 0 l 1,11,-1
 -22 0 l 1,0,-1
EndSplineSet
EndChar

StartChar: Y
Encoding: 89 89 60
AltUni2: 0004ae.ffffffff.0
Width: 983
GlyphClass: 2
Flags: W
LayerCount: 2
UndoRedoHistory
Layer: 1
Undoes
EndUndoes
Redoes
EndRedoes
EndUndoRedoHistory
Fore
SplineSet
337 0 m 1,0,-1
 398 582 l 1,1,-1
 151 1658 l 1,2,-1
 360 1658 l 1,3,-1
 533 847 l 1,4,-1
 871 1658 l 1,5,-1
 1083 1658 l 1,6,-1
 612 582 l 1,7,-1
 551 0 l 1,8,-1
 337 0 l 1,0,-1
EndSplineSet
EndChar

StartChar: Z
Encoding: 90 90 61
Width: 851
GlyphClass: 2
Flags: W
LayerCount: 2
UndoRedoHistory
Layer: 1
Undoes
EndUndoes
Redoes
EndRedoes
EndUndoRedoHistory
Fore
SplineSet
28 0 m 1,0,-1
 46 161 l 1,1,-1
 680 1497 l 1,2,-1
 217 1497 l 1,3,-1
 234 1658 l 1,4,-1
 935 1658 l 1,5,-1
 924 1560 l 1,6,-1
 258 161 l 1,7,-1
 778 161 l 1,8,-1
 761 0 l 1,9,-1
 28 0 l 1,0,-1
EndSplineSet
EndChar

StartChar: bracketleft
Encoding: 91 91 62
Width: 689
GlyphClass: 2
Flags: W
LayerCount: 2
UndoRedoHistory
Layer: 1
Undoes
EndUndoes
Redoes
EndRedoes
EndUndoRedoHistory
Fore
SplineSet
43 -372 m 1,0,-1
 256 1658 l 1,1,-1
 698 1658 l 1,2,-1
 687 1549 l 1,3,-1
 458 1549 l 1,4,-1
 268 -262 l 1,5,-1
 496 -262 l 1,6,-1
 485 -372 l 1,7,-1
 43 -372 l 1,0,-1
EndSplineSet
EndChar

StartChar: backslash
Encoding: 92 92 63
Width: 751
GlyphClass: 2
Flags: W
LayerCount: 2
UndoRedoHistory
Layer: 1
Undoes
EndUndoes
Redoes
EndRedoes
EndUndoRedoHistory
Fore
SplineSet
459 0 m 1,0,-1
 183 1658 l 1,1,-1
 367 1658 l 1,2,-1
 643 0 l 1,3,-1
 459 0 l 1,0,-1
EndSplineSet
EndChar

StartChar: bracketright
Encoding: 93 93 64
Width: 629
GlyphClass: 2
Flags: W
LayerCount: 2
UndoRedoHistory
Layer: 1
Undoes
EndUndoes
Redoes
EndRedoes
EndUndoRedoHistory
Fore
SplineSet
-31 -372 m 1,0,-1
 -19 -263 l 1,1,-1
 210 -263 l 1,2,-1
 400 1548 l 1,3,-1
 171 1548 l 1,4,-1
 182 1658 l 1,5,-1
 624 1658 l 1,6,-1
 411 -372 l 1,7,-1
 -31 -372 l 1,0,-1
EndSplineSet
EndChar

StartChar: asciicircum
Encoding: 94 94 65
Width: 898
GlyphClass: 2
Flags: W
LayerCount: 2
UndoRedoHistory
Layer: 1
Undoes
EndUndoes
Redoes
EndRedoes
EndUndoRedoHistory
Fore
SplineSet
125 1003 m 1,0,-1
 467 1658 l 1,1,-1
 682 1658 l 1,2,-1
 887 1003 l 1,3,-1
 686 1003 l 1,4,-1
 558 1501 l 1,5,-1
 326 1003 l 1,6,-1
 125 1003 l 1,0,-1
EndSplineSet
EndChar

StartChar: underscore
Encoding: 95 95 66
Width: 702
GlyphClass: 2
Flags: W
LayerCount: 2
UndoRedoHistory
Layer: 1
Undoes
EndUndoes
Redoes
EndRedoes
EndUndoRedoHistory
Fore
SplineSet
-77 -269 m 1,0,-1
 -60 -108 l 1,1,-1
 642 -108 l 1,2,-1
 626 -269 l 1,3,-1
 -77 -269 l 1,0,-1
EndSplineSet
EndChar

StartChar: grave
Encoding: 96 96 67
Width: 560
GlyphClass: 2
Flags: W
LayerCount: 2
UndoRedoHistory
Layer: 1
Undoes
EndUndoes
Redoes
EndRedoes
EndUndoRedoHistory
Fore
SplineSet
422 1254 m 1,0,-1
 241 1658 l 1,1,-1
 454 1658 l 1,2,-1
 529 1254 l 1,3,-1
 422 1254 l 1,0,-1
EndSplineSet
EndChar

StartChar: a
Encoding: 97 97 68
Width: 866
GlyphClass: 2
Flags: W
AnchorPoint: "Anchor-0" 714 0 basechar 0
LayerCount: 2
UndoRedoHistory
Layer: 1
Undoes
EndUndoes
Redoes
EndRedoes
EndUndoRedoHistory
Fore
SplineSet
272 -17 m 0,0,1
 171 -16 171 -16 111 66 c 0,2,3
 60 136 60 136 60 224 c 0,4,5
 60 240 60 240 62 257 c 0,6,7
 68 317 68 317 88 368.5 c 128,-1,8
 108 420 108 420 127.5 456.5 c 128,-1,9
 147 493 147 493 194 531.5 c 128,-1,10
 241 570 241 570 267 590 c 128,-1,11
 293 610 293 610 362.5 643 c 128,-1,12
 432 676 432 676 460.5 688 c 128,-1,13
 489 700 489 700 575 734 c 0,14,15
 580 736 580 736 582 737 c 1,16,-1
 591 822 l 2,17,18
 596 871 596 871 596 908 c 0,19,20
 596 962 596 962 585 992 c 0,21,22
 566 1042 566 1042 493 1041 c 0,23,24
 364 1041 364 1041 347 870 c 1,25,-1
 340 812 l 1,26,-1
 131 820 l 1,27,28
 132 825 132 825 134 840.5 c 128,-1,29
 136 856 136 856 137 863 c 0,30,31
 165 1040 165 1040 262 1120.5 c 128,-1,32
 359 1201 359 1201 523 1201 c 0,33,34
 693 1202 693 1202 758 1108 c 0,35,36
 808 1036 808 1036 808 908 c 0,37,38
 808 869 808 869 803 824 c 2,39,-1
 746 279 l 2,40,41
 735 176 735 176 735 64 c 0,42,43
 735 32 735 32 736 0 c 1,44,-1
 543 0 l 1,45,46
 533 101 533 101 533 174 c 1,47,48
 499 93 499 93 432 38 c 128,-1,49
 365 -17 365 -17 272 -17 c 0,0,1
375 167 m 0,50,51
 419 167 419 167 464 200.5 c 128,-1,52
 509 234 509 234 533 269 c 1,53,-1
 569 607 l 1,54,55
 562 604 562 604 550 597 c 0,56,57
 497 569 497 569 471 554.5 c 128,-1,58
 445 540 445 540 404.5 511.5 c 128,-1,59
 364 483 364 483 343.5 459 c 128,-1,60
 323 435 323 435 305 398.5 c 128,-1,61
 287 362 287 362 283 321 c 0,62,63
 281 304 281 304 281 289 c 0,64,65
 281 238 281 238 300 207 c 0,66,67
 324 167 324 167 375 167 c 0,50,51
EndSplineSet
EndChar

StartChar: b
Encoding: 98 98 69
Width: 910
GlyphClass: 2
Flags: W
LayerCount: 2
UndoRedoHistory
Layer: 1
Undoes
EndUndoes
Redoes
EndRedoes
EndUndoRedoHistory
Fore
SplineSet
477 -17 m 0,0,1
 371 -17 371 -17 287 88 c 1,2,-1
 278 0 l 1,3,-1
 66 0 l 1,4,-1
 240 1658 l 1,5,-1
 452 1658 l 1,6,-1
 393 1090 l 1,7,8
 500 1201 500 1201 629 1201 c 0,9,10
 687 1201 687 1201 731 1179 c 128,-1,11
 775 1157 775 1157 799 1117.5 c 128,-1,12
 823 1078 823 1078 837.5 1034 c 128,-1,13
 852 990 852 990 855 935 c 0,14,15
 857 894 857 894 857 860 c 0,16,17
 857 848 857 848 857 838 c 0,18,19
 856 796 856 796 851 752 c 2,20,-1
 821 470 l 2,21,22
 770 -17 770 -17 477 -17 c 0,0,1
453 150 m 0,23,24
 481 150 481 150 503 160.5 c 128,-1,25
 525 171 525 171 540.5 193 c 128,-1,26
 556 215 556 215 567 240.5 c 128,-1,27
 578 266 578 266 586 306.5 c 128,-1,28
 594 347 594 347 599 382 c 128,-1,29
 604 417 604 417 609 469 c 2,30,-1
 639 752 l 1,31,32
 646 832 646 832 646 895 c 128,-1,33
 646 958 646 958 619.5 996 c 128,-1,34
 593 1034 593 1034 538 1034 c 0,35,36
 463 1034 463 1034 380 970 c 1,37,-1
 299 205 l 1,38,39
 366 150 366 150 453 150 c 0,23,24
EndSplineSet
EndChar

StartChar: c
Encoding: 99 99 70
Width: 836
GlyphClass: 2
Flags: W
AnchorPoint: "Anchor-1" 380 0 basechar 0
LayerCount: 2
UndoRedoHistory
Layer: 1
Undoes
EndUndoes
Redoes
EndRedoes
EndUndoRedoHistory
Fore
SplineSet
381 -17 m 0,0,1
 275 -17 275 -17 208.5 17 c 128,-1,2
 142 51 142 51 114.5 112.5 c 0,3,4
 86 174 86 174 80 260 c 0,5,6
 78 287 78 287 78 317 c 0,7,8
 78 380 78 380 88 453 c 1,9,-1
 117 728 l 2,10,11
 130 848 130 848 152.5 929.5 c 128,-1,12
 175 1011 175 1011 218.5 1075.5 c 128,-1,13
 262 1140 262 1140 333.5 1170.5 c 128,-1,14
 405 1201 405 1201 509 1201 c 0,15,16
 604 1201 604 1201 665 1176.5 c 128,-1,17
 726 1152 726 1152 755.5 1105 c 0,18,19
 786 1058 786 1058 794 988 c 0,20,21
 798 957 798 957 797 923 c 0,22,23
 797 878 797 878 791 827 c 2,24,-1
 783 758 l 1,25,-1
 591 758 l 1,26,-1
 599 828 l 2,27,28
 604 873 604 873 604 908 c 0,29,30
 604 966 604 966 590 996 c 0,31,32
 568 1044 568 1044 496 1044 c 0,33,34
 414 1044 414 1044 382 987 c 128,-1,35
 350 930 350 930 334 771 c 2,36,-1
 295 401 l 2,37,38
 288 337 288 337 288 291 c 0,39,40
 288 226 288 226 302 194 c 0,41,42
 324 140 324 140 402 140 c 0,43,44
 435 140 435 140 459 150.5 c 128,-1,45
 483 161 483 161 498 177.5 c 128,-1,46
 513 194 513 194 523.5 223.5 c 128,-1,47
 534 253 534 253 539 281.5 c 128,-1,48
 544 310 544 310 549 354 c 2,49,-1
 559 446 l 1,50,-1
 751 446 l 1,51,-1
 743 367 l 2,52,53
 733 272 733 272 711 204.5 c 128,-1,54
 689 137 689 137 648 85.5 c 128,-1,55
 607 34 607 34 540.5 8.5 c 128,-1,56
 474 -17 474 -17 381 -17 c 0,0,1
EndSplineSet
EndChar

StartChar: d
Encoding: 100 100 71
Width: 899
GlyphClass: 2
Flags: W
LayerCount: 2
UndoRedoHistory
Layer: 1
Undoes
EndUndoes
Redoes
EndRedoes
EndUndoRedoHistory
Fore
SplineSet
334 -17 m 0,0,1
 333 -17 333 -17 331 -17 c 0,2,3
 180 -17 180 -17 122 94 c 0,4,5
 82 171 82 171 81 317 c 0,6,7
 81 384 81 384 90 466 c 2,8,-1
 114 695 l 2,9,10
 123 784 123 784 137 854 c 128,-1,11
 151 924 151 924 177 991 c 128,-1,12
 203 1058 203 1058 239 1102.5 c 128,-1,13
 275 1147 275 1147 330 1174 c 128,-1,14
 385 1201 385 1201 455 1201 c 0,15,16
 561 1200 561 1200 644 1108 c 1,17,-1
 701 1658 l 1,18,-1
 913 1658 l 1,19,-1
 739 0 l 1,20,-1
 527 0 l 1,21,-1
 535 76 l 1,22,23
 439 -17 439 -17 334 -17 c 0,0,1
405 150 m 0,24,25
 470 150 470 150 548 198 c 1,26,-1
 630 978 l 1,27,28
 561 1034 561 1034 494 1034 c 0,29,30
 455 1034 455 1034 426 1014.5 c 128,-1,31
 397 995 397 995 379 958.5 c 128,-1,32
 361 922 361 922 350.5 878.5 c 128,-1,33
 340 835 340 835 334 777 c 2,34,-1
 299 448 l 1,35,36
 292 370 292 370 292 309 c 0,37,38
 292 302 292 302 292 294 c 0,39,40
 293 228 293 228 320.5 189 c 128,-1,41
 348 150 348 150 405 150 c 0,24,25
EndSplineSet
EndChar

StartChar: e
Encoding: 101 101 72
Width: 856
GlyphClass: 2
Flags: W
AnchorPoint: "Anchor-0" 518 0 basechar 0
LayerCount: 2
UndoRedoHistory
Layer: 1
Undoes
EndUndoes
Redoes
EndRedoes
EndUndoRedoHistory
Fore
SplineSet
386 -17 m 0,0,1
 284 -17 284 -17 219 13 c 128,-1,2
 154 43 154 43 122 102 c 0,3,4
 90 162 90 162 82 250 c 0,5,6
 79 282 79 282 80 318 c 0,7,8
 80 381 80 381 88 455 c 2,9,-1
 117 729 l 2,10,11
 130 852 130 852 155.5 937 c 128,-1,12
 181 1022 181 1022 227 1083 c 128,-1,13
 273 1144 273 1144 343.5 1172.5 c 128,-1,14
 414 1201 414 1201 513 1201 c 0,15,16
 620 1201 620 1201 684.5 1166.5 c 128,-1,17
 749 1132 749 1132 775 1066 c 0,18,19
 800 1000 800 1000 804 904 c 0,20,21
 805 886 805 886 805 867 c 0,22,23
 805 786 805 786 793 687 c 1,24,-1
 782 590 l 1,25,-1
 314 590 l 1,26,-1
 297 430 l 2,27,28
 294 396 294 396 292.5 381 c 128,-1,29
 291 366 291 366 289 337 c 128,-1,30
 287 308 287 308 287.5 294.5 c 128,-1,31
 288 281 288 281 288.5 257.5 c 128,-1,32
 289 234 289 234 293 223 c 128,-1,33
 297 212 297 212 302.5 195.5 c 128,-1,34
 308 179 308 179 317 171 c 128,-1,35
 326 163 326 163 337.5 154.5 c 128,-1,36
 349 146 349 146 365 143 c 128,-1,37
 381 140 381 140 401 140 c 0,38,39
 472 140 472 140 505 189 c 128,-1,40
 538 238 538 238 548 338 c 2,41,-1
 556 411 l 1,42,-1
 763 411 l 1,43,-1
 757 363 l 1,44,45
 718 -17 718 -17 386 -17 c 0,0,1
327 705 m 1,46,-1
 587 705 l 1,47,-1
 597 812 l 1,48,49
 603 868 603 868 603 912 c 0,50,51
 602 926 602 926 602 938 c 0,52,53
 600 990 600 990 574.5 1017 c 128,-1,54
 549 1044 549 1044 495 1044 c 0,55,56
 415 1044 415 1044 382.5 987 c 128,-1,57
 350 930 350 930 333 771 c 1,58,-1
 327 705 l 1,46,-1
EndSplineSet
EndChar

StartChar: f
Encoding: 102 102 73
Width: 584
GlyphClass: 2
Flags: W
LayerCount: 2
UndoRedoHistory
Layer: 1
Undoes
EndUndoes
Redoes
EndRedoes
EndUndoRedoHistory
Fore
SplineSet
133 0 m 1,0,-1
 241 1026 l 1,1,-1
 98 1026 l 1,2,-1
 114 1184 l 1,3,-1
 257 1184 l 1,4,-1
 265 1252 l 1,5,6
 272 1322 272 1322 282 1371 c 128,-1,7
 292 1420 292 1420 312.5 1466.5 c 128,-1,8
 333 1513 333 1513 363 1540.5 c 128,-1,9
 393 1568 393 1568 441 1584.5 c 128,-1,10
 489 1601 489 1601 554 1601 c 0,11,12
 601 1601 601 1601 692 1589 c 1,13,-1
 675 1431 l 1,14,15
 667 1432 667 1432 638 1436.5 c 128,-1,16
 609 1441 609 1441 595 1441 c 0,17,18
 535 1441 535 1441 511.5 1403.5 c 128,-1,19
 488 1366 488 1366 480 1287 c 1,20,-1
 468 1184 l 1,21,-1
 650 1184 l 1,22,-1
 634 1026 l 1,23,-1
 452 1026 l 1,24,-1
 344 0 l 1,25,-1
 133 0 l 1,0,-1
EndSplineSet
EndChar

StartChar: g
Encoding: 103 103 74
Width: 890
GlyphClass: 2
Flags: W
LayerCount: 2
UndoRedoHistory
Layer: 1
Undoes
EndUndoes
Redoes
EndRedoes
EndUndoRedoHistory
Fore
SplineSet
387 -369 m 0,0,1
 323 -369 323 -369 275 -366.5 c 128,-1,2
 227 -364 227 -364 174.5 -357.5 c 128,-1,3
 122 -351 122 -351 86.5 -338 c 128,-1,4
 51 -325 51 -325 21.5 -305 c 128,-1,5
 -8 -285 -8 -285 -20 -254 c 0,6,7
 -29 -231 -29 -231 -30 -202 c 0,8,9
 -30 -193 -30 -193 -29 -183 c 0,10,11
 -19 -92 -19 -92 37.5 -24 c 128,-1,12
 94 44 94 44 173 83 c 1,13,14
 119 100 119 100 92 134 c 0,15,16
 69 162 69 162 69 196 c 0,17,18
 69 202 69 202 70 209 c 0,19,20
 76 269 76 269 113 316 c 128,-1,21
 150 363 150 363 225 425 c 1,22,23
 160 480 160 480 135 562 c 0,24,25
 119 614 119 614 119 686 c 0,26,27
 119 729 119 729 125 780 c 1,28,29
 146 985 146 985 241.5 1093 c 128,-1,30
 337 1201 337 1201 500 1201 c 0,31,32
 682 1201 682 1201 732 1069 c 1,33,34
 748 1090 748 1090 798.5 1128.5 c 128,-1,35
 849 1167 849 1167 904 1191 c 1,36,-1
 940 1206 l 1,37,-1
 978 1068 l 1,38,39
 935 1059 935 1059 861 1031.5 c 128,-1,40
 787 1004 787 1004 769 990 c 1,41,42
 780 954 780 954 784 888 c 0,43,44
 786 859 786 859 786 833 c 0,45,46
 786 800 786 800 783 773 c 0,47,48
 763 579 763 579 675.5 471 c 128,-1,49
 588 363 588 363 413 363 c 0,50,51
 394 363 394 363 350 369.5 c 128,-1,52
 306 376 306 376 301 378 c 1,53,54
 301 377 301 377 287 357.5 c 128,-1,55
 273 338 273 338 268 330.5 c 128,-1,56
 263 323 263 323 255.5 307.5 c 128,-1,57
 248 292 248 292 247 281 c 0,58,59
 246 259 246 259 268.5 247 c 128,-1,60
 291 235 291 235 342 230 c 1,61,62
 348 228 348 228 434.5 220 c 128,-1,63
 521 212 521 212 524 211 c 0,64,65
 773 185 773 185 773 -32 c 0,66,67
 773 -53 773 -53 771 -75 c 1,68,69
 754 -232 754 -232 660.5 -300.5 c 128,-1,70
 567 -369 567 -369 387 -369 c 0,0,1
403 -201 m 0,71,72
 500 -201 500 -201 550 -172.5 c 128,-1,73
 600 -144 600 -144 607 -81 c 0,74,75
 608 -72 608 -72 608 -64 c 0,76,77
 608 -20 608 -20 580 4 c 0,78,79
 548 32 548 32 453 44 c 1,80,-1
 271 59 l 1,81,82
 236 35 236 35 201 -8 c 128,-1,83
 166 -51 166 -51 161 -100 c 0,84,85
 160 -107 160 -107 160 -114 c 0,86,87
 160 -142 160 -142 173 -158 c 0,88,89
 189 -178 189 -178 243.5 -189.5 c 128,-1,90
 298 -201 298 -201 403 -201 c 0,71,72
428 514 m 0,91,92
 466 514 466 514 494.5 526.5 c 128,-1,93
 523 539 523 539 541 560 c 128,-1,94
 559 581 559 581 572 616.5 c 128,-1,95
 585 652 585 652 591.5 689 c 128,-1,96
 598 726 598 726 604 780 c 0,97,98
 610 846 610 846 610 898 c 0,99,100
 610 912 610 912 610 924 c 0,101,102
 608 984 608 984 578.5 1018.5 c 128,-1,103
 549 1053 549 1053 488 1053 c 0,104,105
 399 1053 399 1053 361.5 986.5 c 128,-1,106
 324 920 324 920 309 780 c 1,107,108
 304 724 304 724 304 676 c 0,109,110
 304 660 304 660 305 646 c 0,111,112
 307 587 307 587 337.5 550.5 c 128,-1,113
 368 514 368 514 428 514 c 0,91,92
EndSplineSet
EndChar

StartChar: h
Encoding: 104 104 75
Width: 905
GlyphClass: 2
Flags: W
LayerCount: 2
UndoRedoHistory
Layer: 1
Undoes
EndUndoes
Redoes
EndRedoes
EndUndoRedoHistory
Fore
SplineSet
68 0 m 1,0,-1
 242 1658 l 1,1,-1
 454 1658 l 1,2,-1
 391 1061 l 1,3,4
 551 1201 551 1201 701 1201 c 0,5,6
 751 1201 751 1201 785.5 1179.5 c 128,-1,7
 820 1158 820 1158 834 1124 c 128,-1,8
 848 1090 848 1090 854 1046 c 0,9,10
 857 1026 857 1026 857 1005 c 0,11,12
 857 981 857 981 853 957 c 1,13,-1
 752 0 l 1,14,-1
 540 0 l 1,15,-1
 634 896 l 2,16,17
 637 919 637 919 637 938 c 0,18,19
 637 978 637 978 625 1000 c 0,20,21
 608 1034 608 1034 554 1034 c 0,22,23
 481 1034 481 1034 379 952 c 1,24,-1
 280 0 l 1,25,-1
 68 0 l 1,0,-1
EndSplineSet
EndChar

StartChar: i
Encoding: 105 105 76
Width: 463
GlyphClass: 2
Flags: W
AnchorPoint: "Anchor-0" 196 0 basechar 0
LayerCount: 2
UndoRedoHistory
Layer: 1
Undoes
EndUndoes
Redoes
EndRedoes
EndUndoRedoHistory
Fore
SplineSet
77 0 m 1,0,-1
 201 1184 l 1,1,-1
 413 1184 l 1,2,-1
 289 0 l 1,3,-1
 77 0 l 1,0,-1
220 1358 m 1,4,-1
 244 1585 l 1,5,-1
 457 1585 l 1,6,-1
 433 1358 l 1,7,-1
 220 1358 l 1,4,-1
EndSplineSet
EndChar

StartChar: j
Encoding: 106 106 77
Width: 468
GlyphClass: 2
Flags: W
LayerCount: 2
UndoRedoHistory
Layer: 1
Undoes
EndUndoes
Redoes
EndRedoes
EndUndoRedoHistory
Fore
SplineSet
-117 -287 m 1,0,-1
 -100 -134 l 1,1,2
 -70 -139 -70 -139 -44 -139 c 0,3,4
 24 -139 24 -139 56 -101 c 128,-1,5
 88 -63 88 -63 95 6 c 2,6,-1
 219 1184 l 1,7,-1
 431 1184 l 1,8,-1
 305 -16 l 2,9,10
 290 -153 290 -153 207 -226.5 c 128,-1,11
 124 -300 124 -300 -10 -300 c 0,12,13
 -83 -300 -83 -300 -117 -287 c 1,0,-1
237 1358 m 1,14,-1
 261 1585 l 1,15,-1
 475 1585 l 1,16,-1
 451 1358 l 1,17,-1
 237 1358 l 1,14,-1
EndSplineSet
EndChar

StartChar: k
Encoding: 107 107 78
Width: 872
GlyphClass: 2
Flags: W
LayerCount: 2
UndoRedoHistory
Layer: 1
Undoes
EndUndoes
Redoes
EndRedoes
EndUndoRedoHistory
Fore
SplineSet
66 3 m 1,0,-1
 241 1661 l 1,1,-1
 453 1661 l 1,2,-1
 348 665 l 1,3,-1
 730 1183 l 1,4,-1
 952 1184 l 1,5,-1
 623 720 l 1,6,-1
 819 0 l 1,7,-1
 607 0 l 1,8,-1
 448 611 l 1,9,-1
 326 454 l 1,10,-1
 278 3 l 1,11,-1
 66 3 l 1,0,-1
EndSplineSet
EndChar

StartChar: l
Encoding: 108 108 79
Width: 464
GlyphClass: 2
Flags: W
LayerCount: 2
UndoRedoHistory
Layer: 1
Undoes
EndUndoes
Redoes
EndRedoes
EndUndoRedoHistory
Fore
SplineSet
83 0 m 1,0,-1
 257 1658 l 1,1,-1
 470 1658 l 1,2,-1
 296 0 l 1,3,-1
 83 0 l 1,0,-1
EndSplineSet
EndChar

StartChar: m
Encoding: 109 109 80
Width: 1359
GlyphClass: 2
Flags: W
LayerCount: 2
UndoRedoHistory
Layer: 1
Undoes
EndUndoes
Redoes
EndRedoes
EndUndoRedoHistory
Fore
SplineSet
63 0 m 1,0,-1
 187 1184 l 1,1,-1
 398 1184 l 1,2,-1
 387 1068 l 1,3,4
 540 1201 540 1201 688 1201 c 0,5,6
 821 1201 821 1201 840 1056 c 1,7,8
 1002 1201 1002 1201 1155 1201 c 0,9,10
 1205 1201 1205 1201 1239 1179.5 c 128,-1,11
 1273 1158 1273 1158 1287.5 1124 c 128,-1,12
 1302 1090 1302 1090 1308 1046 c 0,13,14
 1311 1026 1311 1026 1311 1005 c 0,15,16
 1311 981 1311 981 1307 957 c 1,17,-1
 1206 0 l 1,18,-1
 994 0 l 1,19,-1
 1088 896 l 2,20,21
 1090 917 1090 917 1090 935 c 0,22,23
 1090 977 1090 977 1078 1001 c 0,24,25
 1062 1034 1062 1034 1007 1034 c 0,26,27
 938 1034 938 1034 839 956 c 1,28,29
 839 954 839 954 838.5 946 c 128,-1,30
 838 938 838 938 838 936 c 2,31,-1
 739 0 l 1,32,-1
 527 0 l 1,33,-1
 621 896 l 2,34,35
 623 917 623 917 623 935 c 0,36,37
 624 977 624 977 612 1001 c 0,38,39
 596 1034 596 1034 540 1034 c 0,40,41
 472 1034 472 1034 375 958 c 1,42,-1
 274 0 l 1,43,-1
 63 0 l 1,0,-1
EndSplineSet
EndChar

StartChar: n
Encoding: 110 110 81
Width: 893
GlyphClass: 2
Flags: W
LayerCount: 2
UndoRedoHistory
Layer: 1
Undoes
EndUndoes
Redoes
EndRedoes
EndUndoRedoHistory
Fore
SplineSet
63 0 m 1,0,-1
 187 1184 l 1,1,-1
 398 1184 l 1,2,-1
 386 1067 l 1,3,4
 544 1201 544 1201 690 1201 c 0,5,6
 740 1201 740 1201 774 1179.5 c 128,-1,7
 808 1158 808 1158 822.5 1124 c 0,8,9
 836 1090 836 1090 842 1046 c 0,10,11
 844 1027 844 1027 845 1007 c 0,12,13
 845 982 845 982 841 957 c 1,14,-1
 741 0 l 1,15,-1
 529 0 l 1,16,-1
 623 896 l 2,17,18
 625 917 625 917 625 935 c 0,19,20
 626 977 626 977 614 1001 c 0,21,22
 598 1034 598 1034 542 1034 c 0,23,24
 473 1034 473 1034 375 957 c 1,25,-1
 274 0 l 1,26,-1
 63 0 l 1,0,-1
EndSplineSet
EndChar

StartChar: o
Encoding: 111 111 82
Width: 863
GlyphClass: 2
Flags: W
AnchorPoint: "Anchor-0" 421 0 basechar 0
LayerCount: 2
UndoRedoHistory
Layer: 1
Undoes
EndUndoes
Redoes
EndRedoes
EndUndoRedoHistory
Fore
SplineSet
397 140 m 128,-1,1
 424 140 424 140 445.5 148.5 c 128,-1,2
 467 157 467 157 482 168 c 128,-1,3
 497 179 497 179 508.5 202 c 128,-1,4
 520 225 520 225 527 242.5 c 128,-1,5
 534 260 534 260 540 294 c 128,-1,6
 546 328 546 328 548.5 348 c 128,-1,7
 551 368 551 368 555 407 c 2,8,-1
 594 775 l 2,9,10
 598 813 598 813 599.5 834 c 128,-1,11
 601 855 601 855 602 888.5 c 128,-1,12
 603 922 603 922 600 940 c 128,-1,13
 597 958 597 958 590 981 c 128,-1,14
 583 1004 583 1004 570.5 1015.5 c 128,-1,15
 558 1027 558 1027 538.5 1035.5 c 128,-1,16
 519 1044 519 1044 492 1044 c 0,17,18
 461 1044 461 1044 437 1034.5 c 128,-1,19
 413 1025 413 1025 397 1004 c 128,-1,20
 381 983 381 983 370.5 962.5 c 128,-1,21
 360 942 360 942 352.5 906 c 128,-1,22
 345 870 345 870 341.5 844.5 c 128,-1,23
 338 819 338 819 334 775 c 2,24,-1
 295 407 l 2,25,26
 291 368 291 368 289.5 347.5 c 128,-1,27
 288 327 288 327 287 294 c 128,-1,28
 286 261 286 261 289 243 c 128,-1,29
 292 225 292 225 299 202 c 128,-1,30
 306 179 306 179 318.5 167.5 c 128,-1,31
 331 156 331 156 350.5 148 c 128,-1,0
 370 140 370 140 397 140 c 128,-1,1
380 -17 m 128,-1,33
 284 -17 284 -17 219.5 13.5 c 128,-1,34
 155 44 155 44 123.5 101 c 128,-1,35
 92 158 92 158 82 239 c 0,36,37
 78 274 78 274 78 313 c 0,38,39
 78 364 78 364 85 421 c 1,40,-1
 120 762 l 2,41,42
 143 977 143 977 232.5 1089 c 128,-1,43
 322 1201 322 1201 508 1201 c 0,44,45
 604 1201 604 1201 669 1170 c 128,-1,46
 734 1139 734 1139 765.5 1082 c 0,47,48
 798 1025 798 1025 808 944 c 0,49,50
 813 908 813 908 812 868 c 0,51,52
 812 818 812 818 805 762 c 1,53,-1
 769 421 l 2,54,55
 758 316 758 316 732.5 238.5 c 128,-1,56
 707 161 707 161 662 102 c 128,-1,57
 617 43 617 43 546.5 13 c 128,-1,32
 476 -17 476 -17 380 -17 c 128,-1,33
EndSplineSet
EndChar

StartChar: p
Encoding: 112 112 83
Width: 908
GlyphClass: 2
Flags: W
LayerCount: 2
UndoRedoHistory
Layer: 1
Undoes
EndUndoes
Redoes
EndRedoes
EndUndoRedoHistory
Fore
SplineSet
22 -390 m 1,0,-1
 187 1184 l 1,1,-1
 399 1184 l 1,2,-1
 390 1089 l 1,3,4
 498 1201 498 1201 626 1201 c 0,5,6
 677 1201 677 1201 716.5 1183.5 c 128,-1,7
 756 1166 756 1166 780.5 1139 c 128,-1,8
 805 1112 805 1112 821.5 1072 c 128,-1,9
 838 1032 838 1032 845 993 c 128,-1,10
 852 954 852 954 854 907 c 0,11,12
 855 880 855 880 855 857 c 0,13,14
 854 840 854 840 854 825 c 0,15,16
 852 790 852 790 849 752 c 2,17,-1
 819 470 l 2,18,19
 768 -17 768 -17 475 -17 c 0,20,21
 369 -17 369 -17 284 89 c 1,22,-1
 234 -390 l 1,23,-1
 22 -390 l 1,0,-1
451 150 m 0,24,25
 485 150 485 150 510 167 c 128,-1,26
 535 184 535 184 550 209 c 128,-1,27
 565 234 565 234 577 279.5 c 128,-1,28
 589 325 589 325 594.5 365 c 128,-1,29
 600 405 600 405 607 469 c 2,30,-1
 637 752 l 1,31,32
 644 832 644 832 644 895 c 128,-1,33
 644 958 644 958 617.5 996 c 128,-1,34
 591 1034 591 1034 536 1034 c 0,35,36
 463 1034 463 1034 377 970 c 1,37,-1
 296 206 l 1,38,39
 365 150 365 150 451 150 c 0,24,25
EndSplineSet
EndChar

StartChar: q
Encoding: 113 113 84
Width: 901
GlyphClass: 2
Flags: W
LayerCount: 2
UndoRedoHistory
Layer: 1
Undoes
EndUndoes
Redoes
EndRedoes
EndUndoRedoHistory
Fore
SplineSet
489 -390 m 1,0,-1
 538 76 l 1,1,2
 442 -17 442 -17 337 -17 c 0,3,4
 336 -17 336 -17 334 -17 c 0,5,6
 182 -18 182 -18 124 94 c 0,7,8
 84 170 84 170 84 314 c 0,9,10
 84 382 84 382 93 466 c 1,11,-1
 116 695 l 2,12,13
 125 784 125 784 139.5 853.5 c 128,-1,14
 154 923 154 923 180 990.5 c 128,-1,15
 206 1058 206 1058 242 1102.5 c 128,-1,16
 278 1147 278 1147 333 1174 c 128,-1,17
 388 1201 388 1201 458 1201 c 0,18,19
 565 1200 565 1200 646 1108 c 1,20,-1
 654 1184 l 1,21,-1
 866 1184 l 1,22,-1
 701 -390 l 1,23,-1
 489 -390 l 1,0,-1
407 150 m 0,24,25
 473 150 473 150 551 198 c 1,26,-1
 632 978 l 1,27,28
 565 1034 565 1034 496 1034 c 0,29,30
 457 1034 457 1034 428.5 1015 c 128,-1,31
 400 996 400 996 382 959 c 128,-1,32
 364 922 364 922 353.5 878.5 c 128,-1,33
 343 835 343 835 337 777 c 2,34,-1
 302 448 l 1,35,36
 295 370 295 370 295 309 c 0,37,38
 295 302 295 302 295 294 c 0,39,40
 296 228 296 228 323 189 c 128,-1,41
 350 150 350 150 407 150 c 0,24,25
EndSplineSet
EndChar

StartChar: r
Encoding: 114 114 85
Width: 653
GlyphClass: 2
Flags: W
LayerCount: 2
UndoRedoHistory
Layer: 1
Undoes
EndUndoes
Redoes
EndRedoes
EndUndoRedoHistory
Fore
SplineSet
69 0 m 1,0,-1
 193 1184 l 1,1,-1
 405 1184 l 1,2,-1
 388 1016 l 1,3,4
 516 1199 516 1199 669 1199 c 0,5,6
 674 1199 674 1199 704 1197 c 1,7,-1
 679 963 l 1,8,9
 628 985 628 985 567 985 c 0,10,11
 511 985 511 985 465 960 c 128,-1,12
 419 935 419 935 372 870 c 1,13,-1
 281 0 l 1,14,-1
 69 0 l 1,0,-1
EndSplineSet
EndChar

StartChar: s
Encoding: 115 115 86
Width: 762
GlyphClass: 2
Flags: W
AnchorPoint: "Anchor-1" 370 0 basechar 0
LayerCount: 2
UndoRedoHistory
Layer: 1
Undoes
EndUndoes
Redoes
EndRedoes
EndUndoRedoHistory
Fore
SplineSet
334 -17 m 0,0,1
 190 -17 190 -17 112 74 c 0,2,3
 37 161 37 161 37 302 c 0,4,5
 37 309 37 309 37 317 c 1,6,-1
 219 370 l 1,7,8
 220 252 220 252 253.5 196 c 128,-1,9
 287 140 287 140 360 140 c 0,10,11
 421 140 421 140 462.5 179.5 c 128,-1,12
 504 219 504 219 507 279 c 1,13,14
 508 286 508 286 508 292 c 0,15,16
 508 376 508 376 426 452 c 2,17,-1
 246 621 l 2,18,19
 179 684 179 684 148 750 c 0,20,21
 126 798 126 798 126 861 c 0,22,23
 126 885 126 885 129 911 c 0,24,25
 147 1049 147 1049 235.5 1125 c 128,-1,26
 324 1201 324 1201 462 1201 c 0,27,28
 596 1202 596 1202 664 1114 c 0,29,30
 729 1030 729 1030 728 901 c 0,31,32
 728 895 728 895 728 889 c 1,33,-1
 579 836 l 1,34,35
 577 938 577 938 548.5 991 c 128,-1,36
 520 1044 520 1044 454 1044 c 0,37,38
 398 1044 398 1044 361 1008.5 c 128,-1,39
 324 973 324 973 319 921 c 0,40,41
 318 914 318 914 318 907 c 0,42,43
 318 843 318 843 369 794 c 1,44,-1
 555 606 l 1,45,46
 626 536 626 536 664 462 c 0,47,48
 694 404 694 404 694 326 c 0,49,50
 694 305 694 305 692 284 c 0,51,52
 677 137 677 137 580.5 60 c 128,-1,53
 484 -17 484 -17 334 -17 c 0,0,1
EndSplineSet
EndChar

StartChar: t
Encoding: 116 116 87
Width: 625
GlyphClass: 2
Flags: W
AnchorPoint: "Anchor-1" 340 0 basechar 0
LayerCount: 2
UndoRedoHistory
Layer: 1
Undoes
EndUndoes
Redoes
EndRedoes
EndUndoRedoHistory
Fore
SplineSet
372 -16 m 0,0,1
 238 -16 238 -16 188 54 c 0,2,3
 148 110 148 110 147 210 c 0,4,5
 147 236 147 236 150 264 c 1,6,-1
 232 1042 l 1,7,-1
 106 1042 l 1,8,-1
 121 1184 l 1,9,-1
 246 1184 l 1,10,-1
 283 1531 l 1,11,-1
 495 1531 l 1,12,-1
 458 1184 l 1,13,-1
 649 1184 l 1,14,-1
 635 1042 l 1,15,-1
 444 1042 l 1,16,-1
 363 279 l 2,17,18
 361 259 361 259 361 242 c 0,19,20
 361 197 361 197 375 176 c 0,21,22
 394 147 394 147 457 147 c 0,23,24
 506 147 506 147 540 153 c 1,25,-1
 523 -5 l 1,26,27
 437 -16 437 -16 372 -16 c 0,0,1
EndSplineSet
EndChar

StartChar: u
Encoding: 117 117 88
Width: 895
GlyphClass: 2
Flags: W
AnchorPoint: "Anchor-0" 672 0 basechar 0
LayerCount: 2
UndoRedoHistory
Layer: 1
Undoes
EndUndoes
Redoes
EndRedoes
EndUndoRedoHistory
Fore
SplineSet
230 -17 m 0,0,1
 180 -17 180 -17 146.5 4.5 c 128,-1,2
 113 26 113 26 98.5 60 c 128,-1,3
 84 94 84 94 78 138 c 0,4,5
 75 158 75 158 75 179 c 0,6,7
 75 203 75 203 79 227 c 1,8,-1
 179 1184 l 1,9,-1
 391 1184 l 1,10,-1
 297 288 l 2,11,12
 295 267 295 267 295 250 c 0,13,14
 295 208 295 208 307 184 c 0,15,16
 324 150 324 150 379 150 c 0,17,18
 448 150 448 150 545 228 c 1,19,-1
 645 1184 l 1,20,-1
 857 1184 l 1,21,-1
 733 0 l 1,22,-1
 521 0 l 1,23,-1
 534 118 l 1,24,25
 379 -17 379 -17 230 -17 c 0,0,1
EndSplineSet
EndChar

StartChar: v
Encoding: 118 118 89
Width: 785
GlyphClass: 2
Flags: W
LayerCount: 2
UndoRedoHistory
Layer: 1
Undoes
EndUndoes
Redoes
EndRedoes
EndUndoRedoHistory
Fore
SplineSet
219 0 m 1,0,-1
 107 1184 l 1,1,-1
 320 1184 l 1,2,-1
 371 225 l 1,3,-1
 622 1184 l 1,4,-1
 828 1184 l 1,5,-1
 478 0 l 1,6,-1
 219 0 l 1,0,-1
EndSplineSet
EndChar

StartChar: w
Encoding: 119 119 90
Width: 1201
GlyphClass: 2
Flags: W
LayerCount: 2
UndoRedoHistory
Layer: 1
Undoes
EndUndoes
Redoes
EndRedoes
EndUndoRedoHistory
Fore
SplineSet
200 0 m 1,0,-1
 134 1184 l 1,1,-1
 309 1184 l 1,2,-1
 342 300 l 1,3,-1
 595 1184 l 1,4,-1
 758 1184 l 1,5,-1
 826 303 l 1,6,-1
 1044 1184 l 1,7,-1
 1218 1184 l 1,8,-1
 899 0 l 1,9,-1
 718 0 l 1,10,-1
 644 848 l 1,11,-1
 393 0 l 1,12,-1
 200 0 l 1,0,-1
EndSplineSet
EndChar

StartChar: x
Encoding: 120 120 91
Width: 794
GlyphClass: 2
Flags: W
LayerCount: 2
UndoRedoHistory
Layer: 1
Undoes
EndUndoes
Redoes
EndRedoes
EndUndoRedoHistory
Fore
SplineSet
-28 0 m 1,0,-1
 303 622 l 1,1,-1
 101 1184 l 1,2,-1
 306 1184 l 1,3,-1
 442 803 l 1,4,-1
 639 1184 l 1,5,-1
 848 1184 l 1,6,-1
 516 596 l 1,7,-1
 729 0 l 1,8,-1
 527 0 l 1,9,-1
 380 408 l 1,10,-1
 172 0 l 1,11,-1
 -28 0 l 1,0,-1
EndSplineSet
EndChar

StartChar: y
Encoding: 121 121 92
Width: 799
GlyphClass: 2
Flags: W
LayerCount: 2
UndoRedoHistory
Layer: 1
Undoes
EndUndoes
Redoes
EndRedoes
EndUndoRedoHistory
Fore
SplineSet
12 -296 m 1,0,-1
 29 -135 l 1,1,2
 105 -135 105 -135 149.5 -129 c 128,-1,3
 194 -123 194 -123 219.5 -105.5 c 128,-1,4
 245 -88 245 -88 252 -62 c 0,5,6
 256 -47 256 -47 256 -24 c 0,7,8
 256 -8 256 -8 254 10 c 0,9,10
 245 87 245 87 234 173 c 2,11,-1
 101 1184 l 1,12,-1
 316 1184 l 1,13,-1
 386 287 l 1,14,-1
 638 1184 l 1,15,-1
 853 1184 l 1,16,-1
 438 -67 l 2,17,18
 396 -192 396 -192 300.5 -244 c 128,-1,19
 205 -296 205 -296 40 -296 c 2,20,-1
 12 -296 l 1,0,-1
EndSplineSet
EndChar

StartChar: z
Encoding: 122 122 93
Width: 707
GlyphClass: 2
Flags: W
LayerCount: 2
UndoRedoHistory
Layer: 1
Undoes
EndUndoes
Redoes
EndRedoes
EndUndoRedoHistory
Fore
SplineSet
17 0 m 1,0,-1
 32 143 l 1,1,-1
 492 1025 l 1,2,-1
 162 1025 l 1,3,-1
 178 1184 l 1,4,-1
 735 1184 l 1,5,-1
 723 1068 l 1,6,-1
 261 160 l 1,7,-1
 620 160 l 1,8,-1
 603 0 l 1,9,-1
 17 0 l 1,0,-1
EndSplineSet
EndChar

StartChar: braceleft
Encoding: 123 123 94
Width: 606
GlyphClass: 2
Flags: W
LayerCount: 2
UndoRedoHistory
Layer: 1
Undoes
EndUndoes
Redoes
EndRedoes
EndUndoRedoHistory
Fore
SplineSet
470 -387 m 1,0,1
 403 -387 403 -387 357.5 -385 c 128,-1,2
 312 -383 312 -383 273 -373.5 c 128,-1,3
 234 -364 234 -364 211 -353 c 128,-1,4
 188 -342 188 -342 171 -316.5 c 128,-1,5
 154 -291 154 -291 147.5 -265.5 c 128,-1,6
 141 -240 141 -240 140 -192 c 0,7,8
 140 -181 140 -181 140 -171 c 0,9,10
 140 -134 140 -134 142 -97 c 0,11,12
 146 -50 146 -50 154 26 c 2,13,-1
 184 312 l 2,14,15
 190 382 190 382 192 425 c 0,16,17
 192 438 192 438 193 450 c 0,18,19
 192 478 192 478 190 500 c 0,20,21
 186 532 186 532 173.5 545.5 c 128,-1,22
 161 559 161 559 142.5 565 c 128,-1,23
 124 571 124 571 92 571 c 1,24,-1
 108 719 l 1,25,26
 161 719 161 719 186.5 738 c 128,-1,27
 212 757 212 757 227 809.5 c 128,-1,28
 242 862 242 862 254 978 c 2,29,-1
 284 1261 l 2,30,31
 292 1337 292 1337 298 1384 c 128,-1,32
 304 1431 304 1431 315.5 1479 c 128,-1,33
 327 1527 327 1527 339 1552.5 c 128,-1,34
 351 1578 351 1578 373.5 1603.5 c 128,-1,35
 396 1629 396 1629 421 1640 c 128,-1,36
 446 1651 446 1651 487 1660.5 c 128,-1,37
 528 1670 528 1670 574 1672 c 128,-1,38
 620 1674 620 1674 687 1674 c 1,39,-1
 671 1517 l 1,40,41
 571 1517 571 1517 548.5 1479 c 128,-1,42
 526 1441 526 1441 507 1261 c 2,43,-1
 473 946 l 2,44,45
 458 800 458 800 416.5 730.5 c 128,-1,46
 375 661 375 661 307 645 c 1,47,48
 372 628 372 628 399 559 c 0,49,50
 416 516 416 516 416 442 c 0,51,52
 416 398 416 398 410 344 c 2,53,-1
 377 26 l 1,54,55
 363 -62 363 -62 363 -116 c 0,56,57
 363 -132 363 -132 364 -144 c 0,58,59
 369 -200 369 -200 392 -214.5 c 128,-1,60
 415 -229 415 -229 487 -229 c 1,61,-1
 470 -387 l 1,0,1
EndSplineSet
EndChar

StartChar: bar
Encoding: 124 124 95
Width: 485
GlyphClass: 2
Flags: W
LayerCount: 2
UndoRedoHistory
Layer: 1
Undoes
EndUndoes
Redoes
EndRedoes
EndUndoRedoHistory
Fore
SplineSet
63 -303 m 1,0,-1
 270 1659 l 1,1,-1
 467 1659 l 1,2,-1
 260 -303 l 1,3,-1
 63 -303 l 1,0,-1
EndSplineSet
EndChar

StartChar: braceright
Encoding: 125 125 96
Width: 648
GlyphClass: 2
Flags: W
LayerCount: 2
UndoRedoHistory
Layer: 1
Undoes
EndUndoes
Redoes
EndRedoes
EndUndoRedoHistory
Fore
SplineSet
-3 -387 m 1,0,-1
 14 -229 l 1,1,2
 96 -229 96 -229 122 -208 c 0,3,4
 151 -184 151 -184 164 -95 c 0,5,6
 168 -64 168 -64 178 26 c 2,7,-1
 211 344 l 2,8,9
 227 490 227 490 269 559 c 128,-1,10
 311 628 311 628 379 645 c 1,11,12
 314 660 314 660 286 730 c 0,13,14
 268 775 268 775 269 852 c 0,15,16
 269 894 269 894 274 946 c 2,17,-1
 308 1261 l 1,18,19
 320 1377 320 1377 320 1428 c 0,20,21
 320 1447 320 1447 318 1457 c 0,22,23
 311 1500 311 1500 273 1511 c 0,24,25
 250 1517 250 1517 198 1517 c 1,26,-1
 214 1674 l 1,27,28
 268 1674 268 1674 306.5 1672.5 c 128,-1,29
 345 1671 345 1671 380.5 1665.5 c 128,-1,30
 416 1660 416 1660 439.5 1654 c 128,-1,31
 463 1648 463 1648 483 1633.5 c 128,-1,32
 503 1619 503 1619 514 1605 c 128,-1,33
 525 1591 525 1591 533 1564 c 0,34,35
 542 1538 542 1538 544 1512 c 0,36,37
 546 1494 546 1494 545 1466 c 0,38,39
 545 1456 545 1456 545 1444 c 0,40,41
 544 1402 544 1402 540.5 1362 c 128,-1,42
 537 1322 537 1322 531 1261 c 2,43,-1
 501 978 l 1,44,45
 490 900 490 900 490 849 c 0,46,47
 490 828 490 828 492 812 c 0,48,49
 498 754 498 754 519 736.5 c 128,-1,50
 540 719 540 719 593 719 c 1,51,-1
 577 571 l 1,52,53
 524 571 524 571 498.5 552 c 128,-1,54
 473 533 473 533 458 480.5 c 128,-1,55
 443 428 443 428 431 312 c 2,56,-1
 401 26 l 2,57,58
 394 -35 394 -35 389 -74.5 c 128,-1,59
 384 -114 384 -114 376 -156.5 c 128,-1,60
 368 -199 368 -199 360.5 -224.5 c 128,-1,61
 353 -250 353 -250 339.5 -277 c 128,-1,62
 326 -304 326 -304 311.5 -318 c 128,-1,63
 297 -332 297 -332 274 -346.5 c 128,-1,64
 251 -361 251 -361 226.5 -367 c 128,-1,65
 202 -373 202 -373 165.5 -378.5 c 128,-1,66
 129 -384 129 -384 90 -385.5 c 128,-1,67
 51 -387 51 -387 -3 -387 c 1,0,-1
EndSplineSet
EndChar

StartChar: asciitilde
Encoding: 126 126 97
Width: 907
GlyphClass: 2
Flags: W
LayerCount: 2
UndoRedoHistory
Layer: 1
Undoes
EndUndoes
Redoes
EndRedoes
EndUndoRedoHistory
Fore
SplineSet
631 745 m 0,0,1
 589 745 589 745 534 774.5 c 128,-1,2
 479 804 479 804 427 833.5 c 128,-1,3
 375 863 375 863 339 863 c 0,4,5
 285 863 285 863 182 784 c 1,6,-1
 117 886 l 1,7,8
 176 940 176 940 250 986.5 c 128,-1,9
 324 1033 324 1033 372 1033 c 0,10,11
 414 1033 414 1033 468 1004 c 128,-1,12
 522 975 522 975 574 946 c 128,-1,13
 626 917 626 917 662 917 c 0,14,15
 681 917 681 917 708.5 930 c 128,-1,16
 736 943 736 943 754.5 956 c 128,-1,17
 773 969 773 969 814 998 c 1,18,-1
 881 900 l 1,19,20
 823 841 823 841 752.5 793 c 128,-1,21
 682 745 682 745 631 745 c 0,0,1
EndSplineSet
EndChar

StartChar: exclamdown
Encoding: 161 161 99
Width: 424
GlyphClass: 2
Flags: W
LayerCount: 2
UndoRedoHistory
Layer: 1
Undoes
EndUndoes
Redoes
EndRedoes
EndUndoRedoHistory
Fore
SplineSet
17 -367 m 1,0,-1
 225 936 l 1,1,-1
 300 936 l 1,2,-1
 232 -367 l 1,3,-1
 17 -367 l 1,0,-1
169 1070 m 1,4,-1
 192 1291 l 1,5,-1
 407 1291 l 1,6,-1
 383 1070 l 1,7,-1
 169 1070 l 1,4,-1
EndSplineSet
EndChar

StartChar: cent
Encoding: 162 162 100
Width: 793
GlyphClass: 2
Flags: W
LayerCount: 2
UndoRedoHistory
Layer: 1
Undoes
EndUndoes
Redoes
EndRedoes
EndUndoRedoHistory
Fore
SplineSet
298 -166 m 1,0,-1
 315 -14 l 1,1,2
 231 -4 231 -4 179 34.5 c 128,-1,3
 127 73 127 73 105.5 133 c 0,4,5
 84 192 84 192 80 274 c 0,6,7
 79 294 79 294 79 316 c 0,8,9
 79 380 79 380 88 453 c 1,10,-1
 117 728 l 2,11,12
 126 816 126 816 140 881 c 128,-1,13
 154 946 154 946 178.5 1004 c 128,-1,14
 203 1062 203 1062 238 1100.5 c 128,-1,15
 273 1139 273 1139 324.5 1164 c 128,-1,16
 376 1189 376 1189 444 1197 c 1,17,-1
 459 1347 l 1,18,-1
 529 1347 l 1,19,-1
 513 1200 l 1,20,21
 607 1199 607 1199 667 1175 c 128,-1,22
 727 1151 727 1151 756.5 1103.5 c 128,-1,23
 786 1056 786 1056 794 987 c 0,24,25
 797 958 797 958 797 925 c 0,26,27
 797 880 797 880 791 827 c 2,28,-1
 783 758 l 1,29,-1
 591 758 l 1,30,-1
 599 828 l 2,31,32
 604 873 604 873 604 908 c 0,33,34
 604 966 604 966 590 996 c 0,35,36
 568 1044 568 1044 496 1044 c 0,37,38
 414 1044 414 1044 382 987 c 128,-1,39
 350 930 350 930 334 771 c 2,40,-1
 295 401 l 2,41,42
 288 337 288 337 288 291 c 0,43,44
 288 226 288 226 302 194 c 0,45,46
 324 140 324 140 402 140 c 0,47,48
 435 140 435 140 459 150.5 c 128,-1,49
 483 161 483 161 498 177.5 c 128,-1,50
 513 194 513 194 523.5 223.5 c 128,-1,51
 534 253 534 253 539 281.5 c 128,-1,52
 544 310 544 310 549 354 c 2,53,-1
 559 446 l 1,54,-1
 751 446 l 1,55,-1
 743 367 l 2,56,57
 733 272 733 272 711 205 c 128,-1,58
 689 138 689 138 648 86 c 128,-1,59
 607 34 607 34 541.5 8.5 c 128,-1,60
 476 -17 476 -17 383 -17 c 1,61,-1
 367 -166 l 1,62,-1
 298 -166 l 1,0,-1
EndSplineSet
EndChar

StartChar: sterling
Encoding: 163 163 101
Width: 811
GlyphClass: 2
Flags: W
LayerCount: 2
UndoRedoHistory
Layer: 1
Undoes
EndUndoes
Redoes
EndRedoes
EndUndoRedoHistory
Fore
SplineSet
-43 0 m 1,0,-1
 -32 106 l 1,1,-1
 94 158 l 1,2,-1
 154 729 l 1,3,-1
 34 729 l 1,4,-1
 50 887 l 1,5,-1
 170 887 l 1,6,-1
 191 1081 l 2,7,8
 199 1157 199 1157 208 1215 c 128,-1,9
 217 1273 217 1273 232.5 1338 c 128,-1,10
 248 1403 248 1403 267.5 1450 c 128,-1,11
 287 1497 287 1497 318 1541.5 c 128,-1,12
 349 1586 349 1586 387.5 1614 c 128,-1,13
 426 1642 426 1642 479.5 1658.5 c 128,-1,14
 533 1675 533 1675 598 1675 c 0,15,16
 851 1675 851 1675 851 1391 c 0,17,18
 851 1358 851 1358 848 1321 c 1,19,-1
 841 1255 l 1,20,-1
 682 1255 l 1,21,22
 687 1320 687 1320 687 1375 c 128,-1,23
 687 1430 687 1430 660.5 1466 c 128,-1,24
 634 1502 634 1502 580 1502 c 0,25,26
 545 1502 545 1502 518.5 1485 c 128,-1,27
 492 1468 492 1468 476 1443.5 c 128,-1,28
 460 1419 460 1419 448 1378.5 c 128,-1,29
 436 1338 436 1338 430 1305 c 128,-1,30
 424 1272 424 1272 418 1223 c 2,31,-1
 383 887 l 1,32,-1
 630 887 l 1,33,-1
 614 729 l 1,34,-1
 367 729 l 1,35,-1
 307 159 l 1,36,-1
 725 159 l 1,37,-1
 708 0 l 1,38,-1
 -43 0 l 1,0,-1
EndSplineSet
EndChar

StartChar: currency
Encoding: 164 164 102
Width: 1121
GlyphClass: 2
Flags: W
LayerCount: 2
UndoRedoHistory
Layer: 1
Undoes
EndUndoes
Redoes
EndRedoes
EndUndoRedoHistory
Fore
SplineSet
97 381 m 1,0,-1
 70 411 l 1,1,-1
 250 573 l 1,2,3
 167 678 167 678 167 815 c 0,4,5
 167 840 167 840 170 866 c 0,6,7
 188 1035 188 1035 312 1159 c 1,8,-1
 166 1321 l 1,9,-1
 199 1351 l 1,10,-1
 344 1189 l 1,11,12
 479 1304 479 1304 646 1304 c 0,13,14
 647 1304 647 1304 648.5 1304 c 129,-1,15
 650 1304 650 1304 652 1304 c 0,16,17
 821 1304 821 1304 930 1189 c 1,18,-1
 1109 1351 l 1,19,-1
 1136 1321 l 1,20,-1
 957 1159 l 1,21,22
 1039 1054 1039 1054 1039 918 c 0,23,24
 1039 893 1039 893 1036 866 c 0,25,26
 1018 697 1018 697 894 573 c 1,27,-1
 1040 411 l 1,28,-1
 1007 381 l 1,29,-1
 862 543 l 1,30,31
 729 428 729 428 560 428 c 0,32,33
 559 428 559 428 557.5 428 c 129,-1,34
 556 428 556 428 554 428 c 0,35,36
 387 428 387 428 276 543 c 1,37,-1
 97 381 l 1,0,-1
567 514 m 0,38,39
 711 514 711 514 820 617 c 128,-1,40
 929 720 929 720 945 866 c 1,41,42
 947 887 947 887 947 908 c 0,43,44
 947 1028 947 1028 872 1116 c 0,45,46
 784 1218 784 1218 640 1218 c 128,-1,47
 496 1218 496 1218 387 1115 c 128,-1,48
 278 1012 278 1012 263 866 c 0,49,50
 261 845 261 845 261 824 c 0,51,52
 262 705 262 705 336 617 c 0,53,54
 424 514 424 514 567 514 c 0,38,39
EndSplineSet
EndChar

StartChar: yen
Encoding: 165 165 103
Width: 931
GlyphClass: 2
Flags: W
LayerCount: 2
UndoRedoHistory
Layer: 1
Undoes
EndUndoes
Redoes
EndRedoes
EndUndoRedoHistory
Fore
SplineSet
330 0 m 1,0,-1
 355 234 l 1,1,-1
 170 234 l 1,2,-1
 185 373 l 1,3,-1
 369 373 l 1,4,-1
 384 511 l 1,5,-1
 200 511 l 1,6,-1
 214 649 l 1,7,-1
 376 649 l 1,8,-1
 144 1658 l 1,9,-1
 353 1658 l 1,10,-1
 526 847 l 1,11,-1
 864 1658 l 1,12,-1
 1076 1658 l 1,13,-1
 635 649 l 1,14,-1
 796 649 l 1,15,-1
 781 511 l 1,16,-1
 598 511 l 1,17,-1
 583 373 l 1,18,-1
 766 373 l 1,19,-1
 752 234 l 1,20,-1
 569 234 l 1,21,-1
 544 0 l 1,22,-1
 330 0 l 1,0,-1
EndSplineSet
EndChar

StartChar: brokenbar
Encoding: 166 166 104
Width: 433
GlyphClass: 2
Flags: W
LayerCount: 2
UndoRedoHistory
Layer: 1
Undoes
EndUndoes
Redoes
EndRedoes
EndUndoRedoHistory
Fore
SplineSet
49 -318 m 1,0,-1
 138 521 l 1,1,-1
 308 521 l 1,2,-1
 220 -318 l 1,3,-1
 49 -318 l 1,0,-1
169 819 m 1,4,-1
 256 1658 l 1,5,-1
 427 1658 l 1,6,-1
 340 819 l 1,7,-1
 169 819 l 1,4,-1
EndSplineSet
EndChar

StartChar: section
Encoding: 167 167 105
Width: 868
GlyphClass: 2
Flags: W
LayerCount: 2
UndoRedoHistory
Layer: 1
Undoes
EndUndoes
Redoes
EndRedoes
EndUndoRedoHistory
Fore
SplineSet
385 -17 m 0,0,1
 311 -17 311 -17 253.5 8 c 128,-1,2
 196 33 196 33 159.5 78 c 128,-1,3
 123 123 123 123 101.5 177 c 128,-1,4
 80 231 80 231 71 297 c 1,5,-1
 237 350 l 1,6,7
 255 270 255 270 295 214 c 128,-1,8
 335 158 335 158 405 158 c 0,9,10
 467 158 467 158 508 189 c 128,-1,11
 549 220 549 220 560 280 c 0,12,13
 563 297 563 297 563 313 c 0,14,15
 562 342 562 342 552 368 c 0,16,17
 536 408 536 408 485 453 c 1,18,-1
 268 609 l 1,19,20
 192 660 192 660 156 722 c 0,21,22
 127 770 127 770 128 837 c 0,23,24
 128 855 128 855 130 875 c 0,25,26
 140 974 140 974 193.5 1042 c 128,-1,27
 247 1110 247 1110 332 1144 c 1,28,29
 192 1241 192 1241 192 1373 c 0,30,31
 192 1386 192 1386 193 1399 c 0,32,33
 206 1527 206 1527 307 1600.5 c 128,-1,34
 408 1674 408 1674 562 1674 c 0,35,36
 636 1674 636 1674 693 1649 c 128,-1,37
 750 1624 750 1624 786 1580 c 128,-1,38
 822 1536 822 1536 843 1483.5 c 128,-1,39
 864 1431 864 1431 873 1367 c 1,40,-1
 707 1313 l 1,41,42
 698 1349 698 1349 687.5 1376.5 c 128,-1,43
 677 1404 677 1404 658 1435 c 128,-1,44
 639 1466 639 1466 610 1483 c 128,-1,45
 581 1500 581 1500 544 1500 c 0,46,47
 484 1500 484 1500 446.5 1467 c 128,-1,48
 409 1434 409 1434 403 1373 c 1,49,50
 402 1366 402 1366 402 1360 c 0,51,52
 402 1303 402 1303 464 1253 c 1,53,-1
 708 1081 l 1,54,55
 825 995 825 995 825 847 c 0,56,57
 825 823 825 823 822 797 c 0,58,59
 802 625 802 625 645 541 c 1,60,61
 684 504 684 504 708 473 c 128,-1,62
 732 442 732 442 750 392 c 0,63,64
 763 355 763 355 763 316 c 0,65,66
 763 303 763 303 761 289 c 0,67,68
 746 142 746 142 643.5 62.5 c 128,-1,69
 541 -17 541 -17 385 -17 c 0,0,1
514 658 m 1,70,71
 556 676 556 676 590.5 713 c 128,-1,72
 625 750 625 750 631 797 c 0,73,74
 633 808 633 808 633 819 c 0,75,76
 634 848 634 848 622 878 c 0,77,78
 606 918 606 918 568 948 c 2,79,-1
 459 1032 l 1,80,81
 415 1011 415 1011 381 969 c 128,-1,82
 347 927 347 927 341 876 c 0,83,84
 340 869 340 869 340 861 c 0,85,86
 340 836 340 836 351 812 c 0,87,88
 365 781 365 781 389 762 c 2,89,-1
 514 658 l 1,70,71
EndSplineSet
EndChar

StartChar: dieresis
Encoding: 168 168 106
Width: 816
GlyphClass: 2
Flags: W
LayerCount: 2
UndoRedoHistory
Layer: 1
Undoes
EndUndoes
Redoes
EndRedoes
EndUndoRedoHistory
Fore
SplineSet
226 1437 m 1,0,-1
 250 1658 l 1,1,-1
 463 1658 l 1,2,-1
 440 1437 l 1,3,-1
 226 1437 l 1,0,-1
576 1437 m 1,4,-1
 599 1658 l 1,5,-1
 814 1658 l 1,6,-1
 790 1437 l 1,7,-1
 576 1437 l 1,4,-1
EndSplineSet
EndChar

StartChar: copyright
Encoding: 169 169 107
Width: 1765
GlyphClass: 2
Flags: W
LayerCount: 2
UndoRedoHistory
Layer: 1
Undoes
EndUndoes
Redoes
EndRedoes
EndUndoRedoHistory
Fore
SplineSet
860 253 m 0,0,1
 743 253 743 253 669 288.5 c 128,-1,2
 595 324 595 324 564.5 388 c 128,-1,3
 534 452 534 452 526 543 c 0,4,5
 523 575 523 575 523 609 c 0,6,7
 523 673 523 673 533 745 c 1,8,-1
 556 966 l 2,9,10
 567 1066 567 1066 584 1139 c 128,-1,11
 601 1212 601 1212 632.5 1275.5 c 128,-1,12
 664 1339 664 1339 710 1377.5 c 128,-1,13
 756 1416 756 1416 825 1438 c 128,-1,14
 894 1460 894 1460 987 1460 c 0,15,16
 1093 1460 1093 1460 1160.5 1435.5 c 128,-1,17
 1228 1411 1228 1411 1261.5 1362 c 0,18,19
 1295 1312 1295 1312 1304 1240 c 0,20,21
 1308 1207 1308 1207 1308 1170 c 0,22,23
 1308 1124 1308 1124 1302 1072 c 2,24,-1
 1296 1016 l 1,25,-1
 1089 1016 l 1,26,-1
 1095 1073 l 2,27,28
 1099 1114 1099 1114 1099 1148 c 0,29,30
 1100 1216 1100 1216 1082 1248 c 0,31,32
 1056 1297 1056 1297 974 1297 c 0,33,34
 882 1297 882 1297 844 1236 c 128,-1,35
 806 1175 806 1175 789 1011 c 2,36,-1
 755 691 l 2,37,38
 749 631 749 631 749 586 c 0,39,40
 748 510 748 510 766 474 c 0,41,42
 794 417 794 417 883 417 c 0,43,44
 970 417 970 417 1003.5 470.5 c 128,-1,45
 1037 524 1037 524 1049 639 c 2,46,-1
 1056 704 l 1,47,-1
 1263 704 l 1,48,-1
 1258 653 l 2,49,50
 1248 553 1248 553 1224.5 483 c 128,-1,51
 1201 413 1201 413 1156 359 c 128,-1,52
 1111 305 1111 305 1037.5 279 c 128,-1,53
 964 253 964 253 860 253 c 0,0,1
846 65 m 0,54,55
 992 65 992 65 1118 108.5 c 128,-1,56
 1244 152 1244 152 1335 226.5 c 128,-1,57
 1426 301 1426 301 1494.5 401.5 c 128,-1,58
 1563 502 1563 502 1601.5 613 c 128,-1,59
 1640 724 1640 724 1653 844 c 0,60,61
 1658 897 1658 897 1658 949 c 0,62,63
 1658 1013 1658 1013 1650 1075 c 0,64,65
 1635 1186 1635 1186 1588 1285.5 c 128,-1,66
 1541 1385 1541 1385 1465.5 1459 c 128,-1,67
 1390 1533 1390 1533 1273 1576 c 128,-1,68
 1156 1619 1156 1619 1010 1619 c 0,69,70
 863 1619 863 1619 737 1576 c 128,-1,71
 611 1533 611 1533 519.5 1459 c 128,-1,72
 428 1385 428 1385 360 1285.5 c 128,-1,73
 292 1186 292 1186 254 1075 c 128,-1,74
 216 964 216 964 204 844 c 0,75,76
 198 787 198 787 198 733 c 0,77,78
 198 672 198 672 206 613 c 0,79,80
 220 502 220 502 267 401.5 c 128,-1,81
 314 301 314 301 389.5 226.5 c 128,-1,82
 465 152 465 152 582 108.5 c 128,-1,83
 699 65 699 65 846 65 c 0,54,55
832 -22 m 0,84,85
 725 -22 725 -22 631 -2 c 128,-1,86
 537 18 537 18 464.5 54.5 c 128,-1,87
 392 91 392 91 331.5 142 c 128,-1,88
 271 193 271 193 230 254.5 c 128,-1,89
 189 316 189 316 158 386.5 c 128,-1,90
 127 457 127 457 113.5 532.5 c 128,-1,91
 100 608 100 608 94 686 c 0,92,93
 92 712 92 712 93 739 c 0,94,95
 93 791 93 791 100 843 c 1,96,97
 113 972 113 972 154.5 1093.5 c 128,-1,98
 196 1215 196 1215 272.5 1327.5 c 128,-1,99
 349 1440 349 1440 451.5 1524 c 128,-1,100
 554 1608 554 1608 699 1658 c 128,-1,101
 844 1708 844 1708 1014 1708 c 0,102,103
 1183 1708 1183 1708 1317.5 1658 c 128,-1,104
 1452 1608 1452 1608 1536.5 1524 c 128,-1,105
 1621 1440 1621 1440 1673.5 1327.5 c 0,106,107
 1726 1216 1726 1216 1742 1094 c 0,108,109
 1751 1027 1751 1027 1751 957 c 0,110,111
 1751 901 1751 901 1745 843 c 0,112,113
 1731 714 1731 714 1690 592.5 c 128,-1,114
 1649 471 1649 471 1573 358.5 c 128,-1,115
 1497 246 1497 246 1394.5 162 c 128,-1,116
 1292 78 1292 78 1147 28 c 128,-1,117
 1002 -22 1002 -22 832 -22 c 0,84,85
EndSplineSet
EndChar

StartChar: ordfeminine
Encoding: 170 170 108
Width: 901
GlyphClass: 2
Flags: W
LayerCount: 2
UndoRedoHistory
Layer: 1
Undoes
EndUndoes
Redoes
EndRedoes
EndUndoRedoHistory
Fore
SplineSet
385 661 m 0,0,1
 294 660 294 660 242 724 c 0,2,3
 199 776 199 776 199 853 c 0,4,5
 199 869 199 869 201 886 c 0,6,7
 208 948 208 948 235.5 997.5 c 128,-1,8
 263 1047 263 1047 293.5 1078 c 128,-1,9
 324 1109 324 1109 386.5 1140.5 c 128,-1,10
 449 1172 449 1172 487 1186 c 128,-1,11
 525 1200 525 1200 607 1228 c 0,12,13
 616 1231 616 1231 621 1232.5 c 128,-1,14
 626 1234 626 1234 634 1237 c 128,-1,15
 642 1240 642 1240 648 1242 c 1,16,-1
 659 1348 l 1,17,18
 662 1383 662 1383 662 1413 c 0,19,20
 662 1428 662 1428 661 1442 c 0,21,22
 659 1482 659 1482 640.5 1506 c 128,-1,23
 622 1530 622 1530 586 1530 c 0,24,25
 476 1530 476 1530 457 1350 c 1,26,-1
 283 1350 l 1,27,28
 302 1503 302 1503 386 1593 c 128,-1,29
 470 1683 470 1683 604 1683 c 0,30,31
 713 1683 713 1683 770.5 1637 c 0,32,33
 828 1592 828 1592 840 1504 c 0,34,35
 846 1462 846 1462 846 1411 c 0,36,37
 846 1356 846 1356 839 1290 c 2,38,-1
 774 674 l 1,39,-1
 604 674 l 1,40,-1
 616 803 l 1,41,42
 579 741 579 741 517 701 c 128,-1,43
 455 661 455 661 385 661 c 0,0,1
470 823 m 0,44,45
 512 823 512 823 551 851.5 c 128,-1,46
 590 880 590 880 614 921 c 1,47,-1
 639 1158 l 1,48,49
 596 1136 596 1136 577 1126.5 c 128,-1,50
 558 1117 558 1117 523.5 1097 c 128,-1,51
 489 1077 489 1077 472.5 1062 c 128,-1,52
 456 1047 456 1047 436 1026 c 128,-1,53
 416 1005 416 1005 407 981.5 c 128,-1,54
 398 958 398 958 395 930 c 0,55,56
 394 919 394 919 394 908 c 0,57,58
 394 872 394 872 410 851 c 0,59,60
 431 823 431 823 470 823 c 0,44,45
EndSplineSet
EndChar

StartChar: guillemotleft
Encoding: 171 171 109
Width: 926
GlyphClass: 2
Flags: W
LayerCount: 2
UndoRedoHistory
Layer: 1
Undoes
EndUndoes
Redoes
EndRedoes
EndUndoRedoHistory
Fore
SplineSet
360 92 m 1,0,-1
 74 557 l 1,1,-1
 85 660 l 1,2,-1
 469 1125 l 1,3,-1
 441 859 l 1,4,-1
 242 610 l 1,5,-1
 388 358 l 1,6,-1
 360 92 l 1,0,-1
753 92 m 1,7,-1
 465 557 l 1,8,-1
 476 660 l 1,9,-1
 862 1125 l 1,10,-1
 834 859 l 1,11,-1
 634 610 l 1,12,-1
 781 358 l 1,13,-1
 753 92 l 1,7,-1
EndSplineSet
EndChar

StartChar: logicalnot
Encoding: 172 172 110
Width: 788
GlyphClass: 2
Flags: W
LayerCount: 2
UndoRedoHistory
Layer: 1
Undoes
EndUndoes
Redoes
EndRedoes
EndUndoRedoHistory
Fore
SplineSet
628 528 m 1,0,-1
 652 757 l 1,1,-1
 113 757 l 1,2,-1
 130 918 l 1,3,-1
 781 918 l 1,4,-1
 739 528 l 1,5,-1
 628 528 l 1,0,-1
EndSplineSet
EndChar

StartChar: uni00AD
Encoding: 173 173 111
Width: 702
GlyphClass: 2
Flags: W
LayerCount: 2
UndoRedoHistory
Layer: 1
Undoes
EndUndoes
Redoes
EndRedoes
EndUndoRedoHistory
Fore
SplineSet
168 937 m 1,0,-1
 184 1097 l 1,1,-1
 654 1097 l 1,2,-1
 637 937 l 1,3,-1
 168 937 l 1,0,-1
EndSplineSet
EndChar

StartChar: registered
Encoding: 174 174 112
Width: 1816
GlyphClass: 2
Flags: W
LayerCount: 2
UndoRedoHistory
Layer: 1
Undoes
EndUndoes
Redoes
EndRedoes
EndUndoRedoHistory
Fore
SplineSet
581 290 m 1,0,-1
 696 1386 l 1,1,-1
 1019 1386 l 2,2,3
 1329 1386 1329 1386 1329 1126 c 0,4,5
 1329 1099 1329 1099 1326 1070 c 1,6,7
 1306 875 1306 875 1123 805 c 1,8,-1
 1266 290 l 1,9,-1
 1073 290 l 1,10,-1
 949 768 l 1,11,-1
 817 768 l 1,12,-1
 766 290 l 1,13,-1
 581 290 l 1,0,-1
827 870 m 1,14,-1
 905 870 l 2,15,16
 1027 870 1027 870 1076 915 c 128,-1,17
 1125 960 1125 960 1137 1074 c 0,18,19
 1139 1096 1139 1096 1139 1115 c 0,20,21
 1140 1179 1140 1179 1114 1215 c 0,22,23
 1080 1262 1080 1262 989 1262 c 2,24,-1
 868 1262 l 1,25,-1
 827 870 l 1,14,-1
868 74 m 0,26,27
 1009 74 1009 74 1130.5 116.5 c 128,-1,28
 1252 159 1252 159 1340 231 c 128,-1,29
 1428 303 1428 303 1493.5 400.5 c 128,-1,30
 1559 498 1559 498 1596 606 c 128,-1,31
 1633 714 1633 714 1645 830 c 0,32,33
 1651 884 1651 884 1651 935 c 0,34,35
 1651 995 1651 995 1643 1054 c 0,36,37
 1629 1162 1629 1162 1583.5 1259 c 128,-1,38
 1538 1356 1538 1356 1465.5 1427.5 c 128,-1,39
 1393 1499 1393 1499 1280 1541 c 128,-1,40
 1167 1583 1167 1583 1026 1583 c 0,41,42
 884 1583 884 1583 761.5 1541 c 128,-1,43
 639 1499 639 1499 551 1427.5 c 128,-1,44
 463 1356 463 1356 397 1259 c 128,-1,45
 331 1162 331 1162 294.5 1054 c 128,-1,46
 258 946 258 946 246 830 c 0,47,48
 240 776 240 776 240 725 c 0,49,50
 240 665 240 665 248 606 c 0,51,52
 262 498 262 498 307.5 400.5 c 128,-1,53
 353 303 353 303 426 231 c 128,-1,54
 499 159 499 159 612.5 116.5 c 128,-1,55
 726 74 726 74 868 74 c 0,26,27
857 -27 m 128,-1,57
 689 -27 689 -27 555.5 23 c 128,-1,58
 422 73 422 73 338 156 c 128,-1,59
 254 239 254 239 202 350.5 c 128,-1,60
 150 462 150 462 134 582 c 0,61,62
 125 648 125 648 125 717 c 0,63,64
 125 773 125 773 131 830 c 0,65,66
 144 958 144 958 185.5 1078.5 c 128,-1,67
 227 1199 227 1199 302.5 1310.5 c 128,-1,68
 378 1422 378 1422 479.5 1505 c 128,-1,69
 581 1588 581 1588 725 1637.5 c 128,-1,70
 869 1687 869 1687 1038 1687 c 0,71,72
 1144 1687 1144 1687 1237 1667 c 128,-1,73
 1330 1647 1330 1647 1401 1611 c 128,-1,74
 1472 1575 1472 1575 1532 1525 c 128,-1,75
 1592 1475 1592 1475 1632.5 1414 c 128,-1,76
 1673 1353 1673 1353 1704 1283 c 128,-1,77
 1735 1213 1735 1213 1748.5 1138.5 c 128,-1,78
 1762 1064 1762 1064 1767 986 c 0,79,80
 1769 960 1769 960 1769 934 c 0,81,82
 1769 882 1769 882 1762 830 c 1,83,84
 1749 702 1749 702 1708 582 c 128,-1,85
 1667 462 1667 462 1591.5 350.5 c 128,-1,86
 1516 239 1516 239 1414.5 155.5 c 128,-1,87
 1313 72 1313 72 1169 22.5 c 128,-1,56
 1025 -27 1025 -27 857 -27 c 128,-1,57
EndSplineSet
EndChar

StartChar: macron
Encoding: 175 175 113
Width: 623
GlyphClass: 2
Flags: W
LayerCount: 2
UndoRedoHistory
Layer: 1
Undoes
EndUndoes
Redoes
EndRedoes
EndUndoRedoHistory
Fore
SplineSet
244 1529 m 1,0,-1
 257 1658 l 1,1,-1
 649 1658 l 1,2,-1
 635 1529 l 1,3,-1
 244 1529 l 1,0,-1
EndSplineSet
EndChar

StartChar: degree
Encoding: 176 176 114
Width: 919
GlyphClass: 2
Flags: W
LayerCount: 2
UndoRedoHistory
Layer: 1
Undoes
EndUndoes
Redoes
EndRedoes
EndUndoRedoHistory
Fore
SplineSet
530 1136 m 128,-1,1
 613 1136 613 1136 667 1190 c 128,-1,2
 721 1244 721 1244 731 1335 c 0,3,4
 733 1351 733 1351 733 1366 c 0,5,6
 734 1436 734 1436 698 1480 c 0,7,8
 656 1534 656 1534 571 1533 c 0,9,10
 488 1533 488 1533 435 1479.5 c 128,-1,11
 382 1426 382 1426 372 1335 c 0,12,13
 370 1319 370 1319 370 1304 c 0,14,15
 370 1234 370 1234 405 1190 c 0,16,0
 447 1136 447 1136 530 1136 c 128,-1,1
515 995 m 0,17,18
 358 996 358 996 276 1086 c 0,19,20
 208 1162 208 1162 208 1285 c 0,21,22
 208 1309 208 1309 211 1336 c 1,23,24
 228 1495 228 1495 329.5 1584.5 c 128,-1,25
 431 1674 431 1674 586 1674 c 0,26,27
 744 1674 744 1674 826 1584 c 0,28,29
 895 1509 895 1509 895 1386 c 0,30,31
 895 1362 895 1362 892 1336 c 0,32,33
 875 1176 875 1176 773 1085.5 c 128,-1,34
 671 995 671 995 515 995 c 0,17,18
EndSplineSet
EndChar

StartChar: plusminus
Encoding: 177 177 115
Width: 748
GlyphClass: 2
Flags: W
LayerCount: 2
UndoRedoHistory
Layer: 1
Undoes
EndUndoes
Redoes
EndRedoes
EndUndoRedoHistory
Fore
SplineSet
283 359 m 1,0,-1
 302 539 l 1,1,-1
 122 539 l 1,2,-1
 140 701 l 1,3,-1
 320 701 l 1,4,-1
 338 880 l 1,5,-1
 501 880 l 1,6,-1
 483 701 l 1,7,-1
 663 701 l 1,8,-1
 645 539 l 1,9,-1
 465 539 l 1,10,-1
 446 359 l 1,11,-1
 283 359 l 1,0,-1
66 0 m 1,12,-1
 83 163 l 1,13,-1
 606 163 l 1,14,-1
 589 0 l 1,15,-1
 66 0 l 1,12,-1
EndSplineSet
EndChar

StartChar: twosuperior
Encoding: 178 178 116
Width: 828
GlyphClass: 2
Flags: W
LayerCount: 2
UndoRedoHistory
Layer: 1
Undoes
EndUndoes
Redoes
EndRedoes
EndUndoRedoHistory
Fore
SplineSet
178 701 m 1,0,-1
 191 828 l 1,1,-1
 509 1242 l 2,2,3
 516 1251 516 1251 547 1290.5 c 128,-1,4
 578 1330 578 1330 588 1345 c 128,-1,5
 598 1360 598 1360 617.5 1392.5 c 128,-1,6
 637 1425 637 1425 645.5 1453 c 128,-1,7
 654 1481 654 1481 657 1513 c 0,8,9
 659 1529 659 1529 659 1544 c 0,10,11
 658 1596 658 1596 636 1624 c 0,12,13
 610 1658 610 1658 559 1658 c 0,14,15
 554 1658 554 1658 548 1658 c 0,16,17
 479 1654 479 1654 446.5 1605.5 c 128,-1,18
 414 1557 414 1557 401 1441 c 1,19,-1
 253 1441 l 1,20,-1
 257 1479 l 2,21,22
 291 1793 291 1793 568 1793 c 0,23,24
 696 1792 696 1792 762 1720 c 0,25,26
 816 1660 816 1660 815 1561 c 0,27,28
 815 1540 815 1540 813 1516 c 0,29,30
 808 1469 808 1469 793 1426 c 128,-1,31
 778 1383 778 1383 748.5 1334.5 c 128,-1,32
 719 1286 719 1286 697.5 1256.5 c 128,-1,33
 676 1227 676 1227 632 1169 c 2,34,-1
 370 829 l 1,35,-1
 707 829 l 1,36,-1
 694 701 l 1,37,-1
 178 701 l 1,0,-1
EndSplineSet
EndChar

StartChar: threesuperior
Encoding: 179 179 117
Width: 830
GlyphClass: 2
Flags: W
LayerCount: 2
UndoRedoHistory
Layer: 1
Undoes
EndUndoes
Redoes
EndRedoes
EndUndoRedoHistory
Fore
SplineSet
436 685 m 0,0,1
 199 685 199 685 199 923 c 0,2,3
 199 951 199 951 202 982 c 1,4,-1
 205 1008 l 1,5,-1
 362 1008 l 1,6,-1
 359 977 l 2,7,8
 356 953 356 953 356 933 c 0,9,10
 356 884 356 884 372 856 c 0,11,12
 394 818 394 818 455 817 c 0,13,14
 576 817 576 817 595 999 c 0,15,16
 598 1026 598 1026 598 1049 c 0,17,18
 598 1198 598 1198 486 1198 c 2,19,-1
 419 1198 l 1,20,-1
 430 1307 l 1,21,-1
 495 1307 l 2,22,23
 564 1307 564 1307 598 1353.5 c 128,-1,24
 632 1400 632 1400 643 1507 c 1,25,26
 646 1529 646 1529 646 1548 c 0,27,28
 646 1665 646 1665 551 1665 c 0,29,30
 488 1665 488 1665 457.5 1628.5 c 128,-1,31
 427 1592 427 1592 419 1518 c 2,32,-1
 415 1479 l 1,33,-1
 257 1479 l 1,34,-1
 262 1520 l 1,35,36
 275 1650 275 1650 352 1721.5 c 128,-1,37
 429 1793 429 1793 563 1793 c 0,38,39
 692 1793 692 1793 752 1719 c 0,40,41
 802 1658 802 1658 801 1560 c 0,42,43
 801 1539 801 1539 799 1516 c 0,44,45
 788 1408 788 1408 742.5 1341 c 128,-1,46
 697 1274 697 1274 641 1261 c 1,47,48
 752 1217 752 1217 752 1060 c 0,49,50
 752 1033 752 1033 749 1004 c 0,51,52
 734 858 734 858 656 771.5 c 128,-1,53
 578 685 578 685 436 685 c 0,0,1
EndSplineSet
EndChar

StartChar: acute
Encoding: 180 180 118
Width: 559
GlyphClass: 2
Flags: W
LayerCount: 2
UndoRedoHistory
Layer: 1
Undoes
EndUndoes
Redoes
EndRedoes
EndUndoRedoHistory
Fore
SplineSet
196 1254 m 1,0,-1
 359 1658 l 1,1,-1
 571 1658 l 1,2,-1
 303 1254 l 1,3,-1
 196 1254 l 1,0,-1
EndSplineSet
EndChar

StartChar: mu
Encoding: 181 181 119
Width: 900
GlyphClass: 2
Flags: W
LayerCount: 2
UndoRedoHistory
Layer: 1
Undoes
EndUndoes
Redoes
EndRedoes
EndUndoRedoHistory
Fore
SplineSet
19 -359 m 1,0,-1
 179 1184 l 1,1,-1
 391 1184 l 1,2,-1
 297 288 l 2,3,4
 295 267 295 267 295 250 c 0,5,6
 295 208 295 208 307 184 c 0,7,8
 324 150 324 150 379 150 c 0,9,10
 448 150 448 150 545 228 c 1,11,-1
 645 1184 l 1,12,-1
 857 1184 l 1,13,-1
 733 0 l 1,14,-1
 521 0 l 1,15,-1
 534 118 l 1,16,17
 426 20 426 20 311 -5 c 0,18,19
 288 -10 288 -10 269 -5 c 1,20,-1
 233 -359 l 1,21,-1
 19 -359 l 1,0,-1
EndSplineSet
EndChar

StartChar: paragraph
Encoding: 182 182 120
Width: 1006
GlyphClass: 2
Flags: W
LayerCount: 2
UndoRedoHistory
Layer: 1
Undoes
EndUndoes
Redoes
EndRedoes
EndUndoRedoHistory
Fore
SplineSet
338 -195 m 1,0,-1
 470 1058 l 1,1,2
 316 1058 316 1058 230 1136 c 0,3,4
 157 1202 157 1202 157 1315 c 0,5,6
 157 1335 157 1335 159 1356 c 0,7,8
 175 1507 175 1507 280 1582.5 c 128,-1,9
 385 1658 385 1658 564 1658 c 2,10,-1
 1000 1658 l 1,11,-1
 805 -195 l 1,12,-1
 653 -195 l 1,13,-1
 838 1556 l 1,14,-1
 674 1556 l 1,15,-1
 489 -195 l 1,16,-1
 338 -195 l 1,0,-1
EndSplineSet
EndChar

StartChar: periodcentered
Encoding: 183 183 121
Width: 363
GlyphClass: 2
Flags: W
LayerCount: 2
UndoRedoHistory
Layer: 1
Undoes
EndUndoes
Redoes
EndRedoes
EndUndoRedoHistory
Fore
SplineSet
101 661 m 1,0,-1
 124 882 l 1,1,-1
 336 882 l 1,2,-1
 314 661 l 1,3,-1
 101 661 l 1,0,-1
EndSplineSet
EndChar

StartChar: cedilla
Encoding: 184 184 122
Width: 512
GlyphClass: 4
Flags: W
AnchorPoint: "Anchor-1" 120 0 mark 0
LayerCount: 2
UndoRedoHistory
Layer: 1
Undoes
EndUndoes
Redoes
EndRedoes
EndUndoRedoHistory
Fore
SplineSet
-38 -455 m 1,0,-1
 -26 -348 l 1,1,2
 28 -360 28 -360 77 -362 c 0,3,4
 82 -362 82 -362 86 -362 c 0,5,6
 130 -362 130 -362 164 -345 c 0,7,8
 202 -326 202 -326 206 -290 c 0,9,10
 209 -267 209 -267 201 -249 c 128,-1,11
 193 -231 193 -231 181 -220 c 128,-1,12
 169 -209 169 -209 143.5 -198 c 128,-1,13
 118 -187 118 -187 99.5 -181.5 c 128,-1,14
 81 -176 81 -176 48 -168 c 1,15,-1
 66 0 l 1,16,-1
 173 0 l 1,17,-1
 162 -114 l 1,18,19
 250 -128 250 -128 310 -173 c 0,20,21
 366 -215 366 -215 366 -279 c 0,22,23
 366 -283 366 -283 366 -288 c 0,24,25
 362 -349 362 -349 325.5 -392.5 c 128,-1,26
 289 -436 289 -436 233 -454.5 c 128,-1,27
 177 -473 177 -473 106 -475 c 0,28,29
 100 -475 100 -475 94 -475 c 0,30,31
 29 -475 29 -475 -38 -455 c 1,0,-1
EndSplineSet
EndChar

StartChar: onesuperior
Encoding: 185 185 123
Width: 818
GlyphClass: 2
Flags: W
LayerCount: 2
UndoRedoHistory
Layer: 1
Undoes
EndUndoes
Redoes
EndRedoes
EndUndoRedoHistory
Fore
SplineSet
404 701 m 1,0,-1
 499 1609 l 1,1,2
 479 1583 479 1583 414 1556.5 c 128,-1,3
 349 1530 349 1530 307 1520 c 1,4,-1
 319 1640 l 1,5,6
 482 1704 482 1704 543 1781 c 1,7,-1
 675 1781 l 1,8,-1
 562 701 l 1,9,-1
 404 701 l 1,0,-1
EndSplineSet
EndChar

StartChar: ordmasculine
Encoding: 186 186 124
Width: 901
GlyphClass: 2
Flags: W
LayerCount: 2
UndoRedoHistory
Layer: 1
Undoes
EndUndoes
Redoes
EndRedoes
EndUndoRedoHistory
Fore
SplineSet
484 815 m 0,0,1
 521 815 521 815 547.5 828.5 c 128,-1,2
 574 842 574 842 589.5 861.5 c 128,-1,3
 605 881 605 881 616 916.5 c 128,-1,4
 627 952 627 952 631.5 980.5 c 128,-1,5
 636 1009 636 1009 641 1056 c 2,6,-1
 665 1286 l 1,7,8
 670 1352 670 1352 672 1406 c 0,9,10
 672 1409 672 1409 672 1412 c 0,11,12
 672 1462 672 1462 646 1494 c 0,13,14
 619 1528 619 1528 559 1527 c 0,15,16
 523 1527 523 1527 496 1513.5 c 128,-1,17
 469 1500 469 1500 452.5 1480 c 128,-1,18
 436 1460 436 1460 425 1425.5 c 128,-1,19
 414 1391 414 1391 409 1361 c 128,-1,20
 404 1331 404 1331 399 1286 c 2,21,-1
 375 1056 l 2,22,23
 371 1019 371 1019 370 993.5 c 128,-1,24
 369 968 369 968 370 937.5 c 128,-1,25
 371 907 371 907 378 887 c 128,-1,26
 385 867 385 867 397.5 849.5 c 128,-1,27
 410 832 410 832 432 823.5 c 128,-1,28
 454 815 454 815 484 815 c 0,0,1
471 659 m 0,29,30
 302 658 302 658 240 754 c 0,31,32
 193 827 193 827 193 952 c 0,33,34
 193 990 193 990 197 1034 c 2,35,-1
 226 1309 l 2,36,37
 245 1492 245 1492 327 1587.5 c 128,-1,38
 409 1683 409 1683 579 1683 c 0,39,40
 740 1684 740 1684 806 1584 c 0,41,42
 857 1506 857 1506 858 1381 c 0,43,44
 858 1347 858 1347 854 1309 c 1,45,-1
 824 1034 l 1,46,47
 807 859 807 859 720.5 759 c 128,-1,48
 634 659 634 659 471 659 c 0,29,30
EndSplineSet
EndChar

StartChar: guillemotright
Encoding: 187 187 125
Width: 976
GlyphClass: 2
Flags: W
LayerCount: 2
UndoRedoHistory
Layer: 1
Undoes
EndUndoes
Redoes
EndRedoes
EndUndoRedoHistory
Fore
SplineSet
78 92 m 1,0,-1
 106 358 l 1,1,-1
 323 609 l 1,2,-1
 158 859 l 1,3,-1
 186 1125 l 1,4,-1
 491 660 l 1,5,-1
 481 557 l 1,6,-1
 78 92 l 1,0,-1
470 92 m 1,7,-1
 498 358 l 1,8,-1
 714 609 l 1,9,-1
 551 859 l 1,10,-1
 579 1125 l 1,11,-1
 882 660 l 1,12,-1
 872 557 l 1,13,-1
 470 92 l 1,7,-1
EndSplineSet
EndChar

StartChar: onequarter
Encoding: 188 188 126
Width: 1643
GlyphClass: 2
Flags: W
LayerCount: 2
UndoRedoHistory
Layer: 1
Undoes
EndUndoes
Redoes
EndRedoes
EndUndoRedoHistory
Fore
SplineSet
1205 -1 m 1,0,-1
 1232 247 l 1,1,-1
 932 247 l 1,2,-1
 944 357 l 1,3,-1
 1317 921 l 1,4,-1
 1464 922 l 1,5,-1
 1406 357 l 1,6,-1
 1526 357 l 1,7,-1
 1514 247 l 1,8,-1
 1394 247 l 1,9,-1
 1367 -1 l 1,10,-1
 1205 -1 l 1,0,-1
276 785 m 1,11,-1
 341 1394 l 1,12,-1
 214 1379 l 1,13,-1
 227 1491 l 1,14,15
 384 1565 384 1565 471 1658 c 1,16,-1
 529 1658 l 1,17,-1
 437 785 l 1,18,-1
 276 785 l 1,11,-1
356 0 m 1,19,-1
 1073 1658 l 1,20,-1
 1251 1658 l 1,21,-1
 533 0 l 1,22,-1
 356 0 l 1,19,-1
1073 357 m 1,23,-1
 1244 357 l 1,24,-1
 1279 695 l 1,25,-1
 1073 357 l 1,23,-1
EndSplineSet
EndChar

StartChar: onehalf
Encoding: 189 189 127
Width: 1643
GlyphClass: 2
Flags: W
LayerCount: 2
UndoRedoHistory
Layer: 1
Undoes
EndUndoes
Redoes
EndRedoes
EndUndoRedoHistory
Fore
SplineSet
987 2 m 1,0,-1
 999 112 l 1,1,-1
 1218 373 l 2,2,3
 1223 378 1223 378 1253 413 c 128,-1,4
 1283 448 1283 448 1292.5 461 c 128,-1,5
 1302 474 1302 474 1321.5 503.5 c 128,-1,6
 1341 533 1341 533 1350 559.5 c 128,-1,7
 1359 586 1359 586 1362 616 c 0,8,9
 1365 646 1365 646 1365 672 c 0,10,11
 1364 676 1364 676 1364 680 c 0,12,13
 1364 709 1364 709 1349 727 c 128,-1,14
 1334 745 1334 745 1302 745 c 0,15,16
 1277 745 1277 745 1260 735.5 c 128,-1,17
 1243 726 1243 726 1233.5 705.5 c 128,-1,18
 1224 685 1224 685 1220 664.5 c 128,-1,19
 1216 644 1216 644 1213 612 c 1,20,-1
 1052 612 l 1,21,22
 1052 614 1052 614 1052.5 619.5 c 128,-1,23
 1053 625 1053 625 1053 626 c 0,24,25
 1068 736 1068 736 1135 795.5 c 128,-1,26
 1202 855 1202 855 1313 855 c 0,27,28
 1425 854 1425 854 1480 792 c 0,29,30
 1526 740 1526 740 1526 653 c 0,31,32
 1526 636 1526 636 1524 617 c 0,33,34
 1515 533 1515 533 1462 454.5 c 128,-1,35
 1409 376 1409 376 1318 282 c 1,36,37
 1238 202 1238 202 1163 112 c 1,38,-1
 1466 112 l 1,39,-1
 1454 2 l 1,40,-1
 987 2 l 1,0,-1
280 785 m 1,41,-1
 344 1394 l 1,42,-1
 217 1379 l 1,43,-1
 229 1491 l 1,44,45
 388 1564 388 1564 473 1658 c 1,46,-1
 532 1658 l 1,47,-1
 440 785 l 1,48,-1
 280 785 l 1,41,-1
363 0 m 1,49,-1
 1081 1658 l 1,50,-1
 1259 1658 l 1,51,-1
 541 0 l 1,52,-1
 363 0 l 1,49,-1
EndSplineSet
EndChar

StartChar: threequarters
Encoding: 190 190 128
Width: 1643
GlyphClass: 2
Flags: W
LayerCount: 2
UndoRedoHistory
Layer: 1
Undoes
EndUndoes
Redoes
EndRedoes
EndUndoRedoHistory
Fore
SplineSet
364 821 m 0,0,1
 252 821 252 821 198 883 c 0,2,3
 154 934 154 934 154 1020 c 0,4,5
 154 1038 154 1038 156 1056 c 1,6,-1
 318 1055 l 1,7,8
 315 1021 315 1021 315 993.5 c 128,-1,9
 315 966 315 966 330.5 948 c 128,-1,10
 346 930 346 930 377 930 c 0,11,12
 421 930 421 930 439 963.5 c 128,-1,13
 457 997 457 997 464 1063 c 0,14,15
 466 1079 466 1079 466 1093 c 0,16,17
 466 1140 466 1140 447 1164 c 0,18,19
 423 1194 423 1194 357 1195 c 1,20,-1
 368 1305 l 1,21,22
 435 1305 435 1305 464.5 1334 c 128,-1,23
 494 1363 494 1363 502 1437 c 0,24,25
 505 1472 505 1472 505 1500.5 c 128,-1,26
 505 1529 505 1529 490.5 1547 c 128,-1,27
 476 1565 476 1565 446 1565 c 0,28,29
 401 1565 401 1565 383.5 1533.5 c 128,-1,30
 366 1502 366 1502 359 1440 c 1,31,-1
 197 1440 l 1,32,33
 209 1551 209 1551 276 1613 c 128,-1,34
 343 1675 343 1675 457 1675 c 0,35,36
 568 1675 568 1675 622 1612 c 0,37,38
 666 1561 666 1561 666 1476 c 0,39,40
 666 1457 666 1457 664 1437 c 0,41,42
 655 1349 655 1349 603.5 1302 c 128,-1,43
 552 1255 552 1255 474 1250 c 1,44,45
 552 1244 552 1244 594 1198 c 0,46,47
 628 1161 628 1161 628 1094 c 0,48,49
 628 1079 628 1079 626 1063 c 0,50,51
 614 949 614 949 546 885 c 128,-1,52
 478 821 478 821 364 821 c 0,0,1
1260 -1 m 1,53,-1
 1286 247 l 1,54,-1
 986 247 l 1,55,-1
 998 357 l 1,56,-1
 1372 921 l 1,57,-1
 1518 921 l 1,58,-1
 1459 357 l 1,59,-1
 1580 357 l 1,60,-1
 1568 247 l 1,61,-1
 1447 247 l 1,62,-1
 1421 -1 l 1,63,-1
 1260 -1 l 1,53,-1
424 0 m 1,64,-1
 1142 1658 l 1,65,-1
 1320 1658 l 1,66,-1
 602 0 l 1,67,-1
 424 0 l 1,64,-1
1128 357 m 1,68,-1
 1298 357 l 1,69,-1
 1333 695 l 1,70,-1
 1128 357 l 1,68,-1
EndSplineSet
EndChar

StartChar: questiondown
Encoding: 191 191 129
Width: 1031
GlyphClass: 2
Flags: W
LayerCount: 2
UndoRedoHistory
Layer: 1
Undoes
EndUndoes
Redoes
EndRedoes
EndUndoRedoHistory
Fore
SplineSet
450 -396 m 0,0,1
 256 -396 256 -396 158 -284 c 0,2,3
 78 -192 78 -192 78 -38 c 0,4,5
 78 -5 78 -5 82 31 c 0,6,7
 88 87 88 87 103.5 139 c 128,-1,8
 119 191 119 191 139.5 234.5 c 128,-1,9
 160 278 160 278 193.5 324 c 128,-1,10
 227 370 227 370 257.5 405.5 c 128,-1,11
 288 441 288 441 334 485.5 c 128,-1,12
 380 530 380 530 416 562 c 128,-1,13
 452 594 452 594 507 642 c 0,14,15
 527 659 527 659 537 668 c 1,16,-1
 557 869 l 1,17,-1
 746 869 l 1,18,-1
 719 614 l 1,19,20
 628 542 628 542 563 481.5 c 128,-1,21
 498 421 498 421 435 346.5 c 128,-1,22
 372 272 372 272 335 191 c 128,-1,23
 298 110 298 110 289 25 c 0,24,25
 287 6 287 6 287 -11 c 0,26,27
 287 -92 287 -92 329 -146 c 0,28,29
 380 -212 380 -212 472 -211 c 0,30,31
 568 -211 568 -211 620 -154 c 0,32,33
 667 -103 667 -103 668 -23 c 0,34,35
 668 -14 668 -14 667 -4 c 1,36,-1
 664 70 l 1,37,-1
 865 107 l 1,38,-1
 871 37 l 1,39,40
 874 10 874 10 874 -15 c 0,41,42
 874 -176 874 -176 770 -278 c 0,43,44
 650 -396 650 -396 450 -396 c 0,0,1
563 1063 m 1,45,-1
 587 1283 l 1,46,-1
 799 1283 l 1,47,-1
 776 1063 l 1,48,-1
 563 1063 l 1,45,-1
EndSplineSet
EndChar

StartChar: AE
Encoding: 198 198 136
Width: 1299
GlyphClass: 2
Flags: W
LayerCount: 2
UndoRedoHistory
Layer: 1
Undoes
EndUndoes
Redoes
EndRedoes
EndUndoRedoHistory
Fore
SplineSet
-149 0 m 1,0,-1
 720 1658 l 1,1,-1
 1364 1658 l 1,2,-1
 1348 1497 l 1,3,-1
 923 1497 l 1,4,-1
 865 939 l 1,5,-1
 1169 939 l 1,6,-1
 1152 779 l 1,7,-1
 848 779 l 1,8,-1
 783 161 l 1,9,-1
 1207 161 l 1,10,-1
 1190 0 l 1,11,-1
 553 0 l 1,12,-1
 598 422 l 1,13,-1
 285 422 l 1,14,-1
 63 0 l 1,15,-1
 -149 0 l 1,0,-1
362 584 m 1,16,-1
 614 584 l 1,17,-1
 685 1257 l 1,18,-1
 362 584 l 1,16,-1
EndSplineSet
EndChar

StartChar: Eth
Encoding: 208 208 146
Width: 1066
GlyphClass: 2
Flags: W
LayerCount: 2
UndoRedoHistory
Layer: 1
Undoes
EndUndoes
Redoes
EndRedoes
EndUndoRedoHistory
Fore
SplineSet
324 161 m 1,0,-1
 461 161 l 2,1,2
 536 161 536 161 587.5 181.5 c 128,-1,3
 639 202 639 202 669 230 c 128,-1,4
 699 258 699 258 718.5 321 c 128,-1,5
 738 384 738 384 746 433.5 c 128,-1,6
 754 483 754 483 764 581 c 2,7,-1
 822 1128 l 2,8,9
 831 1208 831 1208 831 1270 c 0,10,11
 831 1305 831 1305 828 1335 c 0,12,13
 820 1416 820 1416 766.5 1454 c 128,-1,14
 713 1492 713 1492 596 1492 c 2,15,-1
 463 1492 l 1,16,-1
 404 926 l 1,17,-1
 532 926 l 1,18,-1
 518 797 l 1,19,-1
 390 797 l 1,20,-1
 324 161 l 1,0,-1
82 0 m 1,21,-1
 166 797 l 1,22,-1
 64 797 l 1,23,-1
 78 926 l 1,24,-1
 180 926 l 1,25,-1
 256 1658 l 1,26,-1
 617 1658 l 2,27,28
 753 1658 753 1658 844 1626.5 c 128,-1,29
 935 1595 935 1595 984.5 1530 c 0,30,31
 1034 1466 1034 1466 1049 1374 c 0,32,33
 1057 1327 1057 1327 1057 1269 c 0,34,35
 1057 1216 1057 1216 1050 1154 c 2,36,-1
 986 539 l 2,37,38
 957 268 957 268 834 134 c 128,-1,39
 711 0 711 0 460 0 c 2,40,-1
 82 0 l 1,21,-1
EndSplineSet
EndChar

StartChar: multiply
Encoding: 215 215 153
Width: 778
GlyphClass: 2
Flags: W
LayerCount: 2
UndoRedoHistory
Layer: 1
Undoes
EndUndoes
Redoes
EndRedoes
EndUndoRedoHistory
Fore
SplineSet
211 521 m 1,0,-1
 115 628 l 1,1,-1
 319 812 l 1,2,-1
 154 996 l 1,3,-1
 272 1103 l 1,4,-1
 436 920 l 1,5,-1
 641 1103 l 1,6,-1
 736 996 l 1,7,-1
 532 812 l 1,8,-1
 697 628 l 1,9,-1
 579 521 l 1,10,-1
 414 705 l 1,11,-1
 211 521 l 1,0,-1
EndSplineSet
EndChar

StartChar: Oslash
Encoding: 216 216 154
Width: 1104
GlyphClass: 2
Flags: W
LayerCount: 2
UndoRedoHistory
Layer: 1
Undoes
EndUndoes
Redoes
EndRedoes
EndUndoRedoHistory
Fore
SplineSet
337 259 m 1,0,-1
 790 1469 l 1,1,2
 743 1500 743 1500 660 1500 c 0,3,4
 591 1500 591 1500 543.5 1480 c 128,-1,5
 496 1460 496 1460 468 1417.5 c 128,-1,6
 440 1375 440 1375 425.5 1324 c 128,-1,7
 411 1273 411 1273 403 1197 c 2,8,-1
 327 468 l 2,9,10
 321 415 321 415 321 373 c 0,11,12
 321 301 321 301 337 259 c 1,0,-1
519 158 m 0,13,14
 588 158 588 158 635.5 179 c 128,-1,15
 683 200 683 200 711 244 c 128,-1,16
 739 288 739 288 753.5 340 c 128,-1,17
 768 392 768 392 776 468 c 2,18,-1
 852 1197 l 2,19,20
 858 1249 858 1249 858 1291 c 0,21,22
 858 1354 858 1354 845 1393 c 1,23,-1
 394 187 l 1,24,25
 440 158 440 158 519 158 c 0,13,14
267 -153 m 1,26,-1
 192 -129 l 1,27,-1
 255 39 l 1,28,29
 100 134 100 134 100 401 c 0,30,31
 100 455 100 455 106 517 c 2,32,-1
 173 1151 l 2,33,34
 200 1408 200 1408 318.5 1541.5 c 128,-1,35
 437 1675 437 1675 678 1675 c 0,36,37
 730 1675 730 1675 774.5 1668.5 c 128,-1,38
 819 1662 819 1662 857 1649 c 1,39,-1
 915 1805 l 1,40,-1
 992 1785 l 1,41,-1
 929 1616 l 1,42,43
 1080 1521 1080 1521 1080 1263 c 0,44,45
 1080 1210 1080 1210 1074 1151 c 2,46,-1
 1006 516 l 2,47,48
 993 391 993 391 959 295.5 c 128,-1,49
 925 200 925 200 866 128 c 128,-1,50
 807 56 807 56 715 19 c 128,-1,51
 623 -18 623 -18 500 -18 c 0,52,53
 401 -18 401 -18 327 6 c 1,54,-1
 267 -153 l 1,26,-1
EndSplineSet
EndChar

StartChar: Thorn
Encoding: 222 222 160
Width: 1031
GlyphClass: 2
Flags: W
LayerCount: 2
UndoRedoHistory
Layer: 1
Undoes
EndUndoes
Redoes
EndRedoes
EndUndoRedoHistory
Fore
SplineSet
82 0 m 1,0,-1
 256 1658 l 1,1,-1
 480 1658 l 1,2,-1
 458 1441 l 1,3,-1
 701 1441 l 2,4,5
 902 1440 902 1440 986 1314 c 0,6,7
 1051 1216 1051 1216 1050 1058 c 0,8,9
 1050 1013 1050 1013 1045 962 c 0,10,11
 994 480 994 480 564 480 c 2,12,-1
 357 480 l 1,13,-1
 306 0 l 1,14,-1
 82 0 l 1,0,-1
376 660 m 1,15,-1
 528 660 l 2,16,17
 671 660 671 660 740.5 726 c 128,-1,18
 810 792 810 792 828 963 c 0,19,20
 832 1003 832 1003 832 1037 c 0,21,22
 832 1140 832 1140 796 1190 c 0,23,24
 748 1256 748 1256 616 1256 c 2,25,-1
 439 1256 l 1,26,-1
 376 660 l 1,15,-1
EndSplineSet
EndChar

StartChar: germandbls
Encoding: 223 223 161
Width: 1051
GlyphClass: 2
Flags: W
LayerCount: 2
UndoRedoHistory
Layer: 1
Undoes
EndUndoes
Redoes
EndRedoes
EndUndoRedoHistory
Fore
SplineSet
399 -18 m 1,0,-1
 418 157 l 1,1,2
 503 157 503 157 560.5 178 c 128,-1,3
 618 199 618 199 652 243 c 128,-1,4
 686 287 686 287 703 341.5 c 128,-1,5
 720 396 720 396 728 476 c 0,6,7
 731 503 731 503 731 527 c 0,8,9
 731 629 731 629 687 695 c 0,10,11
 633 776 633 776 504 776 c 1,12,-1
 524 952 l 1,13,14
 578 952 578 952 620 977 c 128,-1,15
 662 1002 662 1002 687.5 1046.5 c 128,-1,16
 713 1091 713 1091 728 1142 c 128,-1,17
 743 1193 743 1193 750 1254 c 0,18,19
 754 1291 754 1291 754 1323 c 0,20,21
 754 1396 754 1396 733 1440 c 0,22,23
 703 1504 703 1504 607 1505 c 0,24,25
 514 1505 514 1505 471.5 1444 c 128,-1,26
 429 1383 429 1383 416 1256 c 2,27,-1
 284 0 l 1,28,-1
 72 0 l 1,29,-1
 204 1252 l 2,30,31
 225 1455 225 1455 326 1567 c 128,-1,32
 427 1679 427 1679 600 1679 c 0,33,34
 798 1679 798 1679 888 1570 c 0,35,36
 961 1482 961 1482 961 1331 c 0,37,38
 961 1294 961 1294 957 1254 c 0,39,40
 942 1111 942 1111 882.5 1021.5 c 128,-1,41
 823 932 823 932 716 880 c 1,42,43
 840 848 840 848 898 740 c 0,44,45
 943 656 943 656 942 543 c 0,46,47
 942 511 942 511 939 477 c 0,48,49
 888 -18 888 -18 399 -18 c 1,0,-1
EndSplineSet
EndChar

StartChar: ae
Encoding: 230 230 168
Width: 1330
GlyphClass: 2
Flags: W
LayerCount: 2
UndoRedoHistory
Layer: 1
Undoes
EndUndoes
Redoes
EndRedoes
EndUndoRedoHistory
Fore
SplineSet
274 -17 m 1,0,1
 173 -10 173 -10 114 70 c 0,2,3
 64 137 64 137 64 224 c 0,4,5
 64 240 64 240 66 257 c 1,6,7
 83 408 83 408 171 494.5 c 128,-1,8
 259 581 259 581 419 624 c 2,9,-1
 585 668 l 1,10,-1
 601 822 l 2,11,12
 605 859 605 859 605 889 c 0,13,14
 604 948 604 948 590 984 c 0,15,16
 568 1038 568 1038 497 1037 c 0,17,18
 365 1037 365 1037 343 840 c 1,19,-1
 132 841 l 1,20,21
 152 1008 152 1008 252.5 1104.5 c 128,-1,22
 353 1201 353 1201 514 1201 c 0,23,24
 602 1201 602 1201 660.5 1161.5 c 128,-1,25
 719 1122 719 1122 731 1050 c 1,26,27
 770 1119 770 1119 836.5 1160 c 128,-1,28
 903 1201 903 1201 986 1201 c 0,29,30
 1146 1201 1146 1201 1218 1107 c 0,31,32
 1277 1031 1277 1031 1276 907 c 0,33,34
 1276 878 1276 878 1273 847 c 0,35,36
 1269 807 1269 807 1254 775 c 128,-1,37
 1239 743 1239 743 1212.5 719.5 c 128,-1,38
 1186 696 1186 696 1159.5 680 c 128,-1,39
 1133 664 1133 664 1091 650.5 c 128,-1,40
 1049 637 1049 637 1019 630 c 128,-1,41
 989 623 989 623 942 613 c 2,42,-1
 789 580 l 1,43,-1
 782 519 l 1,44,45
 770 395 770 395 770 325 c 0,46,47
 770 294 770 294 772 273 c 0,48,49
 787 151 787 151 876 151 c 0,50,51
 942 151 942 151 974.5 205 c 128,-1,52
 1007 259 1007 259 1018 359 c 2,53,-1
 1024 411 l 1,54,-1
 1236 411 l 1,55,-1
 1230 359 l 1,56,57
 1190 -17 1190 -17 857 -17 c 0,58,59
 749 -17 749 -17 685 48 c 128,-1,60
 621 113 621 113 618 224 c 1,61,62
 560 106 560 106 472 40 c 0,63,64
 395 -18 395 -18 300 -18 c 0,65,66
 287 -18 287 -18 274 -17 c 1,0,1
377 149 m 0,67,68
 440 149 440 149 493 222.5 c 128,-1,69
 546 296 546 296 560 433 c 2,70,-1
 572 546 l 1,71,72
 532 536 532 536 471 512 c 0,73,74
 383 477 383 477 337 428.5 c 128,-1,75
 291 380 291 380 283 303 c 0,76,77
 282 288 282 288 282 275 c 0,78,79
 282 223 282 223 304 190 c 0,80,81
 332 149 332 149 377 149 c 0,67,68
801 697 m 1,82,-1
 922 724 l 2,83,84
 1002 741 1002 741 1037.5 769 c 128,-1,85
 1073 797 1073 797 1080 867 c 0,86,87
 1081 882 1081 882 1081 896 c 0,88,89
 1081 948 1081 948 1061 984 c 0,90,91
 1035 1028 1035 1028 968 1028 c 0,92,93
 897 1028 897 1028 860.5 972.5 c 128,-1,94
 824 917 824 917 813 812 c 2,95,-1
 801 697 l 1,82,-1
EndSplineSet
EndChar

StartChar: eth
Encoding: 240 240 178
Width: 959
GlyphClass: 2
Flags: W
LayerCount: 2
UndoRedoHistory
Layer: 1
Undoes
EndUndoes
Redoes
EndRedoes
EndUndoRedoHistory
Fore
SplineSet
412 -18 m 0,0,1
 302 -18 302 -18 233.5 15 c 128,-1,2
 165 48 165 48 135.5 110 c 128,-1,3
 106 172 106 172 99 260 c 0,4,5
 97 289 97 289 97 321 c 0,6,7
 97 385 97 385 106 459 c 1,8,-1
 121 599 l 2,9,10
 131 697 131 697 146.5 773 c 128,-1,11
 162 849 162 849 191 920 c 128,-1,12
 220 991 220 991 260 1037.5 c 128,-1,13
 300 1084 300 1084 360.5 1112 c 128,-1,14
 421 1140 421 1140 499 1140 c 0,15,16
 614 1140 614 1140 691 1067 c 1,17,18
 691 1075 691 1075 691 1083 c 0,19,20
 691 1261 691 1261 648 1342 c 1,21,-1
 398 1267 l 1,22,-1
 410 1377 l 1,23,-1
 599 1429 l 1,24,25
 560 1483 560 1483 485.5 1510 c 128,-1,26
 411 1537 411 1537 272 1539 c 1,27,-1
 296 1678 l 1,28,29
 490 1677 490 1677 602.5 1630.5 c 128,-1,30
 715 1584 715 1584 771 1483 c 1,31,-1
 1012 1551 l 1,32,-1
 1001 1442 l 1,33,-1
 816 1393 l 1,34,35
 854 1293 854 1293 874 1112 c 0,36,37
 885 1013 885 1013 886 919 c 0,38,39
 886 841 886 841 878 767 c 2,40,-1
 848 488 l 2,41,42
 822 244 822 244 718.5 113 c 128,-1,43
 615 -18 615 -18 412 -18 c 0,0,1
436 150 m 0,44,45
 480 150 480 150 512 164.5 c 128,-1,46
 544 179 544 179 564 203 c 128,-1,47
 584 227 584 227 598.5 268.5 c 128,-1,48
 613 310 613 310 620 352 c 128,-1,49
 627 394 627 394 634 457 c 0,50,51
 676 877 676 877 676 899 c 1,52,53
 675 900 675 900 668.5 907 c 128,-1,54
 662 914 662 914 658 917.5 c 128,-1,55
 654 921 654 921 645.5 928.5 c 128,-1,56
 637 936 637 936 630 940 c 128,-1,57
 623 944 623 944 611.5 950 c 128,-1,58
 600 956 600 956 589 959 c 128,-1,59
 578 962 578 962 563.5 964.5 c 128,-1,60
 549 967 549 967 534 967 c 0,61,62
 443 967 443 967 397.5 875.5 c 128,-1,63
 352 784 352 784 330 579 c 0,64,65
 327 554 327 554 322 503 c 1,66,67
 317 466 317 466 315 447 c 128,-1,68
 313 428 313 428 310 394 c 0,69,70
 307 365 307 365 307 348 c 0,71,72
 308 345 308 345 308 343 c 0,73,74
 308 325 308 325 308.5 297.5 c 128,-1,75
 309 270 309 270 313 255 c 128,-1,76
 317 240 317 240 323 220 c 128,-1,77
 329 200 329 200 339 190 c 128,-1,78
 349 180 349 180 362.5 169.5 c 128,-1,79
 376 159 376 159 394.5 154.5 c 128,-1,80
 413 150 413 150 436 150 c 0,44,45
EndSplineSet
EndChar

StartChar: divide
Encoding: 247 247 185
Width: 707
GlyphClass: 2
Flags: W
LayerCount: 2
UndoRedoHistory
Layer: 1
Undoes
EndUndoes
Redoes
EndRedoes
EndUndoRedoHistory
Fore
SplineSet
256 358 m 1,0,-1
 280 581 l 1,1,-1
 450 581 l 1,2,-1
 426 358 l 1,3,-1
 256 358 l 1,0,-1
71 765 m 1,4,-1
 87 919 l 1,5,-1
 716 919 l 1,6,-1
 700 765 l 1,7,-1
 71 765 l 1,4,-1
332 1080 m 1,8,-1
 355 1303 l 1,9,-1
 525 1303 l 1,10,-1
 502 1080 l 1,11,-1
 332 1080 l 1,8,-1
EndSplineSet
EndChar

StartChar: oslash
Encoding: 248 248 186
Width: 863
GlyphClass: 2
Flags: W
LayerCount: 2
UndoRedoHistory
Layer: 1
Undoes
EndUndoes
Redoes
EndRedoes
EndUndoRedoHistory
Fore
SplineSet
290 352 m 1,0,-1
 585 994 l 1,1,2
 573 1018 573 1018 550 1031 c 128,-1,3
 527 1044 527 1044 492 1044 c 0,4,5
 461 1044 461 1044 437 1034.5 c 128,-1,6
 413 1025 413 1025 397 1004 c 128,-1,7
 381 983 381 983 370.5 962.5 c 128,-1,8
 360 942 360 942 352.5 906 c 128,-1,9
 345 870 345 870 341.5 844.5 c 128,-1,10
 338 819 338 819 334 775 c 2,11,-1
 295 407 l 2,12,13
 295 402 295 402 294.5 399 c 128,-1,14
 294 396 294 396 293.5 391 c 128,-1,15
 293 386 293 386 292.5 383 c 128,-1,16
 292 380 292 380 291.5 375.5 c 128,-1,17
 291 371 291 371 291 367.5 c 128,-1,18
 291 364 291 364 290.5 360 c 128,-1,19
 290 356 290 356 290 352 c 1,0,-1
397 140 m 0,20,21
 424 140 424 140 445.5 148.5 c 128,-1,22
 467 157 467 157 482 168 c 128,-1,23
 497 179 497 179 508.5 202 c 128,-1,24
 520 225 520 225 527 242.5 c 128,-1,25
 534 260 534 260 540 294 c 128,-1,26
 546 328 546 328 548.5 348 c 128,-1,27
 551 368 551 368 555 407 c 2,28,-1
 594 775 l 2,29,30
 595 784 595 784 595.5 789.5 c 128,-1,31
 596 795 596 795 597 803 c 128,-1,32
 598 811 598 811 598.5 817 c 128,-1,33
 599 823 599 823 599.5 830.5 c 128,-1,34
 600 838 600 838 600.5 844.5 c 128,-1,35
 601 851 601 851 601 857 c 1,36,-1
 297 206 l 1,37,38
 319 140 319 140 397 140 c 0,20,21
111 -192 m 1,39,-1
 50 -170 l 1,40,-1
 155 59 l 1,41,42
 79 138 79 138 79 313 c 0,43,44
 79 363 79 363 85 421 c 1,45,-1
 120 762 l 2,46,47
 143 977 143 977 232.5 1089 c 128,-1,48
 322 1201 322 1201 508 1201 c 0,49,50
 602 1201 602 1201 666 1171 c 1,51,-1
 755 1364 l 1,52,-1
 826 1339 l 1,53,-1
 728 1130 l 1,54,55
 811 1050 811 1050 811 867 c 0,56,57
 811 818 811 818 805 762 c 2,58,-1
 769 421 l 2,59,60
 758 316 758 316 732.5 238.5 c 128,-1,61
 707 161 707 161 662 102 c 128,-1,62
 617 43 617 43 546.5 13 c 128,-1,63
 476 -17 476 -17 380 -17 c 0,64,65
 276 -17 276 -17 209 19 c 1,66,-1
 111 -192 l 1,39,-1
EndSplineSet
EndChar

StartChar: thorn
Encoding: 254 254 192
Width: 909
GlyphClass: 2
Flags: W
LayerCount: 2
UndoRedoHistory
Layer: 1
Undoes
EndUndoes
Redoes
EndRedoes
EndUndoRedoHistory
Fore
SplineSet
24 -390 m 1,0,-1
 239 1658 l 1,1,-1
 450 1658 l 1,2,-1
 391 1089 l 1,3,4
 499 1201 499 1201 628 1201 c 0,5,6
 679 1201 679 1201 718.5 1183.5 c 128,-1,7
 758 1166 758 1166 782.5 1139 c 128,-1,8
 807 1112 807 1112 823.5 1072 c 128,-1,9
 840 1032 840 1032 847 993 c 128,-1,10
 854 954 854 954 856 907 c 0,11,12
 857 883 857 883 857 862.5 c 128,-1,13
 857 842 857 842 856 825 c 0,14,15
 854 790 854 790 850 752 c 2,16,-1
 821 470 l 2,17,18
 770 -17 770 -17 477 -17 c 0,19,20
 371 -17 371 -17 286 89 c 1,21,-1
 235 -390 l 1,22,-1
 24 -390 l 1,0,-1
453 150 m 0,23,24
 494 150 494 150 522 172.5 c 128,-1,25
 550 195 550 195 567 243.5 c 128,-1,26
 584 292 584 292 592.5 340.5 c 128,-1,27
 601 389 601 389 609 469 c 2,28,-1
 638 752 l 1,29,30
 645 832 645 832 645 895 c 128,-1,31
 645 958 645 958 619 996 c 128,-1,32
 593 1034 593 1034 538 1034 c 0,33,34
 464 1034 464 1034 378 970 c 1,35,-1
 298 206 l 1,36,37
 365 150 365 150 453 150 c 0,23,24
EndSplineSet
EndChar

StartChar: Dcroat
Encoding: 272 272 202
Width: 1082
GlyphClass: 2
Flags: W
LayerCount: 2
UndoRedoHistory
Layer: 1
Undoes
EndUndoes
Redoes
EndRedoes
EndUndoRedoHistory
Fore
SplineSet
328 161 m 1,0,-1
 465 161 l 2,1,2
 540 161 540 161 592 181.5 c 128,-1,3
 644 202 644 202 673.5 230.5 c 128,-1,4
 703 259 703 259 723 321 c 128,-1,5
 743 383 743 383 751 433.5 c 128,-1,6
 759 484 759 484 769 581 c 2,7,-1
 826 1128 l 2,8,9
 835 1208 835 1208 835 1270 c 0,10,11
 835 1305 835 1305 832 1335 c 0,12,13
 824 1416 824 1416 770.5 1454 c 128,-1,14
 717 1492 717 1492 600 1492 c 2,15,-1
 468 1492 l 1,16,-1
 408 926 l 1,17,-1
 536 926 l 1,18,-1
 523 797 l 1,19,-1
 395 797 l 1,20,-1
 328 161 l 1,0,-1
87 0 m 1,21,-1
 171 797 l 1,22,-1
 68 797 l 1,23,-1
 82 926 l 1,24,-1
 184 926 l 1,25,-1
 261 1658 l 1,26,-1
 622 1658 l 2,27,28
 888 1658 888 1658 985 1536 c 0,29,30
 1061 1440 1061 1440 1061 1260 c 0,31,32
 1061 1210 1061 1210 1055 1154 c 2,33,-1
 990 539 l 2,34,35
 962 268 962 268 839 134 c 128,-1,36
 716 0 716 0 464 0 c 2,37,-1
 87 0 l 1,21,-1
EndSplineSet
EndChar

StartChar: Eng
Encoding: 330 330 207
Width: 1088
GlyphClass: 2
Flags: W
LayerCount: 2
UndoRedoHistory
Layer: 1
Undoes
EndUndoes
Redoes
EndRedoes
EndUndoRedoHistory
Fore
SplineSet
461 -370 m 1,0,-1
 477 -217 l 1,1,2
 522 -217 522 -217 555 -213 c 128,-1,3
 588 -209 588 -209 612.5 -202 c 128,-1,4
 637 -195 637 -195 654.5 -180.5 c 128,-1,5
 672 -166 672 -166 683 -150 c 128,-1,6
 694 -134 694 -134 702 -106.5 c 128,-1,7
 710 -79 710 -79 714 -52.5 c 128,-1,8
 718 -26 718 -26 723 16 c 2,9,-1
 730 83 l 1,10,-1
 381 1150 l 1,11,-1
 260 0 l 1,12,-1
 82 0 l 1,13,-1
 256 1658 l 1,14,-1
 410 1658 l 1,15,-1
 780 539 l 1,16,-1
 898 1658 l 1,17,-1
 1074 1658 l 1,18,-1
 900 0 l 2,19,20
 890 -96 890 -96 869 -161 c 128,-1,21
 848 -226 848 -226 807.5 -275 c 128,-1,22
 767 -324 767 -324 701 -347 c 128,-1,23
 635 -370 635 -370 539 -370 c 2,24,-1
 461 -370 l 1,0,-1
EndSplineSet
EndChar

StartChar: Euro
Encoding: 8364 8364 209
Width: 1016
GlyphClass: 2
Flags: W
LayerCount: 2
UndoRedoHistory
Layer: 1
Undoes
EndUndoes
Redoes
EndRedoes
EndUndoRedoHistory
Fore
SplineSet
492 -18 m 0,0,1
 389 -18 389 -18 314 9.5 c 128,-1,2
 239 37 239 37 195.5 86 c 128,-1,3
 152 135 152 135 127.5 203.5 c 128,-1,4
 103 272 103 272 101 354 c 0,5,6
 101 370 101 370 101 387 c 0,7,8
 101 454 101 454 107 529 c 1,9,-1
 117 618 l 1,10,-1
 -4 618 l 1,11,-1
 8 735 l 1,12,-1
 129 735 l 1,13,-1
 151 946 l 1,14,-1
 30 946 l 1,15,-1
 43 1064 l 1,16,-1
 164 1064 l 1,17,-1
 170 1123 l 2,18,19
 184 1255 184 1255 214.5 1351 c 128,-1,20
 245 1447 245 1447 301.5 1522.5 c 128,-1,21
 358 1598 358 1598 450 1636.5 c 128,-1,22
 542 1675 542 1675 670 1675 c 0,23,24
 784 1675 784 1675 862 1643 c 128,-1,25
 940 1611 940 1611 981 1547.5 c 128,-1,26
 1022 1484 1022 1484 1035 1398 c 0,27,28
 1042 1354 1042 1354 1042 1302 c 0,29,30
 1042 1254 1042 1254 1036 1198 c 2,31,-1
 1027 1112 l 1,32,-1
 814 1112 l 1,33,-1
 822 1183 l 2,34,35
 826 1220 826 1220 828 1243.5 c 128,-1,36
 830 1267 830 1267 831.5 1298 c 128,-1,37
 833 1329 833 1329 831 1348.5 c 128,-1,38
 829 1368 829 1368 824.5 1392 c 128,-1,39
 820 1416 820 1416 811.5 1430 c 128,-1,40
 803 1444 803 1444 789.5 1459 c 128,-1,41
 776 1474 776 1474 757 1482 c 128,-1,42
 738 1490 738 1490 712 1495 c 128,-1,43
 686 1500 686 1500 654 1500 c 0,44,45
 596 1500 596 1500 553.5 1483 c 128,-1,46
 511 1466 511 1466 485 1439 c 128,-1,47
 459 1412 459 1412 441 1364.5 c 128,-1,48
 423 1317 423 1317 414.5 1271 c 128,-1,49
 406 1225 406 1225 398 1154 c 2,50,-1
 389 1064 l 1,51,-1
 600 1064 l 1,52,-1
 587 946 l 1,53,-1
 377 946 l 1,54,-1
 354 735 l 1,55,-1
 565 735 l 1,56,-1
 553 618 l 1,57,-1
 343 618 l 1,58,-1
 329 493 l 2,59,60
 322 431 322 431 322 382 c 0,61,62
 322 282 322 282 350 232 c 0,63,64
 390 158 390 158 512 158 c 0,65,66
 559 158 559 158 594 168 c 128,-1,67
 629 178 629 178 653.5 201 c 128,-1,68
 678 224 678 224 694 249 c 128,-1,69
 710 274 710 274 721 317 c 128,-1,70
 732 360 732 360 738 396.5 c 128,-1,71
 744 433 744 433 750 491 c 2,72,-1
 758 569 l 1,73,-1
 970 569 l 1,74,-1
 961 491 l 1,75,76
 949 372 949 372 920 283 c 128,-1,77
 891 194 891 194 837.5 124 c 128,-1,78
 784 54 784 54 697.5 18 c 128,-1,79
 611 -18 611 -18 492 -18 c 0,0,1
EndSplineSet
EndChar

StartChar: Hbar
Encoding: 294 294 214
Width: 1145
GlyphClass: 2
Flags: W
LayerCount: 2
UndoRedoHistory
Layer: 1
Undoes
EndUndoes
Redoes
EndRedoes
EndUndoRedoHistory
Fore
SplineSet
82 0 m 1,0,-1
 215 1270 l 1,1,-1
 120 1270 l 1,2,-1
 133 1386 l 1,3,-1
 228 1386 l 1,4,-1
 256 1658 l 1,5,-1
 480 1658 l 1,6,-1
 452 1386 l 1,7,-1
 888 1386 l 1,8,-1
 916 1658 l 1,9,-1
 1140 1658 l 1,10,-1
 1112 1386 l 1,11,-1
 1207 1386 l 1,12,-1
 1195 1270 l 1,13,-1
 1099 1270 l 1,14,-1
 966 0 l 1,15,-1
 742 0 l 1,16,-1
 824 780 l 1,17,-1
 388 780 l 1,18,-1
 306 0 l 1,19,-1
 82 0 l 1,0,-1
405 940 m 1,20,-1
 841 940 l 1,21,-1
 875 1270 l 1,22,-1
 439 1270 l 1,23,-1
 405 940 l 1,20,-1
EndSplineSet
EndChar

StartChar: Lslash
Encoding: 321 321 227
Width: 810
GlyphClass: 2
Flags: W
LayerCount: 2
UndoRedoHistory
Layer: 1
Undoes
EndUndoes
Redoes
EndRedoes
EndUndoRedoHistory
Fore
SplineSet
82 0 m 1,0,-1
 164 777 l 1,1,-1
 14 698 l 1,2,-1
 32 870 l 1,3,-1
 182 949 l 1,4,-1
 256 1658 l 1,5,-1
 480 1658 l 1,6,-1
 419 1073 l 1,7,-1
 649 1192 l 1,8,-1
 631 1020 l 1,9,-1
 401 901 l 1,10,-1
 324 161 l 1,11,-1
 752 161 l 1,12,-1
 734 0 l 1,13,-1
 82 0 l 1,0,-1
EndSplineSet
EndChar

StartChar: OE
Encoding: 338 338 231
Width: 1391
GlyphClass: 2
Flags: W
LayerCount: 2
UndoRedoHistory
Layer: 1
Undoes
EndUndoes
Redoes
EndRedoes
EndUndoRedoHistory
Fore
SplineSet
538 0 m 2,0,1
 402 0 402 0 311 31 c 128,-1,2
 220 62 220 62 170.5 127 c 128,-1,3
 121 192 121 192 106 283 c 0,4,5
 98 330 98 330 98 387 c 0,6,7
 98 440 98 440 105 503 c 2,8,-1
 170 1123 l 2,9,10
 198 1392 198 1392 321 1525 c 128,-1,11
 444 1658 444 1658 696 1658 c 2,12,-1
 1456 1658 l 1,13,-1
 1439 1491 l 1,14,-1
 1035 1491 l 1,15,-1
 977 939 l 1,16,-1
 1306 939 l 1,17,-1
 1290 778 l 1,18,-1
 961 778 l 1,19,-1
 896 162 l 1,20,-1
 1303 162 l 1,21,-1
 1286 0 l 1,22,-1
 538 0 l 2,0,1
560 167 m 2,23,-1
 672 167 l 1,24,-1
 813 1497 l 1,25,-1
 696 1497 l 2,26,27
 654 1497 654 1497 620 1491 c 128,-1,28
 586 1485 586 1485 559 1476 c 128,-1,29
 532 1467 532 1467 511 1448.5 c 128,-1,30
 490 1430 490 1430 474.5 1412.5 c 128,-1,31
 459 1395 459 1395 446.5 1364.5 c 128,-1,32
 434 1334 434 1334 426.5 1308.5 c 128,-1,33
 419 1283 419 1283 412 1241.5 c 128,-1,34
 405 1200 405 1200 400.5 1167 c 128,-1,35
 396 1134 396 1134 391 1082 c 2,36,-1
 333 526 l 1,37,38
 324 447 324 447 324 386 c 0,39,40
 324 351 324 351 327 322 c 0,41,42
 335 242 335 242 389 204.5 c 128,-1,43
 443 167 443 167 560 167 c 2,23,-1
EndSplineSet
EndChar

StartChar: Pi
Encoding: 928 928 235
Width: 1142
GlyphClass: 2
Flags: W
LayerCount: 2
UndoRedoHistory
Layer: 1
Undoes
EndUndoes
Redoes
EndRedoes
EndUndoRedoHistory
Fore
SplineSet
82 0 m 1,0,-1
 256 1658 l 1,1,-1
 1137 1658 l 1,2,-1
 963 0 l 1,3,-1
 749 0 l 1,4,-1
 907 1498 l 1,5,-1
 453 1498 l 1,6,-1
 295 0 l 1,7,-1
 82 0 l 1,0,-1
EndSplineSet
EndChar

StartChar: Tbar
Encoding: 358 358 244
Width: 817
GlyphClass: 2
Flags: W
LayerCount: 2
UndoRedoHistory
Layer: 1
Undoes
EndUndoes
Redoes
EndRedoes
EndUndoRedoHistory
Fore
SplineSet
116 805 m 1,0,-1
 130 932 l 1,1,-1
 351 932 l 1,2,-1
 410 1492 l 1,3,-1
 105 1492 l 1,4,-1
 122 1658 l 1,5,-1
 947 1658 l 1,6,-1
 930 1492 l 1,7,-1
 634 1492 l 1,8,-1
 575 932 l 1,9,-1
 778 932 l 1,10,-1
 764 805 l 1,11,-1
 562 805 l 1,12,-1
 477 0 l 1,13,-1
 254 0 l 1,14,-1
 338 805 l 1,15,-1
 116 805 l 1,0,-1
EndSplineSet
EndChar

StartChar: acutecomb
Encoding: 769 769 264
Width: 51
GlyphClass: 2
Flags: W
LayerCount: 2
UndoRedoHistory
Layer: 1
Undoes
EndUndoes
Redoes
EndRedoes
EndUndoRedoHistory
Fore
SplineSet
43 1254 m 1,0,-1
 207 1658 l 1,1,-1
 419 1658 l 1,2,-1
 151 1254 l 1,3,-1
 43 1254 l 1,0,-1
EndSplineSet
EndChar

StartChar: afii10018
Encoding: 1041 1041 266
Width: 1009
GlyphClass: 2
Flags: W
LayerCount: 2
UndoRedoHistory
Layer: 1
Undoes
EndUndoes
Redoes
EndRedoes
EndUndoRedoHistory
Fore
SplineSet
82 0 m 1,0,-1
 256 1658 l 1,1,-1
 963 1658 l 1,2,-1
 947 1496 l 1,3,-1
 463 1496 l 1,4,-1
 408 967 l 1,5,-1
 468 967 l 2,6,7
 606 967 606 967 698.5 944.5 c 128,-1,8
 791 922 791 922 853 867.5 c 0,9,10
 914 813 914 813 936 719 c 0,11,12
 949 664 949 664 949 592 c 0,13,14
 949 542 949 542 943 485 c 0,15,16
 917 232 917 232 780.5 116 c 128,-1,17
 644 0 644 0 377 0 c 2,18,-1
 82 0 l 1,0,-1
323 162 m 1,19,-1
 395 162 l 2,20,21
 478 162 478 162 532.5 175 c 128,-1,22
 587 188 587 188 630.5 223 c 128,-1,23
 674 258 674 258 698 322.5 c 128,-1,24
 722 387 722 387 732 487 c 0,25,26
 736 527 736 527 736 562 c 0,27,28
 736 677 736 677 690 733 c 0,29,30
 630 806 630 806 458 806 c 2,31,-1
 391 806 l 1,32,-1
 323 162 l 1,19,-1
EndSplineSet
EndChar

StartChar: afii10019
Encoding: 1042 1042 267
Width: 1068
GlyphClass: 2
Flags: W
LayerCount: 2
UndoRedoHistory
Layer: 1
Undoes
EndUndoes
Redoes
EndRedoes
EndUndoRedoHistory
Fore
SplineSet
82 0 m 1,0,-1
 256 1658 l 1,1,-1
 633 1658 l 2,2,3
 858 1658 858 1658 955 1556 c 0,4,5
 1034 1473 1034 1473 1034 1317 c 0,6,7
 1034 1282 1034 1282 1030 1243 c 0,8,9
 997 927 997 927 759 893 c 1,10,11
 900 858 900 858 956 754 c 0,12,13
 998 676 998 676 998 556 c 0,14,15
 998 518 998 518 994 475 c 0,16,17
 970 251 970 251 853 125.5 c 128,-1,18
 736 0 736 0 521 0 c 2,19,-1
 82 0 l 1,0,-1
324 161 m 1,20,-1
 487 161 l 2,21,22
 637 161 637 161 699.5 233 c 128,-1,23
 762 305 762 305 780 475 c 0,24,25
 784 510 784 510 784 541 c 0,26,27
 784 652 784 652 740 714 c 0,28,29
 684 794 684 794 535 793 c 2,30,-1
 390 793 l 1,31,-1
 324 161 l 1,20,-1
408 963 m 1,32,-1
 553 963 l 2,33,34
 695 963 695 963 757 1028 c 128,-1,35
 819 1093 819 1093 835 1243 c 0,36,37
 838 1273 838 1273 838 1299 c 0,38,39
 838 1330 838 1330 834 1355 c 0,40,41
 826 1400 826 1400 806 1427.5 c 128,-1,42
 786 1455 786 1455 743 1469 c 128,-1,43
 700 1483 700 1483 652.5 1487.5 c 128,-1,44
 605 1492 605 1492 526 1492 c 2,45,-1
 463 1492 l 1,46,-1
 408 963 l 1,32,-1
EndSplineSet
EndChar

StartChar: afii10020
Encoding: 1043 1043 268
Width: 788
GlyphClass: 2
Flags: W
LayerCount: 2
UndoRedoHistory
Layer: 1
Undoes
EndUndoes
Redoes
EndRedoes
EndUndoRedoHistory
Fore
SplineSet
82 0 m 1,0,-1
 256 1658 l 1,1,-1
 882 1658 l 1,2,-1
 865 1492 l 1,3,-1
 463 1492 l 1,4,-1
 306 0 l 1,5,-1
 82 0 l 1,0,-1
EndSplineSet
EndChar

StartChar: afii10021
Encoding: 1044 1044 269
Width: 1276
GlyphClass: 2
Flags: W
LayerCount: 2
UndoRedoHistory
Layer: 1
Undoes
EndUndoes
Redoes
EndRedoes
EndUndoRedoHistory
Fore
SplineSet
-59 -300 m 1,0,-1
 -10 161 l 1,1,-1
 65 161 l 1,2,3
 110 195 110 195 141.5 228.5 c 128,-1,4
 173 262 173 262 214.5 334 c 128,-1,5
 256 406 256 406 288.5 506.5 c 128,-1,6
 321 607 321 607 359 773.5 c 128,-1,7
 397 940 397 940 432 1163 c 2,8,-1
 510 1658 l 1,9,-1
 1199 1658 l 1,10,-1
 1042 161 l 1,11,-1
 1199 161 l 1,12,-1
 1150 -300 l 1,13,-1
 977 -300 l 1,14,-1
 990 0 l 1,15,-1
 165 0 l 1,16,-1
 115 -300 l 1,17,-1
 -59 -300 l 1,0,-1
275 161 m 1,18,-1
 818 161 l 1,19,-1
 958 1492 l 1,20,-1
 684 1492 l 1,21,-1
 627 1110 l 2,22,23
 609 987 609 987 589.5 883.5 c 128,-1,24
 570 780 570 780 553 701.5 c 128,-1,25
 536 623 536 623 514.5 555.5 c 128,-1,26
 493 488 493 488 477.5 443 c 128,-1,27
 462 398 462 398 438 355.5 c 128,-1,28
 414 313 414 313 399.5 290 c 128,-1,29
 385 267 385 267 358 239 c 128,-1,30
 331 211 331 211 318 198.5 c 128,-1,31
 305 186 305 186 275 161 c 1,18,-1
EndSplineSet
EndChar

StartChar: afii10024
Encoding: 1046 1046 272
Width: 1377
GlyphClass: 2
Flags: W
LayerCount: 2
UndoRedoHistory
Layer: 1
Undoes
EndUndoes
Redoes
EndRedoes
EndUndoRedoHistory
Fore
SplineSet
-39 0 m 1,0,-1
 439 849 l 1,1,-1
 174 1658 l 1,2,-1
 391 1658 l 1,3,-1
 622 860 l 1,4,-1
 635 860 l 1,5,-1
 719 1658 l 1,6,-1
 909 1658 l 1,7,-1
 825 860 l 1,8,-1
 839 860 l 1,9,-1
 1237 1658 l 1,10,-1
 1454 1658 l 1,11,-1
 1019 849 l 1,12,-1
 1319 0 l 1,13,-1
 1099 0 l 1,14,-1
 838 831 l 1,15,-1
 822 831 l 1,16,-1
 735 0 l 1,17,-1
 545 0 l 1,18,-1
 632 831 l 1,19,-1
 617 831 l 1,20,-1
 181 0 l 1,21,-1
 -39 0 l 1,0,-1
EndSplineSet
EndChar

StartChar: afii10025
Encoding: 1047 1047 273
Width: 981
GlyphClass: 2
Flags: W
LayerCount: 2
UndoRedoHistory
Layer: 1
Undoes
EndUndoes
Redoes
EndRedoes
EndUndoRedoHistory
Fore
SplineSet
440 -18 m 0,0,1
 242 -18 242 -18 152 93 c 0,2,3
 79 183 79 183 79 332 c 0,4,5
 79 367 79 367 83 405 c 1,6,-1
 89 459 l 1,7,-1
 300 459 l 1,8,9
 296 427 296 427 295 401 c 0,10,11
 294 379 294 379 294 359 c 0,12,13
 294 271 294 271 322 220 c 0,14,15
 357 157 357 157 459 157 c 0,16,17
 571 157 571 157 620.5 233.5 c 128,-1,18
 670 310 670 310 687 465 c 0,19,20
 690 496 690 496 690 524 c 0,21,22
 690 626 690 626 648 690 c 0,23,24
 594 772 594 772 444 781 c 0,25,26
 416 783 416 783 380 783 c 1,27,-1
 398 953 l 1,28,29
 445 953 445 953 460 954 c 0,30,31
 613 963 613 963 683.5 1034.5 c 128,-1,32
 754 1106 754 1106 768 1246 c 1,33,34
 772 1278 772 1278 772 1306 c 0,35,36
 772 1501 772 1501 593 1501 c 0,37,38
 392 1501 392 1501 351 1250 c 0,39,40
 350 1245 350 1245 347.5 1226.5 c 128,-1,41
 345 1208 345 1208 344 1199 c 1,42,-1
 132 1199 l 1,43,-1
 139 1252 l 1,44,45
 159 1451 159 1451 280 1563 c 128,-1,46
 401 1675 401 1675 603 1675 c 0,47,48
 804 1675 804 1675 904 1560 c 0,49,50
 985 1466 985 1466 985 1315 c 0,51,52
 985 1282 985 1282 981 1246 c 1,53,54
 966 1097 966 1097 892 1002 c 128,-1,55
 818 907 818 907 705 875 c 1,56,57
 814 840 814 840 866 736 c 0,58,59
 905 659 905 659 905 548 c 0,60,61
 905 509 905 509 900 466 c 0,62,63
 876 236 876 236 764 109 c 128,-1,64
 652 -18 652 -18 440 -18 c 0,0,1
EndSplineSet
EndChar

StartChar: afii10026
Encoding: 1048 1048 274
Width: 1113
GlyphClass: 2
Flags: W
LayerCount: 2
UndoRedoHistory
Layer: 1
Undoes
EndUndoes
Redoes
EndRedoes
EndUndoRedoHistory
Fore
SplineSet
82 0 m 1,0,-1
 256 1658 l 1,1,-1
 454 1658 l 1,2,-1
 331 493 l 1,3,-1
 945 1658 l 1,4,-1
 1107 1658 l 1,5,-1
 933 0 l 1,6,-1
 736 0 l 1,7,-1
 860 1183 l 1,8,-1
 249 0 l 1,9,-1
 82 0 l 1,0,-1
EndSplineSet
EndChar

StartChar: afii10028
Encoding: 1050 1050 276
Width: 1035
GlyphClass: 2
Flags: W
LayerCount: 2
UndoRedoHistory
Layer: 1
Undoes
EndUndoes
Redoes
EndRedoes
EndUndoRedoHistory
Fore
SplineSet
82 0 m 1,0,-1
 256 1658 l 1,1,-1
 480 1658 l 1,2,-1
 403 919 l 1,3,-1
 493 919 l 1,4,-1
 870 1658 l 1,5,-1
 1095 1658 l 1,6,-1
 682 869 l 1,7,-1
 963 0 l 1,8,-1
 738 0 l 1,9,-1
 482 809 l 1,10,-1
 391 809 l 1,11,-1
 306 0 l 1,12,-1
 82 0 l 1,0,-1
EndSplineSet
EndChar

StartChar: afii10029
Encoding: 1051 1051 277
Width: 1186
GlyphClass: 2
Flags: W
LayerCount: 2
UndoRedoHistory
Layer: 1
Undoes
EndUndoes
Redoes
EndRedoes
EndUndoRedoHistory
Fore
SplineSet
-42 -1 m 1,0,-1
 -23 167 l 1,1,2
 10 166 10 166 32 168 c 128,-1,3
 54 170 54 170 80.5 179 c 128,-1,4
 107 188 107 188 125 205.5 c 128,-1,5
 143 223 143 223 164.5 254 c 128,-1,6
 186 285 186 285 203 331 c 128,-1,7
 220 377 220 377 239 442 c 128,-1,8
 258 507 258 507 276 594 c 128,-1,9
 294 681 294 681 313 793 c 2,10,-1
 458 1658 l 1,11,-1
 1180 1658 l 1,12,-1
 1006 0 l 1,13,-1
 782 0 l 1,14,-1
 939 1492 l 1,15,-1
 635 1492 l 1,16,-1
 522 793 l 2,17,18
 503 681 503 681 486 597 c 128,-1,19
 469 513 469 513 447 430.5 c 128,-1,20
 425 348 425 348 401 289.5 c 128,-1,21
 377 231 377 231 345.5 178 c 128,-1,22
 314 125 314 125 276.5 91.5 c 128,-1,23
 239 58 239 58 191.5 34.5 c 0,24,25
 144 10 144 10 86 2 c 0,26,27
 49 -3 49 -3 8 -3 c 0,28,29
 -16 -3 -16 -3 -42 -1 c 1,0,-1
EndSplineSet
EndChar

StartChar: afii10030
Encoding: 1052 1052 278
Width: 1348
GlyphClass: 2
Flags: W
LayerCount: 2
UndoRedoHistory
Layer: 1
Undoes
EndUndoes
Redoes
EndRedoes
EndUndoRedoHistory
Fore
SplineSet
77 0 m 1,0,-1
 283 1658 l 1,1,-1
 484 1658 l 1,2,-1
 663 368 l 1,3,-1
 1115 1658 l 1,4,-1
 1316 1658 l 1,5,-1
 1174 0 l 1,6,-1
 997 0 l 1,7,-1
 1102 1132 l 1,8,-1
 689 0 l 1,9,-1
 562 0 l 1,10,-1
 388 1132 l 1,11,-1
 255 0 l 1,12,-1
 77 0 l 1,0,-1
EndSplineSet
EndChar

StartChar: afii10033
Encoding: 1055 1055 281
Width: 1168
GlyphClass: 2
Flags: W
LayerCount: 2
UndoRedoHistory
Layer: 1
Undoes
EndUndoes
Redoes
EndRedoes
EndUndoRedoHistory
Fore
SplineSet
82 0 m 1,0,-1
 256 1658 l 1,1,-1
 1162 1658 l 1,2,-1
 988 0 l 1,3,-1
 764 0 l 1,4,-1
 922 1498 l 1,5,-1
 464 1498 l 1,6,-1
 306 0 l 1,7,-1
 82 0 l 1,0,-1
EndSplineSet
EndChar

StartChar: afii10034
Encoding: 1056 1056 282
Width: 980
GlyphClass: 2
Flags: W
LayerCount: 2
UndoRedoHistory
Layer: 1
Undoes
EndUndoes
Redoes
EndRedoes
EndUndoRedoHistory
Fore
SplineSet
82 0 m 1,0,-1
 256 1658 l 1,1,-1
 667 1658 l 2,2,3
 882 1658 882 1658 966 1542 c 0,4,5
 1032 1450 1032 1450 1033 1293 c 0,6,7
 1033 1250 1033 1250 1028 1202 c 1,8,9
 1006 1001 1006 1001 890.5 887 c 128,-1,10
 775 773 775 773 575 773 c 2,11,-1
 388 773 l 1,12,-1
 306 0 l 1,13,-1
 82 0 l 1,0,-1
405 934 m 1,14,-1
 519 934 l 2,15,16
 671 934 671 934 734.5 990 c 128,-1,17
 798 1046 798 1046 814 1201 c 1,18,19
 822 1260 822 1260 822 1305 c 0,20,21
 822 1314 822 1314 822 1323 c 0,22,23
 820 1374 820 1374 810.5 1407.5 c 128,-1,24
 801 1441 801 1441 771 1461 c 128,-1,25
 741 1481 741 1481 697 1489 c 128,-1,26
 653 1497 653 1497 582 1497 c 2,27,-1
 464 1497 l 1,28,-1
 405 934 l 1,14,-1
EndSplineSet
EndChar

StartChar: afii10037
Encoding: 1059 1059 285
Width: 925
GlyphClass: 2
Flags: W
LayerCount: 2
UndoRedoHistory
Layer: 1
Undoes
EndUndoes
Redoes
EndRedoes
EndUndoRedoHistory
Fore
SplineSet
35 -248 m 1,0,-1
 54 -75 l 1,1,2
 106 -80 106 -80 145 -80 c 0,3,4
 158 -80 158 -80 172 -80 c 0,5,6
 220 -78 220 -78 253.5 -66 c 128,-1,7
 287 -54 287 -54 305 -32.5 c 128,-1,8
 323 -11 323 -11 332 20.5 c 128,-1,9
 341 52 341 52 342 94 c 0,10,11
 342 115 342 115 342 138 c 128,-1,12
 342 161 342 161 342 187 c 1,13,-1
 167 1658 l 1,14,-1
 378 1658 l 1,15,-1
 447 948 l 1,16,-1
 478 422 l 1,17,-1
 609 945 l 1,18,-1
 811 1658 l 1,19,-1
 1026 1658 l 1,20,-1
 572 183 l 2,21,22
 562 151 562 151 545 92 c 0,23,24
 510 -31 510 -31 489 -81 c 128,-1,25
 468 -131 468 -131 414.5 -183 c 0,26,27
 361 -236 361 -236 274 -246 c 0,28,29
 225 -252 225 -252 154 -251 c 0,30,31
 101 -251 101 -251 35 -248 c 1,0,-1
EndSplineSet
EndChar

StartChar: afii10038
Encoding: 1060 1060 286
Width: 1347
GlyphClass: 2
Flags: W
LayerCount: 2
UndoRedoHistory
Layer: 1
Undoes
EndUndoes
Redoes
EndRedoes
EndUndoRedoHistory
Fore
SplineSet
501 -76 m 1,0,-1
 531 203 l 1,1,2
 513 200 513 200 458 200 c 1,3,4
 434 198 434 198 411 198 c 0,5,6
 254 198 254 198 179 288 c 0,7,8
 113 367 113 367 113 530 c 0,9,10
 113 579 113 579 119 635 c 2,11,-1
 162 1053 l 1,12,13
 188 1294 188 1294 296 1398 c 0,14,15
 394 1492 394 1492 561 1492 c 0,16,17
 579 1492 579 1492 597 1491 c 0,18,19
 598 1491 598 1491 631 1490.5 c 128,-1,20
 664 1490 664 1490 666 1490 c 1,21,-1
 699 1808 l 1,22,-1
 923 1808 l 1,23,-1
 890 1490 l 1,24,25
 900 1492 900 1492 969 1492 c 1,26,27
 988 1493 988 1493 1005 1493 c 0,28,29
 1171 1494 1171 1494 1249 1400 c 0,30,31
 1315 1321 1315 1321 1315 1158 c 0,32,33
 1315 1109 1315 1109 1309 1053 c 2,34,-1
 1265 635 l 2,35,36
 1240 392 1240 392 1132 288 c 0,37,38
 1038 197 1038 197 883 198 c 0,39,40
 859 198 859 198 834 200 c 1,41,42
 770 200 770 200 755 203 c 1,43,-1
 725 -76 l 1,44,-1
 501 -76 l 1,0,-1
507 335 m 0,45,46
 508 335 508 335 524.5 336 c 128,-1,47
 541 337 541 337 544 337 c 1,48,-1
 651 1355 l 1,49,50
 649 1355 649 1355 633 1355.5 c 128,-1,51
 617 1356 617 1356 616 1356 c 0,52,53
 599 1357 599 1357 583 1357 c 0,54,55
 534 1358 534 1358 500 1348 c 0,56,57
 456 1336 456 1336 428.5 1296 c 128,-1,58
 401 1256 401 1256 388.5 1202.5 c 128,-1,59
 376 1149 376 1149 366 1053 c 2,60,-1
 323 635 l 1,61,62
 314 563 314 563 314 509 c 0,63,64
 314 476 314 476 317 450 c 0,65,66
 326 382 326 382 368 356 c 0,67,68
 404 334 404 334 477 334 c 0,69,70
 492 334 492 334 507 335 c 0,45,46
813 335 m 0,71,72
 832 334 832 334 849 334 c 0,73,74
 875 334 875 334 896 336 c 0,75,76
 931 340 931 340 957 356 c 128,-1,77
 983 372 983 372 999.5 392.5 c 128,-1,78
 1016 413 1016 413 1028 451 c 128,-1,79
 1040 489 1040 489 1047 530 c 128,-1,80
 1054 571 1054 571 1061 635 c 2,81,-1
 1105 1053 l 1,82,83
 1114 1126 1114 1126 1114 1180 c 0,84,85
 1114 1213 1114 1213 1111 1239 c 0,86,87
 1102 1308 1102 1308 1059 1334 c 0,88,89
 1023 1356 1023 1356 948 1357 c 0,90,91
 934 1357 934 1357 919 1356 c 0,92,93
 918 1356 918 1356 898 1355.5 c 128,-1,94
 878 1355 878 1355 875 1355 c 1,95,-1
 768 337 l 1,96,97
 771 337 771 337 791.5 336 c 128,-1,98
 812 335 812 335 813 335 c 0,71,72
EndSplineSet
EndChar

StartChar: afii10040
Encoding: 1062 1062 288
Width: 1264
GlyphClass: 2
Flags: W
LayerCount: 2
UndoRedoHistory
Layer: 1
Undoes
EndUndoes
Redoes
EndRedoes
EndUndoRedoHistory
Fore
SplineSet
959 -300 m 1,0,-1
 972 0 l 1,1,-1
 82 0 l 1,2,-1
 256 1658 l 1,3,-1
 480 1658 l 1,4,-1
 323 160 l 1,5,-1
 801 160 l 1,6,-1
 958 1658 l 1,7,-1
 1182 1658 l 1,8,-1
 1025 160 l 1,9,-1
 1181 160 l 1,10,-1
 1132 -300 l 1,11,-1
 959 -300 l 1,0,-1
EndSplineSet
EndChar

StartChar: afii10041
Encoding: 1063 1063 289
Width: 1097
GlyphClass: 2
Flags: W
LayerCount: 2
UndoRedoHistory
Layer: 1
Undoes
EndUndoes
Redoes
EndRedoes
EndUndoRedoHistory
Fore
SplineSet
694 0 m 1,0,-1
 774 765 l 1,1,2
 635 735 635 735 526 735 c 0,3,4
 166 735 166 735 166 1051 c 0,5,6
 166 1083 166 1083 170 1118 c 2,7,-1
 226 1658 l 1,8,-1
 429 1658 l 1,9,-1
 372 1119 l 2,10,11
 369 1093 369 1093 369 1070 c 0,12,13
 368 982 368 982 408 938 c 0,14,15
 458 882 458 882 585 882 c 0,16,17
 676 882 676 882 789 907 c 1,18,-1
 868 1658 l 1,19,-1
 1092 1658 l 1,20,-1
 918 0 l 1,21,-1
 694 0 l 1,0,-1
EndSplineSet
EndChar

StartChar: afii10042
Encoding: 1064 1064 290
Width: 1530
GlyphClass: 2
Flags: W
LayerCount: 2
UndoRedoHistory
Layer: 1
Undoes
EndUndoes
Redoes
EndRedoes
EndUndoRedoHistory
Fore
SplineSet
82 0 m 1,0,-1
 256 1658 l 1,1,-1
 480 1658 l 1,2,-1
 323 162 l 1,3,-1
 629 162 l 1,4,-1
 786 1658 l 1,5,-1
 1010 1658 l 1,6,-1
 853 162 l 1,7,-1
 1144 162 l 1,8,-1
 1301 1658 l 1,9,-1
 1525 1658 l 1,10,-1
 1351 0 l 1,11,-1
 82 0 l 1,0,-1
EndSplineSet
EndChar

StartChar: afii10043
Encoding: 1065 1065 291
Width: 1608
GlyphClass: 2
Flags: W
LayerCount: 2
UndoRedoHistory
Layer: 1
Undoes
EndUndoes
Redoes
EndRedoes
EndUndoRedoHistory
Fore
SplineSet
1302 -300 m 1,0,-1
 1315 0 l 1,1,-1
 82 0 l 1,2,-1
 256 1658 l 1,3,-1
 480 1658 l 1,4,-1
 323 160 l 1,5,-1
 629 160 l 1,6,-1
 786 1658 l 1,7,-1
 1009 1658 l 1,8,-1
 853 160 l 1,9,-1
 1145 160 l 1,10,-1
 1302 1658 l 1,11,-1
 1526 1658 l 1,12,-1
 1369 160 l 1,13,-1
 1524 160 l 1,14,-1
 1476 -300 l 1,15,-1
 1302 -300 l 1,0,-1
EndSplineSet
EndChar

StartChar: afii10044
Encoding: 1066 1066 292
Width: 1159
GlyphClass: 2
Flags: W
LayerCount: 2
UndoRedoHistory
Layer: 1
Undoes
EndUndoes
Redoes
EndRedoes
EndUndoRedoHistory
Fore
SplineSet
233 0 m 1,0,-1
 389 1488 l 1,1,-1
 117 1488 l 1,2,-1
 135 1658 l 1,3,-1
 631 1658 l 1,4,-1
 558 967 l 1,5,-1
 630 967 l 2,6,7
 768 967 768 967 860.5 944.5 c 128,-1,8
 953 922 953 922 1015.5 867.5 c 128,-1,9
 1078 813 1078 813 1100 719 c 0,10,11
 1113 664 1113 664 1112 592 c 0,12,13
 1112 542 1112 542 1106 485 c 0,14,15
 1079 232 1079 232 943 116 c 128,-1,16
 807 0 807 0 540 0 c 2,17,-1
 233 0 l 1,0,-1
474 162 m 1,18,-1
 557 162 l 2,19,20
 640 162 640 162 694.5 175 c 128,-1,21
 749 188 749 188 792.5 223 c 128,-1,22
 836 258 836 258 860 322.5 c 128,-1,23
 884 387 884 387 895 487 c 0,24,25
 899 527 899 527 899 561 c 0,26,27
 898 677 898 677 852 733 c 0,28,29
 792 806 792 806 620 806 c 2,30,-1
 541 806 l 1,31,-1
 474 162 l 1,18,-1
EndSplineSet
EndChar

StartChar: afii10045
Encoding: 1067 1067 293
Width: 1482
GlyphClass: 2
Flags: W
LayerCount: 2
UndoRedoHistory
Layer: 1
Undoes
EndUndoes
Redoes
EndRedoes
EndUndoRedoHistory
Fore
SplineSet
82 0 m 1,0,-1
 256 1658 l 1,1,-1
 480 1658 l 1,2,-1
 408 967 l 1,3,-1
 480 967 l 2,4,5
 618 967 618 967 710.5 944.5 c 128,-1,6
 803 922 803 922 865 867.5 c 0,7,8
 926 813 926 813 948 719 c 0,9,10
 961 664 961 664 961 592 c 0,11,12
 961 542 961 542 955 485 c 0,13,14
 929 232 929 232 792.5 116 c 128,-1,15
 656 0 656 0 389 0 c 2,16,-1
 82 0 l 1,0,-1
323 162 m 1,17,-1
 407 162 l 2,18,19
 490 162 490 162 544.5 175 c 128,-1,20
 599 188 599 188 642.5 223 c 128,-1,21
 686 258 686 258 710 322.5 c 128,-1,22
 734 387 734 387 744 487 c 0,23,24
 748 527 748 527 748 562 c 0,25,26
 748 677 748 677 702 733 c 0,27,28
 642 806 642 806 470 806 c 2,29,-1
 391 806 l 1,30,-1
 323 162 l 1,17,-1
1079 0 m 1,31,-1
 1253 1658 l 1,32,-1
 1477 1658 l 1,33,-1
 1303 0 l 1,34,-1
 1079 0 l 1,31,-1
EndSplineSet
EndChar

StartChar: afii10046
Encoding: 1068 1068 294
Width: 1008
GlyphClass: 2
Flags: W
LayerCount: 2
UndoRedoHistory
Layer: 1
Undoes
EndUndoes
Redoes
EndRedoes
EndUndoRedoHistory
Fore
SplineSet
82 0 m 1,0,-1
 256 1658 l 1,1,-1
 480 1658 l 1,2,-1
 408 967 l 1,3,-1
 480 967 l 2,4,5
 618 967 618 967 710.5 944.5 c 128,-1,6
 803 922 803 922 865 867.5 c 0,7,8
 926 813 926 813 948 719 c 0,9,10
 961 664 961 664 961 592 c 0,11,12
 961 542 961 542 955 485 c 0,13,14
 929 232 929 232 792.5 116 c 128,-1,15
 656 0 656 0 389 0 c 2,16,-1
 82 0 l 1,0,-1
324 162 m 1,17,-1
 407 162 l 2,18,19
 490 162 490 162 544.5 175 c 128,-1,20
 599 188 599 188 642.5 223 c 128,-1,21
 686 258 686 258 710 322.5 c 128,-1,22
 734 387 734 387 744 487 c 0,23,24
 748 527 748 527 748 562 c 0,25,26
 748 677 748 677 702 733 c 0,27,28
 642 806 642 806 470 806 c 2,29,-1
 391 806 l 1,30,-1
 324 162 l 1,17,-1
EndSplineSet
EndChar

StartChar: afii10047
Encoding: 1069 1069 295
Width: 1060
GlyphClass: 2
Flags: W
LayerCount: 2
UndoRedoHistory
Layer: 1
Undoes
EndUndoes
Redoes
EndRedoes
EndUndoRedoHistory
Fore
SplineSet
470 4 m 0,0,1
 356 4 356 4 278 36 c 128,-1,2
 200 68 200 68 158.5 131 c 0,3,4
 116 194 116 194 104 280 c 0,5,6
 98 324 98 324 98 374 c 0,7,8
 98 423 98 423 104 480 c 2,9,-1
 112 562 l 1,10,-1
 325 562 l 1,11,-1
 317 495 l 2,12,13
 313 457 313 457 311 434.5 c 128,-1,14
 309 412 309 412 308 380 c 128,-1,15
 307 348 307 348 309 329 c 128,-1,16
 311 310 311 310 315.5 286 c 128,-1,17
 320 262 320 262 328.5 248 c 128,-1,18
 337 234 337 234 350.5 219 c 128,-1,19
 364 204 364 204 383 196 c 128,-1,20
 402 188 402 188 428 183 c 128,-1,21
 454 178 454 178 486 178 c 0,22,23
 544 178 544 178 586.5 195 c 128,-1,24
 629 212 629 212 655 239 c 128,-1,25
 681 266 681 266 698.5 313.5 c 128,-1,26
 716 361 716 361 725 407.5 c 128,-1,27
 734 454 734 454 741 524 c 2,28,-1
 770 792 l 1,29,-1
 472 792 l 1,30,-1
 488 939 l 1,31,-1
 785 939 l 1,32,-1
 810 1185 l 2,33,34
 817 1247 817 1247 817 1296 c 0,35,36
 818 1396 818 1396 790 1446 c 0,37,38
 750 1520 750 1520 627 1521 c 0,39,40
 581 1521 581 1521 545.5 1511 c 128,-1,41
 510 1501 510 1501 486 1478 c 128,-1,42
 462 1455 462 1455 445.5 1429.5 c 128,-1,43
 429 1404 429 1404 418.5 1361.5 c 128,-1,44
 408 1319 408 1319 402 1281.5 c 128,-1,45
 396 1244 396 1244 390 1187 c 2,46,-1
 383 1116 l 1,47,-1
 171 1116 l 1,48,-1
 178 1187 l 1,49,50
 191 1307 191 1307 220 1395.5 c 128,-1,51
 249 1484 249 1484 302 1554 c 128,-1,52
 355 1624 355 1624 442 1660 c 128,-1,53
 529 1696 529 1696 648 1696 c 0,54,55
 751 1696 751 1696 826 1668.5 c 128,-1,56
 901 1641 901 1641 944.5 1592 c 128,-1,57
 988 1543 988 1543 1012.5 1474.5 c 128,-1,58
 1037 1406 1037 1406 1039 1324 c 0,59,60
 1039 1308 1039 1308 1039 1291 c 0,61,62
 1039 1224 1039 1224 1033 1149 c 1,63,-1
 970 556 l 2,64,65
 959 451 959 451 938 369.5 c 128,-1,66
 917 288 917 288 879 217.5 c 128,-1,67
 841 147 841 147 786.5 101.5 c 128,-1,68
 732 56 732 56 652.5 30 c 128,-1,69
 573 4 573 4 470 4 c 0,0,1
EndSplineSet
EndChar

StartChar: afii10048
Encoding: 1070 1070 296
Width: 1466
GlyphClass: 2
Flags: W
LayerCount: 2
UndoRedoHistory
Layer: 1
Undoes
EndUndoes
Redoes
EndRedoes
EndUndoRedoHistory
Fore
SplineSet
896 -18 m 128,-1,1
 779 -18 779 -18 700 20.5 c 128,-1,2
 621 59 621 59 582.5 129.5 c 128,-1,3
 544 200 544 200 532 300 c 0,4,5
 526 345 526 345 526 395 c 0,6,7
 526 455 526 455 534 522 c 1,8,-1
 559 762 l 1,9,-1
 372 762 l 1,10,-1
 292 0 l 1,11,-1
 82 0 l 1,12,-1
 256 1658 l 1,13,-1
 466 1658 l 1,14,-1
 390 931 l 1,15,-1
 577 931 l 1,16,-1
 599 1145 l 2,17,18
 613 1272 613 1272 644 1366.5 c 128,-1,19
 675 1461 675 1461 730 1532 c 128,-1,20
 785 1603 785 1603 871 1639 c 128,-1,21
 957 1675 957 1675 1074 1675 c 0,22,23
 1190 1675 1190 1675 1269 1637.5 c 128,-1,24
 1348 1600 1348 1600 1387.5 1531 c 128,-1,25
 1427 1462 1427 1462 1440 1364 c 0,26,27
 1446 1318 1446 1318 1446 1268 c 0,28,29
 1446 1210 1446 1210 1438 1145 c 1,30,-1
 1372 521 l 2,31,32
 1359 395 1359 395 1327.5 299.5 c 128,-1,33
 1296 204 1296 204 1241 131 c 128,-1,34
 1186 58 1186 58 1099.5 20 c 128,-1,0
 1013 -18 1013 -18 896 -18 c 128,-1,1
916 158 m 0,35,36
 969 158 969 158 1009 172.5 c 128,-1,37
 1049 187 1049 187 1075.5 212.5 c 128,-1,38
 1102 238 1102 238 1120.5 278.5 c 128,-1,39
 1139 319 1139 319 1149 363.5 c 128,-1,40
 1159 408 1159 408 1165 468 c 2,41,-1
 1241 1197 l 2,42,43
 1246 1247 1246 1247 1246 1289 c 0,44,45
 1246 1326 1246 1326 1242 1358 c 0,46,47
 1234 1426 1234 1426 1188.5 1463 c 128,-1,48
 1143 1500 1143 1500 1056 1500 c 0,49,50
 929 1500 929 1500 875.5 1425.5 c 128,-1,51
 822 1351 822 1351 806 1197 c 2,52,-1
 730 468 l 1,53,54
 724 420 724 420 724 377 c 0,55,56
 724 358 724 358 725 340 c 0,57,58
 729 282 729 282 747 242 c 128,-1,59
 765 202 765 202 807.5 180 c 128,-1,60
 850 158 850 158 916 158 c 0,35,36
EndSplineSet
EndChar

StartChar: afii10049
Encoding: 1071 1071 297
Width: 1115
GlyphClass: 2
Flags: W
LayerCount: 2
UndoRedoHistory
Layer: 1
Undoes
EndUndoes
Redoes
EndRedoes
EndUndoRedoHistory
Fore
SplineSet
-21 0 m 1,0,-1
 404 746 l 1,1,2
 295 796 295 796 244 912 c 0,3,4
 206 998 206 998 206 1115 c 0,5,6
 206 1156 206 1156 211 1202 c 0,7,8
 259 1658 259 1658 772 1658 c 2,9,-1
 1109 1658 l 1,10,-1
 935 0 l 1,11,-1
 711 0 l 1,12,-1
 784 691 l 1,13,-1
 644 691 l 2,14,15
 641 691 641 691 617 691.5 c 128,-1,16
 593 692 593 692 591 692 c 1,17,-1
 229 0 l 1,18,-1
 -21 0 l 1,0,-1
705 852 m 2,19,-1
 801 852 l 1,20,-1
 869 1497 l 1,21,-1
 767 1497 l 2,22,23
 608 1497 608 1497 523.5 1427 c 128,-1,24
 439 1357 439 1357 423 1203 c 0,25,26
 419 1161 419 1161 419 1125 c 0,27,28
 419 1002 419 1002 468 936 c 0,29,30
 532 852 532 852 705 852 c 2,19,-1
EndSplineSet
EndChar

StartChar: afii10051
Encoding: 1026 1026 298
Width: 1112
GlyphClass: 2
Flags: W
LayerCount: 2
UndoRedoHistory
Layer: 1
Undoes
EndUndoes
Redoes
EndRedoes
EndUndoRedoHistory
Fore
SplineSet
209 0 m 1,0,-1
 366 1492 l 1,1,-1
 125 1492 l 1,2,-1
 142 1658 l 1,3,-1
 871 1658 l 1,4,-1
 854 1492 l 1,5,-1
 585 1492 l 1,6,-1
 523 899 l 1,7,8
 607 969 607 969 740 969 c 0,9,10
 802 969 802 969 858 949.5 c 128,-1,11
 914 930 914 930 959.5 891.5 c 0,12,13
 1006 852 1006 852 1028 786 c 0,14,15
 1044 738 1044 738 1044 683 c 0,16,17
 1044 660 1044 660 1041 636 c 2,18,-1
 1020 433 l 2,19,20
 997 209 997 209 889.5 104.5 c 128,-1,21
 782 0 782 0 594 0 c 2,22,-1
 557 0 l 1,23,-1
 574 161 l 1,24,25
 637 161 637 161 681.5 182 c 128,-1,26
 726 203 726 203 751 243 c 128,-1,27
 776 283 776 283 789 328 c 128,-1,28
 802 373 802 373 808 433 c 2,29,-1
 828 630 l 2,30,31
 829 644 829 644 829 657 c 0,32,33
 830 720 830 720 798 764 c 0,34,35
 760 818 760 818 676 818 c 0,36,37
 600 818 600 818 509 773 c 1,38,-1
 428 0 l 1,39,-1
 209 0 l 1,0,-1
EndSplineSet
EndChar

StartChar: afii10053
Encoding: 1028 1028 300
Width: 1029
GlyphClass: 2
Flags: W
LayerCount: 2
UndoRedoHistory
Layer: 1
Undoes
EndUndoes
Redoes
EndRedoes
EndUndoRedoHistory
Fore
SplineSet
492 -18 m 0,0,1
 389 -18 389 -18 314 9.5 c 128,-1,2
 239 37 239 37 195.5 86 c 128,-1,3
 152 135 152 135 127.5 203.5 c 128,-1,4
 103 272 103 272 101 354 c 0,5,6
 101 370 101 370 101 387 c 0,7,8
 101 454 101 454 107 529 c 1,9,-1
 170 1123 l 2,10,11
 184 1255 184 1255 214.5 1351 c 128,-1,12
 245 1447 245 1447 301.5 1522.5 c 128,-1,13
 358 1598 358 1598 450 1636.5 c 128,-1,14
 542 1675 542 1675 670 1675 c 0,15,16
 784 1675 784 1675 862 1643 c 128,-1,17
 940 1611 940 1611 981 1547.5 c 128,-1,18
 1022 1484 1022 1484 1035 1398 c 0,19,20
 1042 1354 1042 1354 1042 1302 c 0,21,22
 1042 1254 1042 1254 1036 1198 c 1,23,-1
 1029 1137 l 1,24,-1
 817 1137 l 1,25,-1
 822 1183 l 2,26,27
 826 1220 826 1220 828 1243.5 c 128,-1,28
 830 1267 830 1267 831.5 1298 c 128,-1,29
 833 1329 833 1329 831 1348.5 c 128,-1,30
 829 1368 829 1368 824.5 1392 c 128,-1,31
 820 1416 820 1416 811.5 1430 c 128,-1,32
 803 1444 803 1444 789.5 1459 c 128,-1,33
 776 1474 776 1474 757 1482 c 128,-1,34
 738 1490 738 1490 712 1495 c 128,-1,35
 686 1500 686 1500 654 1500 c 0,36,37
 596 1500 596 1500 553.5 1483 c 128,-1,38
 511 1466 511 1466 485 1439 c 128,-1,39
 459 1412 459 1412 441 1364.5 c 128,-1,40
 423 1317 423 1317 414.5 1271 c 128,-1,41
 406 1225 406 1225 398 1154 c 2,42,-1
 376 940 l 1,43,-1
 787 940 l 1,44,-1
 770 783 l 1,45,-1
 360 783 l 1,46,-1
 329 493 l 2,47,48
 322 431 322 431 322 382 c 0,49,50
 322 282 322 282 350 232 c 0,51,52
 390 158 390 158 512 158 c 0,53,54
 559 158 559 158 594 168 c 128,-1,55
 629 178 629 178 653.5 201 c 128,-1,56
 678 224 678 224 694 249 c 128,-1,57
 710 274 710 274 721 317 c 128,-1,58
 732 360 732 360 738 396.5 c 128,-1,59
 744 433 744 433 750 491 c 2,60,-1
 756 559 l 1,61,-1
 968 559 l 1,62,-1
 961 491 l 2,63,64
 949 372 949 372 920 283 c 128,-1,65
 891 194 891 194 837.5 124 c 128,-1,66
 784 54 784 54 697.5 18 c 128,-1,67
 611 -18 611 -18 492 -18 c 0,0,1
EndSplineSet
EndChar

StartChar: afii10055
Encoding: 1030 1030 302
Width: 502
GlyphClass: 2
Flags: W
LayerCount: 2
UndoRedoHistory
Layer: 1
Undoes
EndUndoes
Redoes
EndRedoes
EndUndoRedoHistory
Fore
SplineSet
94 0 m 1,0,-1
 268 1658 l 1,1,-1
 487 1658 l 1,2,-1
 313 0 l 1,3,-1
 94 0 l 1,0,-1
EndSplineSet
EndChar

StartChar: afii10057
Encoding: 1032 1032 304
Width: 613
GlyphClass: 2
Flags: W
LayerCount: 2
UndoRedoHistory
Layer: 1
Undoes
EndUndoes
Redoes
EndRedoes
EndUndoRedoHistory
Fore
SplineSet
-38 -43 m 1,0,-1
 -22 118 l 1,1,2
 57 118 57 118 103 127.5 c 128,-1,3
 149 137 149 137 180 167 c 128,-1,4
 211 197 211 197 224.5 244 c 128,-1,5
 238 291 238 291 247 374 c 2,6,-1
 381 1658 l 1,7,-1
 605 1658 l 1,8,-1
 471 369 l 2,9,10
 459 258 459 258 435 184.5 c 128,-1,11
 411 111 411 111 365.5 58 c 128,-1,12
 320 5 320 5 247.5 -19 c 128,-1,13
 175 -43 175 -43 68 -43 c 2,14,-1
 -38 -43 l 1,0,-1
EndSplineSet
EndChar

StartChar: afii10058
Encoding: 1033 1033 305
Width: 1709
GlyphClass: 2
Flags: W
LayerCount: 2
UndoRedoHistory
Layer: 1
Undoes
EndUndoes
Redoes
EndRedoes
EndUndoRedoHistory
Fore
SplineSet
-20 -1 m 1,0,-1
 -2 167 l 1,1,2
 10 166 10 166 21 166 c 0,3,4
 94 166 94 166 143 206 c 0,5,6
 199 252 199 252 242 374 c 128,-1,7
 285 496 285 496 325 730 c 1,8,-1
 477 1658 l 1,9,-1
 1201 1658 l 1,10,-1
 1128 967 l 1,11,-1
 1169 967 l 2,12,13
 1307 967 1307 967 1399.5 944.5 c 128,-1,14
 1492 922 1492 922 1554 867.5 c 128,-1,15
 1616 813 1616 813 1638 719 c 0,16,17
 1651 663 1651 663 1651 591 c 0,18,19
 1651 542 1651 542 1645 485 c 0,20,21
 1618 232 1618 232 1482 116 c 128,-1,22
 1346 0 1346 0 1079 0 c 2,23,-1
 803 0 l 1,24,-1
 960 1492 l 1,25,-1
 656 1492 l 1,26,-1
 530 730 l 2,27,28
 498 531 498 531 458.5 398 c 128,-1,29
 419 265 419 265 360 170.5 c 0,30,31
 302 76 302 76 220 34 c 0,32,33
 146 -4 146 -4 45 -3 c 0,34,35
 35 -3 35 -3 25 -3 c 1,36,-1
 -20 -1 l 1,0,-1
1044 162 m 1,37,-1
 1096 162 l 2,38,39
 1179 162 1179 162 1233.5 175 c 128,-1,40
 1288 188 1288 188 1331.5 223 c 128,-1,41
 1375 258 1375 258 1399 322.5 c 128,-1,42
 1423 387 1423 387 1434 487 c 0,43,44
 1438 527 1438 527 1438 561 c 0,45,46
 1438 677 1438 677 1392 733 c 0,47,48
 1332 806 1332 806 1159 806 c 2,49,-1
 1111 806 l 1,50,-1
 1044 162 l 1,37,-1
EndSplineSet
EndChar

StartChar: afii10059
Encoding: 1034 1034 306
Width: 1597
GlyphClass: 2
Flags: W
LayerCount: 2
UndoRedoHistory
Layer: 1
Undoes
EndUndoes
Redoes
EndRedoes
EndUndoRedoHistory
Fore
SplineSet
977 0 m 2,0,-1
 700 0 l 1,1,-1
 785 804 l 1,2,-1
 391 804 l 1,3,-1
 306 0 l 1,4,-1
 82 0 l 1,5,-1
 256 1660 l 1,6,-1
 480 1660 l 1,7,-1
 408 966 l 1,8,-1
 802 966 l 1,9,-1
 874 1660 l 1,10,-1
 1098 1660 l 1,11,-1
 1026 967 l 1,12,-1
 1068 967 l 2,13,14
 1206 967 1206 967 1298.5 944.5 c 128,-1,15
 1391 922 1391 922 1453 867.5 c 0,16,17
 1514 813 1514 813 1536 719 c 0,18,19
 1549 664 1549 664 1549 592 c 0,20,21
 1549 542 1549 542 1543 485 c 0,22,23
 1517 232 1517 232 1380.5 116 c 128,-1,24
 1244 0 1244 0 977 0 c 2,0,-1
941 162 m 1,25,-1
 995 162 l 2,26,27
 1078 162 1078 162 1132.5 175 c 128,-1,28
 1187 188 1187 188 1230.5 223 c 128,-1,29
 1274 258 1274 258 1298 322.5 c 128,-1,30
 1322 387 1322 387 1332 487 c 0,31,32
 1336 527 1336 527 1336 562 c 0,33,34
 1336 677 1336 677 1290 733 c 0,35,36
 1230 806 1230 806 1058 806 c 2,37,-1
 1008 806 l 1,38,-1
 941 162 l 1,25,-1
EndSplineSet
EndChar

StartChar: afii10060
Encoding: 1035 1035 307
Width: 1016
GlyphClass: 2
Flags: W
LayerCount: 2
UndoRedoHistory
Layer: 1
Undoes
EndUndoes
Redoes
EndRedoes
EndUndoRedoHistory
Fore
SplineSet
181 0 m 1,0,-1
 338 1492 l 1,1,-1
 91 1492 l 1,2,-1
 108 1658 l 1,3,-1
 846 1658 l 1,4,-1
 829 1492 l 1,5,-1
 557 1492 l 1,6,-1
 495 899 l 1,7,8
 506 907 506 907 529 919.5 c 128,-1,9
 552 932 552 932 608.5 948.5 c 128,-1,10
 665 965 665 965 724 965 c 0,11,12
 830 966 830 966 892 912 c 0,13,14
 946 866 946 866 946 793 c 0,15,16
 946 781 946 781 945 769 c 2,17,-1
 864 0 l 1,18,-1
 652 0 l 1,19,-1
 728 720 l 2,20,21
 729 733 729 733 729 745 c 0,22,23
 728 784 728 784 714 804 c 0,24,25
 694 832 694 832 640 831 c 0,26,27
 606 831 606 831 567.5 817.5 c 128,-1,28
 529 804 529 804 511 793 c 128,-1,29
 493 782 493 782 481 773 c 1,30,-1
 400 0 l 1,31,-1
 181 0 l 1,0,-1
EndSplineSet
EndChar

StartChar: afii10066
Encoding: 1073 1073 311
Width: 897
GlyphClass: 2
Flags: W
LayerCount: 2
UndoRedoHistory
Layer: 1
Undoes
EndUndoes
Redoes
EndRedoes
EndUndoRedoHistory
Fore
SplineSet
391 -17 m 0,0,1
 390 -17 390 -17 388 -17 c 0,2,3
 233 -17 233 -17 157 87 c 0,4,5
 96 169 96 169 96 311 c 0,6,7
 96 349 96 349 101 392 c 2,8,-1
 166 1013 l 2,9,10
 179 1134 179 1134 193.5 1221.5 c 128,-1,11
 208 1309 208 1309 228.5 1373.5 c 128,-1,12
 249 1438 249 1438 270 1478.5 c 128,-1,13
 291 1519 291 1519 324 1547 c 128,-1,14
 357 1575 357 1575 389 1589.5 c 128,-1,15
 421 1604 421 1604 471.5 1617.5 c 128,-1,16
 522 1631 522 1631 569.5 1640.5 c 128,-1,17
 617 1650 617 1650 689 1670 c 128,-1,18
 761 1690 761 1690 829 1716 c 1,19,-1
 863 1543 l 1,20,21
 787 1511 787 1511 711.5 1492.5 c 128,-1,22
 636 1474 636 1474 595.5 1468.5 c 128,-1,23
 555 1463 555 1463 515.5 1449.5 c 128,-1,24
 476 1436 476 1436 456 1406.5 c 128,-1,25
 436 1377 436 1377 420 1318 c 128,-1,26
 404 1259 404 1259 393 1156 c 2,27,-1
 378 1017 l 1,28,29
 491 1087 491 1087 604 1087 c 0,30,31
 650 1087 650 1087 687.5 1073.5 c 128,-1,32
 725 1060 725 1060 756.5 1029.5 c 128,-1,33
 788 999 788 999 806 949.5 c 128,-1,34
 824 900 824 900 832 828 c 0,35,36
 835 799 835 799 835 766 c 0,37,38
 835 717 835 717 828 660 c 1,39,-1
 805 436 l 2,40,41
 794 328 794 328 767.5 247.5 c 128,-1,42
 741 167 741 167 705 117 c 128,-1,43
 669 67 669 67 618 36.5 c 128,-1,44
 567 6 567 6 513.5 -5.5 c 128,-1,45
 460 -17 460 -17 391 -17 c 0,0,1
427 140 m 1,46,47
 498 141 498 141 535 193.5 c 128,-1,48
 572 246 572 246 585 372 c 2,49,-1
 623 724 l 2,50,51
 628 768 628 768 628 803 c 0,52,53
 628 862 628 862 615 892 c 0,54,55
 595 942 595 942 535 941 c 0,56,57
 462 941 462 941 364 878 c 1,58,-1
 312 385 l 2,59,60
 307 339 307 339 307 302 c 0,61,62
 306 232 306 232 324 196 c 0,63,64
 350 140 350 140 427 140 c 1,46,47
EndSplineSet
EndChar

StartChar: afii10067
Encoding: 1074 1074 312
Width: 845
GlyphClass: 2
Flags: W
LayerCount: 2
UndoRedoHistory
Layer: 1
Undoes
EndUndoes
Redoes
EndRedoes
EndUndoRedoHistory
Fore
SplineSet
63 0 m 1,0,-1
 187 1184 l 1,1,-1
 513 1184 l 2,2,3
 600 1184 600 1184 661 1161 c 128,-1,4
 722 1138 722 1138 753 1097 c 128,-1,5
 784 1056 784 1056 795 1008 c 0,6,7
 803 975 803 975 803 936 c 0,8,9
 803 919 803 919 801 900 c 0,10,11
 783 695 783 695 621 646 c 1,12,13
 776 613 776 613 776 410 c 0,14,15
 776 379 776 379 772 345 c 0,16,17
 755 177 755 177 671 88.5 c 128,-1,18
 587 0 587 0 401 0 c 2,19,-1
 63 0 l 1,0,-1
286 160 m 1,20,-1
 371 160 l 2,21,22
 454 160 454 160 503.5 201.5 c 128,-1,23
 553 243 553 243 564 352 c 1,24,25
 565 386 565 386 567 413 c 128,-1,26
 569 440 569 440 563 460.5 c 128,-1,27
 557 481 557 481 552 496 c 128,-1,28
 547 511 547 511 535 521 c 128,-1,29
 523 531 523 531 512.5 537 c 128,-1,30
 502 543 502 543 485.5 546.5 c 128,-1,31
 469 550 469 550 455 551 c 128,-1,32
 441 552 441 552 421 552 c 2,33,-1
 328 552 l 1,34,-1
 286 160 l 1,20,-1
343 705 m 1,35,-1
 455 705 l 2,36,37
 523 705 523 705 563 745 c 128,-1,38
 603 785 603 785 613 875 c 1,39,40
 614 889 614 889 614 902 c 0,41,42
 614 962 614 962 583 992 c 0,43,44
 545 1028 545 1028 467 1028 c 2,45,-1
 378 1028 l 1,46,-1
 343 705 l 1,35,-1
EndSplineSet
EndChar

StartChar: afii10068
Encoding: 1075 1075 313
Width: 593
GlyphClass: 2
Flags: W
LayerCount: 2
UndoRedoHistory
Layer: 1
Undoes
EndUndoes
Redoes
EndRedoes
EndUndoRedoHistory
Fore
SplineSet
63 0 m 1,0,-1
 187 1184 l 1,1,-1
 659 1184 l 1,2,-1
 643 1032 l 1,3,-1
 383 1032 l 1,4,-1
 274 0 l 1,5,-1
 63 0 l 1,0,-1
EndSplineSet
EndChar

StartChar: afii10069
Encoding: 1076 1076 314
Width: 1011
GlyphClass: 2
Flags: W
LayerCount: 2
UndoRedoHistory
Layer: 1
Undoes
EndUndoes
Redoes
EndRedoes
EndUndoRedoHistory
Fore
SplineSet
-75 -300 m 1,0,-1
 -28 142 l 1,1,2
 42 191 42 191 95 252.5 c 128,-1,3
 148 314 148 314 198.5 413.5 c 128,-1,4
 249 513 249 513 286.5 663.5 c 128,-1,5
 324 814 324 814 347 1016 c 1,6,-1
 370 1184 l 1,7,-1
 902 1184 l 1,8,-1
 795 151 l 1,9,-1
 935 151 l 1,10,-1
 888 -300 l 1,11,-1
 733 -300 l 1,12,-1
 746 0 l 1,13,-1
 131 0 l 1,14,-1
 81 -300 l 1,15,-1
 -75 -300 l 1,0,-1
182 151 m 1,16,-1
 590 151 l 1,17,-1
 683 1031 l 1,18,-1
 520 1031 l 1,19,-1
 509 973 l 1,20,21
 485 766 485 766 450.5 617.5 c 128,-1,22
 416 469 416 469 371.5 378.5 c 128,-1,23
 327 288 327 288 283.5 238 c 128,-1,24
 240 188 240 188 182 151 c 1,16,-1
EndSplineSet
EndChar

StartChar: afii10072
Encoding: 1078 1078 317
Width: 1177
GlyphClass: 2
Flags: W
LayerCount: 2
UndoRedoHistory
Layer: 1
Undoes
EndUndoes
Redoes
EndRedoes
EndUndoRedoHistory
Fore
SplineSet
-41 0 m 1,0,-1
 324 604 l 1,1,-1
 101 1184 l 1,2,-1
 304 1184 l 1,3,-1
 500 614 l 1,4,-1
 517 614 l 1,5,-1
 577 1184 l 1,6,-1
 752 1184 l 1,7,-1
 692 614 l 1,8,-1
 708 614 l 1,9,-1
 1023 1184 l 1,10,-1
 1225 1184 l 1,11,-1
 882 604 l 1,12,-1
 1120 0 l 1,13,-1
 923 0 l 1,14,-1
 706 581 l 1,15,-1
 689 581 l 1,16,-1
 628 0 l 1,17,-1
 453 0 l 1,18,-1
 514 581 l 1,19,-1
 496 581 l 1,20,-1
 157 0 l 1,21,-1
 -41 0 l 1,0,-1
EndSplineSet
EndChar

StartChar: afii10073
Encoding: 1079 1079 318
Width: 765
GlyphClass: 2
Flags: W
LayerCount: 2
UndoRedoHistory
Layer: 1
Undoes
EndUndoes
Redoes
EndRedoes
EndUndoRedoHistory
Fore
SplineSet
338 -20 m 0,0,1
 176 -20 176 -20 110 72 c 0,2,3
 59 143 59 143 59 275 c 0,4,5
 59 315 59 315 64 360 c 1,6,-1
 245 360 l 1,7,8
 241 323 241 323 241 292 c 0,9,10
 240 224 240 224 260 186 c 0,11,12
 288 131 288 131 356 131 c 0,13,14
 388 131 388 131 411.5 142 c 128,-1,15
 435 153 435 153 450 171 c 128,-1,16
 465 189 465 189 475.5 219 c 128,-1,17
 486 249 486 249 491.5 279 c 128,-1,18
 497 309 497 309 501 352 c 0,19,20
 504 375 504 375 504 395 c 0,21,22
 504 471 504 471 468 500 c 0,23,24
 422 536 422 536 281 536 c 1,25,-1
 297 686 l 1,26,27
 435 686 435 686 489.5 728 c 128,-1,28
 544 770 544 770 556 872 c 0,29,30
 558 892 558 892 558 910 c 0,31,32
 558 966 558 966 534 1000 c 0,33,34
 502 1044 502 1044 441 1044 c 0,35,36
 373 1044 373 1044 333.5 1001 c 128,-1,37
 294 958 294 958 283 847 c 1,38,-1
 101 847 l 1,39,40
 121 1035 121 1035 214 1118 c 128,-1,41
 307 1201 307 1201 466 1201 c 0,42,43
 545 1201 545 1201 603.5 1174.5 c 128,-1,44
 662 1148 662 1148 693.5 1102.5 c 0,45,46
 725 1058 725 1058 737 1002 c 0,47,48
 745 967 745 967 745 929 c 0,49,50
 745 907 745 907 742 884 c 0,51,52
 735 812 735 812 711 758.5 c 128,-1,53
 687 705 687 705 653 676 c 128,-1,54
 619 647 619 647 585 632.5 c 128,-1,55
 551 618 551 618 514 615 c 1,56,57
 531 611 531 611 541.5 608 c 128,-1,58
 552 605 552 605 568.5 599.5 c 128,-1,59
 585 594 585 594 595.5 588 c 128,-1,60
 606 582 606 582 620 573 c 128,-1,61
 634 564 634 564 642.5 552 c 128,-1,62
 651 540 651 540 661 524.5 c 128,-1,63
 671 509 671 509 676 489 c 128,-1,64
 681 469 681 469 685 444.5 c 128,-1,65
 689 420 689 420 689 389.5 c 128,-1,66
 689 359 689 359 685 323 c 0,67,68
 668 155 668 155 581 67.5 c 128,-1,69
 494 -20 494 -20 338 -20 c 0,0,1
EndSplineSet
EndChar

StartChar: afii10074
Encoding: 1080 1080 319
Width: 929
GlyphClass: 2
Flags: W
LayerCount: 2
UndoRedoHistory
Layer: 1
Undoes
EndUndoes
Redoes
EndRedoes
EndUndoRedoHistory
Fore
SplineSet
63 0 m 1,0,-1
 187 1184 l 1,1,-1
 365 1184 l 1,2,-1
 281 376 l 1,3,-1
 726 1184 l 1,4,-1
 893 1184 l 1,5,-1
 769 0 l 1,6,-1
 593 0 l 1,7,-1
 679 814 l 1,8,-1
 234 0 l 1,9,-1
 63 0 l 1,0,-1
EndSplineSet
EndChar

StartChar: afii10076
Encoding: 1082 1082 321
Width: 843
GlyphClass: 2
Flags: W
LayerCount: 2
UndoRedoHistory
Layer: 1
Undoes
EndUndoes
Redoes
EndRedoes
EndUndoRedoHistory
Fore
SplineSet
63 0 m 1,0,-1
 187 1184 l 1,1,-1
 398 1184 l 1,2,-1
 347 683 l 1,3,-1
 412 683 l 1,4,-1
 690 1184 l 1,5,-1
 908 1184 l 1,6,-1
 596 611 l 1,7,-1
 788 0 l 1,8,-1
 566 0 l 1,9,-1
 397 554 l 1,10,-1
 333 554 l 1,11,-1
 274 0 l 1,12,-1
 63 0 l 1,0,-1
EndSplineSet
EndChar

StartChar: afii10077
Encoding: 1083 1083 322
Width: 987
GlyphClass: 2
Flags: W
LayerCount: 2
UndoRedoHistory
Layer: 1
Undoes
EndUndoes
Redoes
EndRedoes
EndUndoRedoHistory
Fore
SplineSet
-16 -10 m 1,0,-1
 1 150 l 1,1,2
 32 150 32 150 56 155 c 128,-1,3
 80 160 80 160 101 175 c 128,-1,4
 122 190 122 190 137 207 c 128,-1,5
 152 224 152 224 166.5 258.5 c 128,-1,6
 181 293 181 293 191.5 326 c 128,-1,7
 202 359 202 359 214 417 c 128,-1,8
 226 475 226 475 235.5 528.5 c 128,-1,9
 245 582 245 582 259 668 c 2,10,-1
 341 1184 l 1,11,-1
 951 1184 l 1,12,-1
 827 0 l 1,13,-1
 615 0 l 1,14,-1
 723 1022 l 1,15,-1
 509 1022 l 1,16,-1
 453 668 l 2,17,18
 431 525 431 525 410.5 428.5 c 128,-1,19
 390 332 390 332 363 252 c 128,-1,20
 336 172 336 172 306 125 c 128,-1,21
 276 78 276 78 231.5 46 c 128,-1,22
 187 14 187 14 134.5 2 c 128,-1,23
 82 -10 82 -10 8 -10 c 2,24,-1
 -16 -10 l 1,0,-1
EndSplineSet
EndChar

StartChar: afii10078
Encoding: 1084 1084 323
Width: 1076
GlyphClass: 2
Flags: W
LayerCount: 2
UndoRedoHistory
Layer: 1
Undoes
EndUndoes
Redoes
EndRedoes
EndUndoRedoHistory
Fore
SplineSet
56 0 m 1,0,-1
 192 1184 l 1,1,-1
 348 1184 l 1,2,-1
 536 448 l 1,3,-1
 878 1184 l 1,4,-1
 1035 1184 l 1,5,-1
 923 0 l 1,6,-1
 745 0 l 1,7,-1
 820 719 l 1,8,-1
 534 117 l 1,9,-1
 469 117 l 1,10,-1
 310 716 l 1,11,-1
 234 0 l 1,12,-1
 56 0 l 1,0,-1
EndSplineSet
EndChar

StartChar: afii10079
Encoding: 1085 1085 324
Width: 935
GlyphClass: 2
Flags: W
LayerCount: 2
UndoRedoHistory
Layer: 1
Undoes
EndUndoes
Redoes
EndRedoes
EndUndoRedoHistory
Fore
SplineSet
63 0 m 1,0,-1
 187 1184 l 1,1,-1
 398 1184 l 1,2,-1
 347 685 l 1,3,-1
 636 685 l 1,4,-1
 688 1184 l 1,5,-1
 900 1184 l 1,6,-1
 776 0 l 1,7,-1
 564 0 l 1,8,-1
 620 529 l 1,9,-1
 330 529 l 1,10,-1
 274 0 l 1,11,-1
 63 0 l 1,0,-1
EndSplineSet
EndChar

StartChar: afii10081
Encoding: 1087 1087 326
Width: 904
GlyphClass: 2
Flags: W
LayerCount: 2
UndoRedoHistory
Layer: 1
Undoes
EndUndoes
Redoes
EndRedoes
EndUndoRedoHistory
Fore
SplineSet
63 0 m 1,0,-1
 187 1184 l 1,1,-1
 868 1184 l 1,2,-1
 744 0 l 1,3,-1
 533 0 l 1,4,-1
 640 1022 l 1,5,-1
 382 1022 l 1,6,-1
 274 0 l 1,7,-1
 63 0 l 1,0,-1
EndSplineSet
EndChar

StartChar: afii10084
Encoding: 1090 1090 329
Width: 706
GlyphClass: 2
Flags: W
LayerCount: 2
UndoRedoHistory
Layer: 1
Undoes
EndUndoes
Redoes
EndRedoes
EndUndoRedoHistory
Fore
SplineSet
197 0 m 1,0,-1
 305 1025 l 1,1,-1
 80 1025 l 1,2,-1
 97 1184 l 1,3,-1
 761 1184 l 1,4,-1
 744 1025 l 1,5,-1
 517 1025 l 1,6,-1
 409 0 l 1,7,-1
 197 0 l 1,0,-1
EndSplineSet
EndChar

StartChar: afii10085
Encoding: 1091 1091 330
Width: 809
GlyphClass: 2
Flags: W
LayerCount: 2
UndoRedoHistory
Layer: 1
Undoes
EndUndoes
Redoes
EndRedoes
EndUndoRedoHistory
Fore
SplineSet
18 -301 m 1,0,-1
 37 -126 l 1,1,2
 170 -124 170 -124 214 -78 c 0,3,4
 246 -45 246 -45 246 34 c 0,5,6
 246 63 246 63 242 97 c 2,7,-1
 109 1184 l 1,8,-1
 307 1184 l 1,9,-1
 361 568 l 1,10,-1
 383 191 l 1,11,-1
 474 566 l 1,12,-1
 638 1184 l 1,13,-1
 845 1184 l 1,14,-1
 462 -7 l 2,15,16
 433 -99 433 -99 391 -158.5 c 128,-1,17
 349 -218 349 -218 290 -248.5 c 128,-1,18
 231 -279 231 -279 169.5 -289.5 c 128,-1,19
 108 -300 108 -300 18 -301 c 1,0,-1
EndSplineSet
EndChar

StartChar: afii10086
Encoding: 1092 1092 331
Width: 1232
GlyphClass: 2
Flags: W
LayerCount: 2
UndoRedoHistory
Layer: 1
Undoes
EndUndoes
Redoes
EndRedoes
EndUndoRedoHistory
Fore
SplineSet
427 -390 m 1,0,-1
 475 67 l 1,1,-1
 453 67 l 2,2,3
 90 67 90 67 90 430 c 0,4,5
 90 472 90 472 95 519 c 2,6,-1
 117 732 l 2,7,8
 129 844 129 844 169.5 928.5 c 128,-1,9
 210 1013 210 1013 270.5 1062.5 c 128,-1,10
 331 1112 331 1112 403.5 1136.5 c 128,-1,11
 476 1161 476 1161 560 1161 c 2,12,-1
 590 1161 l 1,13,-1
 642 1658 l 1,14,-1
 838 1658 l 1,15,-1
 786 1161 l 1,16,-1
 824 1161 l 2,17,18
 908 1161 908 1161 974.5 1136.5 c 128,-1,19
 1041 1112 1041 1112 1090 1062.5 c 0,20,21
 1139 1012 1139 1012 1161 928 c 0,22,23
 1175 873 1175 873 1175 808 c 0,24,25
 1175 772 1175 772 1171 732 c 2,26,-1
 1149 519 l 1,27,28
 1101 67 1101 67 702 67 c 2,29,-1
 672 67 l 1,30,-1
 623 -390 l 1,31,-1
 427 -390 l 1,0,-1
474 217 m 2,32,-1
 490 217 l 1,33,-1
 575 1022 l 1,34,-1
 552 1022 l 2,35,36
 500 1022 500 1022 462.5 1011 c 128,-1,37
 425 1000 425 1000 392.5 972 c 128,-1,38
 360 944 360 944 340 892 c 128,-1,39
 320 840 320 840 312 762 c 2,40,-1
 286 520 l 1,41,42
 280 475 280 475 280 438 c 0,43,44
 280 416 280 416 282 396 c 0,45,46
 288 344 288 344 300.5 309 c 128,-1,47
 313 274 313 274 339.5 254 c 128,-1,48
 366 234 366 234 397.5 225.5 c 128,-1,49
 429 217 429 217 474 217 c 2,32,-1
687 217 m 1,50,-1
 702 217 l 2,51,52
 817 217 817 217 878 282 c 128,-1,53
 939 347 939 347 958 520 c 1,54,-1
 983 762 l 2,55,56
 987 797 987 797 987 827 c 0,57,58
 988 864 988 864 982 892 c 0,59,60
 972 944 972 944 944.5 972 c 128,-1,61
 917 1000 917 1000 881.5 1011 c 128,-1,62
 846 1022 846 1022 794 1022 c 2,63,-1
 771 1022 l 1,64,-1
 687 217 l 1,50,-1
EndSplineSet
EndChar

StartChar: afii10088
Encoding: 1094 1094 333
Width: 984
GlyphClass: 2
Flags: W
LayerCount: 2
UndoRedoHistory
Layer: 1
Undoes
EndUndoes
Redoes
EndRedoes
EndUndoRedoHistory
Fore
SplineSet
732 -300 m 1,0,-1
 745 0 l 1,1,-1
 63 0 l 1,2,-1
 187 1184 l 1,3,-1
 398 1184 l 1,4,-1
 291 151 l 1,5,-1
 581 151 l 1,6,-1
 689 1184 l 1,7,-1
 901 1184 l 1,8,-1
 793 151 l 1,9,-1
 933 151 l 1,10,-1
 886 -300 l 1,11,-1
 732 -300 l 1,0,-1
EndSplineSet
EndChar

StartChar: afii10089
Encoding: 1095 1095 334
Width: 879
GlyphClass: 2
Flags: W
LayerCount: 2
UndoRedoHistory
Layer: 1
Undoes
EndUndoes
Redoes
EndRedoes
EndUndoRedoHistory
Fore
SplineSet
507 0 m 1,0,-1
 556 472 l 1,1,2
 458 459 458 459 395 459 c 0,3,4
 325 459 325 459 272 472.5 c 128,-1,5
 219 486 219 486 177 518 c 0,6,7
 134 550 134 550 116 609 c 0,8,9
 104 649 104 649 104 700 c 0,10,11
 104 725 104 725 107 752 c 2,12,-1
 152 1184 l 1,13,-1
 364 1184 l 1,14,-1
 319 749 l 2,15,16
 318 736 318 736 318 723 c 0,17,18
 318 672 318 672 342 644 c 0,19,20
 372 610 372 610 460 610 c 0,21,22
 512 610 512 610 572 620 c 1,23,-1
 631 1184 l 1,24,-1
 843 1184 l 1,25,-1
 719 0 l 1,26,-1
 507 0 l 1,0,-1
EndSplineSet
EndChar

StartChar: afii10090
Encoding: 1096 1096 335
Width: 1270
GlyphClass: 2
Flags: W
LayerCount: 2
UndoRedoHistory
Layer: 1
Undoes
EndUndoes
Redoes
EndRedoes
EndUndoRedoHistory
Fore
SplineSet
63 0 m 1,0,-1
 187 1184 l 1,1,-1
 392 1184 l 1,2,-1
 284 151 l 1,3,-1
 496 151 l 1,4,-1
 604 1184 l 1,5,-1
 809 1184 l 1,6,-1
 701 151 l 1,7,-1
 921 151 l 1,8,-1
 1029 1184 l 1,9,-1
 1234 1184 l 1,10,-1
 1110 0 l 1,11,-1
 63 0 l 1,0,-1
EndSplineSet
EndChar

StartChar: afii10091
Encoding: 1097 1097 336
Width: 1361
GlyphClass: 2
Flags: W
LayerCount: 2
UndoRedoHistory
Layer: 1
Undoes
EndUndoes
Redoes
EndRedoes
EndUndoRedoHistory
Fore
SplineSet
1067 -300 m 1,0,-1
 1080 0 l 1,1,-1
 63 0 l 1,2,-1
 187 1184 l 1,3,-1
 391 1184 l 1,4,-1
 283 151 l 1,5,-1
 497 151 l 1,6,-1
 605 1184 l 1,7,-1
 810 1184 l 1,8,-1
 702 151 l 1,9,-1
 923 151 l 1,10,-1
 1031 1184 l 1,11,-1
 1236 1184 l 1,12,-1
 1128 151 l 1,13,-1
 1269 151 l 1,14,-1
 1221 -300 l 1,15,-1
 1067 -300 l 1,0,-1
EndSplineSet
EndChar

StartChar: afii10092
Encoding: 1098 1098 337
Width: 979
GlyphClass: 2
Flags: W
LayerCount: 2
UndoRedoHistory
Layer: 1
Undoes
EndUndoes
Redoes
EndRedoes
EndUndoRedoHistory
Fore
SplineSet
189 0 m 1,0,-1
 297 1027 l 1,1,-1
 51 1027 l 1,2,-1
 68 1184 l 1,3,-1
 525 1184 l 1,4,-1
 474 695 l 1,5,-1
 514 695 l 1,6,7
 639 694 639 694 718 678 c 128,-1,8
 797 662 797 662 847 622 c 0,9,10
 898 582 898 582 914 516 c 0,11,12
 924 477 924 477 923 425 c 0,13,14
 923 390 923 390 919 349 c 0,15,16
 899 157 899 157 787.5 78.5 c 128,-1,17
 676 0 676 0 420 0 c 2,18,-1
 189 0 l 1,0,-1
415 126 m 1,19,-1
 433 126 l 2,20,21
 590 126 590 126 652 172.5 c 128,-1,22
 714 219 714 219 727 350 c 0,23,24
 730 377 730 377 730 400 c 0,25,26
 730 446 730 446 719 476 c 0,27,28
 703 521 703 521 648.5 544.5 c 128,-1,29
 594 568 594 568 488 569 c 1,30,-1
 461 569 l 1,31,-1
 415 126 l 1,19,-1
EndSplineSet
EndChar

StartChar: afii10093
Encoding: 1099 1099 338
Width: 1263
GlyphClass: 2
Flags: W
LayerCount: 2
UndoRedoHistory
Layer: 1
Undoes
EndUndoes
Redoes
EndRedoes
EndUndoRedoHistory
Fore
SplineSet
63 0 m 1,0,-1
 187 1184 l 1,1,-1
 398 1184 l 1,2,-1
 348 695 l 1,3,-1
 387 695 l 1,4,5
 512 694 512 694 591 678 c 128,-1,6
 670 662 670 662 720.5 622 c 128,-1,7
 771 582 771 582 787 516 c 0,8,9
 796 477 796 477 796 426 c 0,10,11
 796 391 796 391 792 349 c 0,12,13
 772 157 772 157 660.5 78.5 c 128,-1,14
 549 0 549 0 293 0 c 2,15,-1
 63 0 l 1,0,-1
288 126 m 1,16,-1
 307 126 l 2,17,18
 463 126 463 126 525 172.5 c 128,-1,19
 587 219 587 219 601 350 c 0,20,21
 605 380 605 380 604.5 405 c 128,-1,22
 604 430 604 430 601 450 c 0,23,24
 594 489 594 489 567.5 516.5 c 128,-1,25
 541 544 541 544 491 556 c 128,-1,26
 441 568 441 568 361 569 c 1,27,-1
 334 569 l 1,28,-1
 288 126 l 1,16,-1
891 0 m 1,29,-1
 1015 1184 l 1,30,-1
 1227 1184 l 1,31,-1
 1103 0 l 1,32,-1
 891 0 l 1,29,-1
EndSplineSet
EndChar

StartChar: afii10094
Encoding: 1100 1100 339
Width: 843
GlyphClass: 2
Flags: W
LayerCount: 2
UndoRedoHistory
Layer: 1
Undoes
EndUndoes
Redoes
EndRedoes
EndUndoRedoHistory
Fore
SplineSet
63 0 m 1,0,-1
 187 1184 l 1,1,-1
 398 1184 l 1,2,-1
 348 695 l 1,3,-1
 387 695 l 1,4,5
 512 694 512 694 591 678 c 128,-1,6
 670 662 670 662 720.5 622 c 128,-1,7
 771 582 771 582 787 516 c 0,8,9
 796 477 796 477 796 426 c 0,10,11
 796 391 796 391 792 349 c 0,12,13
 772 157 772 157 660.5 78.5 c 128,-1,14
 549 0 549 0 293 0 c 2,15,-1
 63 0 l 1,0,-1
288 126 m 1,16,-1
 307 126 l 2,17,18
 463 126 463 126 525 172.5 c 128,-1,19
 587 219 587 219 601 350 c 0,20,21
 605 380 605 380 604.5 405 c 128,-1,22
 604 430 604 430 601 450 c 0,23,24
 594 489 594 489 567.5 516.5 c 128,-1,25
 541 544 541 544 491 556 c 128,-1,26
 441 568 441 568 361 569 c 1,27,-1
 334 569 l 1,28,-1
 288 126 l 1,16,-1
EndSplineSet
EndChar

StartChar: afii10095
Encoding: 1101 1101 340
Width: 841
GlyphClass: 2
Flags: W
LayerCount: 2
UndoRedoHistory
Layer: 1
Undoes
EndUndoes
Redoes
EndRedoes
EndUndoRedoHistory
Fore
SplineSet
359 -17 m 0,0,1
 264 -17 264 -17 203 6.5 c 128,-1,2
 142 30 142 30 112 76.5 c 0,3,4
 82 124 82 124 74 192 c 0,5,6
 70 222 70 222 70 255 c 0,7,8
 70 299 70 299 76 350 c 2,9,-1
 80 382 l 1,10,-1
 272 382 l 1,11,-1
 268 350 l 1,12,13
 264 310 264 310 264 278 c 0,14,15
 264 217 264 217 279 186 c 0,16,17
 302 139 302 139 374 139 c 0,18,19
 456 139 456 139 487 196 c 128,-1,20
 518 253 518 253 534 412 c 1,21,-1
 547 532 l 1,22,-1
 260 532 l 1,23,-1
 273 652 l 1,24,-1
 559 652 l 1,25,-1
 573 779 l 1,26,27
 581 843 581 843 581 889 c 0,28,29
 581 918 581 918 578 940 c 0,30,31
 570 998 570 998 545 1019 c 128,-1,32
 520 1040 520 1040 467 1040 c 0,33,34
 390 1040 390 1040 360 989.5 c 128,-1,35
 330 939 330 939 319 835 c 1,36,-1
 314 778 l 1,37,-1
 121 778 l 1,38,-1
 126 821 l 1,39,40
 145 1009 145 1009 226 1103.5 c 128,-1,41
 307 1198 307 1198 488 1198 c 0,42,43
 594 1198 594 1198 660 1164.5 c 128,-1,44
 726 1131 726 1131 753.5 1069.5 c 0,45,46
 782 1008 782 1008 788 921 c 0,47,48
 790 893 790 893 790 864 c 0,49,50
 790 800 790 800 780 727 c 1,51,-1
 751 455 l 2,52,53
 738 335 738 335 715.5 253.5 c 128,-1,54
 693 172 693 172 649.5 108 c 128,-1,55
 606 44 606 44 534.5 13.5 c 128,-1,56
 463 -17 463 -17 359 -17 c 0,0,1
EndSplineSet
EndChar

StartChar: afii10096
Encoding: 1102 1102 341
Width: 1165
GlyphClass: 2
Flags: W
LayerCount: 2
UndoRedoHistory
Layer: 1
Undoes
EndUndoes
Redoes
EndRedoes
EndUndoRedoHistory
Fore
SplineSet
717 -17 m 128,-1,1
 630 -17 630 -17 572 13.5 c 128,-1,2
 514 44 514 44 487 101 c 128,-1,3
 460 158 460 158 452 239 c 0,4,5
 449 270 449 270 450 304 c 0,6,7
 450 359 450 359 457 421 c 1,8,-1
 467 522 l 1,9,-1
 304 522 l 1,10,-1
 250 0 l 1,11,-1
 63 0 l 1,12,-1
 187 1184 l 1,13,-1
 374 1184 l 1,14,-1
 319 662 l 1,15,-1
 483 662 l 1,16,-1
 493 762 l 2,17,18
 504 868 504 868 526.5 945 c 128,-1,19
 549 1022 549 1022 589.5 1081.5 c 128,-1,20
 630 1141 630 1141 694 1171 c 128,-1,21
 758 1201 758 1201 845 1201 c 128,-1,22
 932 1201 932 1201 989.5 1170 c 128,-1,23
 1047 1139 1047 1139 1074.5 1082 c 128,-1,24
 1102 1025 1102 1025 1110 944 c 0,25,26
 1113 913 1113 913 1113 879 c 0,27,28
 1113 824 1113 824 1105 762 c 1,29,-1
 1069 421 l 2,30,31
 1058 316 1058 316 1035 238.5 c 128,-1,32
 1012 161 1012 161 971.5 102 c 128,-1,33
 931 43 931 43 867.5 13 c 128,-1,0
 804 -17 804 -17 717 -17 c 128,-1,1
734 140 m 0,34,35
 759 140 759 140 778.5 148.5 c 128,-1,36
 798 157 798 157 812 168 c 128,-1,37
 826 179 826 179 837 202 c 128,-1,38
 848 225 848 225 854 242.5 c 128,-1,39
 860 260 860 260 866 294 c 128,-1,40
 872 328 872 328 874.5 348 c 128,-1,41
 877 368 877 368 881 407 c 2,42,-1
 920 775 l 2,43,44
 925 820 925 820 926.5 844 c 128,-1,45
 928 868 928 868 928 906 c 0,46,47
 928 909 928 909 929 912 c 0,48,49
 930 945 930 945 924 963 c 0,50,51
 918 983 918 983 907.5 1004 c 128,-1,52
 897 1025 897 1025 877 1034.5 c 128,-1,53
 857 1044 857 1044 828 1044 c 0,54,55
 800 1044 800 1044 778 1034.5 c 128,-1,56
 756 1025 756 1025 741 1004 c 128,-1,57
 726 983 726 983 716 962.5 c 128,-1,58
 706 942 706 942 699 906 c 128,-1,59
 692 870 692 870 688.5 844 c 128,-1,60
 685 818 685 818 681 775 c 2,61,-1
 642 407 l 1,62,63
 636 335 636 335 633 276 c 0,64,65
 633 270 633 270 633 263 c 0,66,67
 632 212 632 212 654 178 c 0,68,69
 678 140 678 140 734 140 c 0,34,35
EndSplineSet
EndChar

StartChar: afii10097
Encoding: 1103 1103 342
Width: 878
GlyphClass: 2
Flags: W
LayerCount: 2
UndoRedoHistory
Layer: 1
Undoes
EndUndoes
Redoes
EndRedoes
EndUndoRedoHistory
Fore
SplineSet
-27 0 m 1,0,-1
 250 503 l 1,1,2
 117 554 117 554 117 753 c 0,3,4
 117 789 117 789 121 829 c 0,5,6
 140 1017 140 1017 251.5 1100 c 128,-1,7
 363 1183 363 1183 614 1184 c 1,8,-1
 842 1184 l 1,9,-1
 718 0 l 1,10,-1
 507 0 l 1,11,-1
 556 468 l 1,12,13
 495 468 495 468 447 472 c 1,14,-1
 202 0 l 1,15,-1
 -27 0 l 1,0,-1
542 591 m 1,16,-1
 569 591 l 1,17,-1
 618 1061 l 1,18,-1
 591 1061 l 2,19,20
 447 1061 447 1061 386.5 1008.5 c 128,-1,21
 326 956 326 956 312 828 c 1,22,23
 310 804 310 804 310 782 c 0,24,25
 310 693 310 693 349 648 c 0,26,27
 398 592 398 592 542 591 c 1,16,-1
EndSplineSet
EndChar

StartChar: afii10098
Encoding: 1169 1169 343
Width: 661
GlyphClass: 2
Flags: W
LayerCount: 2
UndoRedoHistory
Layer: 1
Undoes
EndUndoes
Redoes
EndRedoes
EndUndoRedoHistory
Fore
SplineSet
77 0 m 1,0,-1
 201 1184 l 1,1,-1
 590 1184 l 1,2,-1
 611 1375 l 1,3,-1
 718 1375 l 1,4,-1
 684 1046 l 1,5,-1
 383 1046 l 1,6,-1
 273 0 l 1,7,-1
 77 0 l 1,0,-1
EndSplineSet
EndChar

StartChar: afii10099
Encoding: 1106 1106 344
Width: 929
GlyphClass: 2
Flags: W
LayerCount: 2
UndoRedoHistory
Layer: 1
Undoes
EndUndoes
Redoes
EndRedoes
EndUndoRedoHistory
Fore
SplineSet
311 -299 m 1,0,-1
 326 -157 l 1,1,-1
 351 -157 l 2,2,3
 396 -157 396 -157 422.5 -154 c 128,-1,4
 449 -151 449 -151 475.5 -139 c 128,-1,5
 502 -127 502 -127 516 -107 c 128,-1,6
 530 -87 530 -87 544 -49.5 c 128,-1,7
 558 -12 558 -12 566 38.5 c 128,-1,8
 574 89 574 89 582 166 c 2,9,-1
 644 756 l 2,10,11
 645 770 645 770 645 783 c 0,12,13
 646 821 646 821 632 842 c 0,14,15
 614 870 614 870 558 870 c 0,16,17
 511 870 511 870 452.5 848 c 128,-1,18
 394 826 394 826 379 814 c 1,19,-1
 294 0 l 1,20,-1
 82 0 l 1,21,-1
 214 1265 l 1,22,-1
 65 1265 l 1,23,-1
 78 1392 l 1,24,-1
 228 1392 l 1,25,-1
 256 1658 l 1,26,-1
 468 1658 l 1,27,-1
 440 1392 l 1,28,-1
 728 1392 l 1,29,-1
 715 1265 l 1,30,-1
 427 1265 l 1,31,-1
 391 925 l 1,32,33
 406 936 406 936 434.5 951.5 c 128,-1,34
 463 967 463 967 529.5 988 c 128,-1,35
 596 1009 596 1009 659 1009 c 0,36,37
 774 1008 774 1008 822 950 c 0,38,39
 864 900 864 900 863 831 c 0,40,41
 863 819 863 819 862 807 c 1,42,-1
 798 209 l 2,43,44
 787 101 787 101 775 30.5 c 128,-1,45
 763 -40 763 -40 742 -101.5 c 128,-1,46
 721 -163 721 -163 693.5 -197 c 128,-1,47
 666 -231 666 -231 621 -256 c 128,-1,48
 576 -281 576 -281 518.5 -290 c 128,-1,49
 461 -299 461 -299 379 -299 c 2,50,-1
 311 -299 l 1,0,-1
EndSplineSet
EndChar

StartChar: afii10101
Encoding: 1108 1108 346
Width: 811
GlyphClass: 2
Flags: W
LayerCount: 2
UndoRedoHistory
Layer: 1
Undoes
EndUndoes
Redoes
EndRedoes
EndUndoRedoHistory
Fore
SplineSet
382 -17 m 0,0,1
 277 -17 277 -17 210.5 17 c 128,-1,2
 144 51 144 51 116.5 112.5 c 0,3,4
 88 174 88 174 82 260 c 0,5,6
 80 287 80 287 80 317 c 0,7,8
 80 380 80 380 90 453 c 1,9,-1
 119 728 l 2,10,11
 129 823 129 823 144.5 892.5 c 128,-1,12
 160 962 160 962 189 1023 c 128,-1,13
 218 1084 218 1084 259.5 1121.5 c 128,-1,14
 301 1159 301 1159 364 1180 c 128,-1,15
 427 1201 427 1201 510 1201 c 0,16,17
 605 1201 605 1201 666.5 1177 c 128,-1,18
 728 1153 728 1153 758 1106 c 0,19,20
 788 1060 788 1060 796 990 c 0,21,22
 799 961 799 961 799 927 c 0,23,24
 799 882 799 882 793 829 c 1,25,-1
 790 796 l 1,26,-1
 598 796 l 1,27,-1
 601 830 l 1,28,29
 606 874 606 874 606 908 c 0,30,31
 606 967 606 967 592 997 c 0,32,33
 570 1044 570 1044 497 1044 c 0,34,35
 415 1044 415 1044 383 987 c 128,-1,36
 351 930 351 930 335 771 c 1,37,-1
 324 672 l 1,38,-1
 617 672 l 1,39,-1
 602 532 l 1,40,-1
 310 532 l 1,41,-1
 297 401 l 2,42,43
 290 336 290 336 290 289 c 0,44,45
 290 224 290 224 303 194 c 0,46,47
 325 140 325 140 404 140 c 0,48,49
 481 140 481 140 510 191 c 128,-1,50
 539 242 539 242 551 353 c 1,51,-1
 556 406 l 1,52,-1
 748 406 l 1,53,-1
 744 366 l 2,54,55
 734 271 734 271 712 203.5 c 128,-1,56
 690 136 690 136 649 84.5 c 128,-1,57
 608 33 608 33 542 8 c 128,-1,58
 476 -17 476 -17 382 -17 c 0,0,1
EndSplineSet
EndChar

StartChar: afii10103
Encoding: 1110 1110 348
Width: 474
GlyphClass: 2
Flags: W
LayerCount: 2
UndoRedoHistory
Layer: 1
Undoes
EndUndoes
Redoes
EndRedoes
EndUndoRedoHistory
Fore
SplineSet
82 0 m 1,0,-1
 206 1184 l 1,1,-1
 418 1184 l 1,2,-1
 294 0 l 1,3,-1
 82 0 l 1,0,-1
223 1337 m 1,4,-1
 246 1562 l 1,5,-1
 462 1562 l 1,6,-1
 439 1337 l 1,7,-1
 223 1337 l 1,4,-1
EndSplineSet
EndChar

StartChar: afii10105
Encoding: 1112 1112 350
Width: 457
GlyphClass: 2
Flags: W
LayerCount: 2
UndoRedoHistory
Layer: 1
Undoes
EndUndoes
Redoes
EndRedoes
EndUndoRedoHistory
Fore
SplineSet
-117 -287 m 1,0,-1
 -100 -134 l 1,1,2
 -70 -139 -70 -139 -44 -139 c 0,3,4
 24 -139 24 -139 56 -101 c 128,-1,5
 88 -63 88 -63 95 6 c 2,6,-1
 219 1184 l 1,7,-1
 431 1184 l 1,8,-1
 305 -16 l 2,9,10
 290 -153 290 -153 207 -226.5 c 128,-1,11
 124 -300 124 -300 -10 -300 c 0,12,13
 -83 -300 -83 -300 -117 -287 c 1,0,-1
237 1358 m 1,14,-1
 261 1585 l 1,15,-1
 475 1585 l 1,16,-1
 451 1358 l 1,17,-1
 237 1358 l 1,14,-1
EndSplineSet
EndChar

StartChar: afii10106
Encoding: 1113 1113 351
Width: 1342
GlyphClass: 2
Flags: W
LayerCount: 2
UndoRedoHistory
Layer: 1
Undoes
EndUndoes
Redoes
EndRedoes
EndUndoRedoHistory
Fore
SplineSet
-39 -10 m 1,0,-1
 -22 149 l 1,1,2
 19 149 19 149 49 159 c 128,-1,3
 79 169 79 169 103.5 196.5 c 128,-1,4
 128 224 128 224 144.5 257.5 c 128,-1,5
 161 291 161 291 177 355 c 128,-1,6
 193 419 193 419 205 483 c 128,-1,7
 217 547 217 547 234 654 c 2,8,-1
 318 1184 l 1,9,-1
 929 1184 l 1,10,-1
 877 682 l 1,11,-1
 911 682 l 2,12,13
 1136 682 1136 682 1217 609 c 0,14,15
 1282 550 1282 550 1282 415 c 0,16,17
 1282 381 1282 381 1278 343 c 0,18,19
 1265 218 1265 218 1217.5 145.5 c 128,-1,20
 1170 73 1170 73 1074 38 c 128,-1,21
 978 3 978 3 817 0 c 1,22,-1
 593 0 l 1,23,-1
 701 1022 l 1,24,-1
 487 1022 l 1,25,-1
 422 623 l 2,26,27
 395 453 395 453 364.5 339.5 c 128,-1,28
 334 226 334 226 300 156 c 128,-1,29
 266 86 266 86 216 49.5 c 128,-1,30
 166 13 166 13 114.5 1.5 c 128,-1,31
 63 -10 63 -10 -17 -10 c 2,32,-1
 -39 -10 l 1,0,-1
819 126 m 1,33,-1
 835 126 l 2,34,35
 967 126 967 126 1020 173 c 128,-1,36
 1073 220 1073 220 1087 344 c 0,37,38
 1090 372 1090 372 1090 395 c 0,39,40
 1090 472 1090 472 1058 508 c 0,41,42
 1016 556 1016 556 880 556 c 2,43,-1
 863 556 l 1,44,-1
 819 126 l 1,33,-1
EndSplineSet
EndChar

StartChar: afii10107
Encoding: 1114 1114 352
Width: 1284
GlyphClass: 2
Flags: W
LayerCount: 2
UndoRedoHistory
Layer: 1
Undoes
EndUndoes
Redoes
EndRedoes
EndUndoRedoHistory
Fore
SplineSet
63 0 m 1,0,-1
 187 1184 l 1,1,-1
 398 1184 l 1,2,-1
 347 692 l 1,3,-1
 605 692 l 1,4,-1
 656 1184 l 1,5,-1
 868 1184 l 1,6,-1
 816 683 l 1,7,8
 843 683 843 683 849 682 c 0,9,10
 1082 679 1082 679 1165 608 c 0,11,12
 1232 551 1232 551 1232 414 c 0,13,14
 1232 381 1232 381 1228 343 c 0,15,16
 1215 218 1215 218 1166.5 145 c 128,-1,17
 1118 72 1118 72 1020.5 37 c 128,-1,18
 923 2 923 2 760 0 c 1,19,-1
 532 0 l 1,20,-1
 590 547 l 1,21,-1
 332 547 l 1,22,-1
 274 0 l 1,23,-1
 63 0 l 1,0,-1
758 126 m 1,24,25
 780 126 780 126 782 127 c 0,26,27
 917 129 917 129 970 174.5 c 128,-1,28
 1023 220 1023 220 1037 344 c 1,29,30
 1040 370 1040 370 1040 393 c 0,31,32
 1040 471 1040 471 1008 506 c 0,33,34
 966 552 966 552 830 556 c 0,35,36
 806 556 806 556 802 557 c 1,37,-1
 758 126 l 1,24,25
EndSplineSet
EndChar

StartChar: afii10108
Encoding: 1115 1115 353
Width: 929
GlyphClass: 2
Flags: W
LayerCount: 2
UndoRedoHistory
Layer: 1
Undoes
EndUndoes
Redoes
EndRedoes
EndUndoRedoHistory
Fore
SplineSet
82 0 m 1,0,-1
 214 1265 l 1,1,-1
 65 1265 l 1,2,-1
 78 1392 l 1,3,-1
 228 1392 l 1,4,-1
 256 1658 l 1,5,-1
 468 1658 l 1,6,-1
 440 1392 l 1,7,-1
 728 1392 l 1,8,-1
 715 1265 l 1,9,-1
 427 1265 l 1,10,-1
 391 925 l 1,11,12
 406 936 406 936 434.5 951.5 c 128,-1,13
 463 967 463 967 529.5 988 c 128,-1,14
 596 1009 596 1009 659 1009 c 0,15,16
 774 1008 774 1008 822 950 c 0,17,18
 864 900 864 900 863 831 c 0,19,20
 863 819 863 819 862 807 c 2,21,-1
 777 0 l 1,22,-1
 565 0 l 1,23,-1
 644 756 l 2,24,25
 645 770 645 770 645 783 c 0,26,27
 646 821 646 821 632 842 c 0,28,29
 614 870 614 870 558 870 c 0,30,31
 521 870 521 870 456.5 847.5 c 128,-1,32
 392 825 392 825 379 814 c 1,33,-1
 294 0 l 1,34,-1
 82 0 l 1,0,-1
EndSplineSet
EndChar

StartChar: afii10145
Encoding: 1039 1039 356
Width: 1115
GlyphClass: 2
Flags: W
LayerCount: 2
UndoRedoHistory
Layer: 1
Undoes
EndUndoes
Redoes
EndRedoes
EndUndoRedoHistory
Fore
SplineSet
399 -300 m 1,0,-1
 416 0 l 1,1,-1
 82 0 l 1,2,-1
 256 1658 l 1,3,-1
 480 1658 l 1,4,-1
 323 160 l 1,5,-1
 728 160 l 1,6,-1
 885 1658 l 1,7,-1
 1109 1658 l 1,8,-1
 935 0 l 1,9,-1
 613 0 l 1,10,-1
 567 -300 l 1,11,-1
 399 -300 l 1,0,-1
EndSplineSet
EndChar

